ISO-10303-21;
HEADER;
/* Generated by software containing ST-Developer
 * from STEP Tools, Inc. (www.steptools.com) 
 */

FILE_DESCRIPTION(
/* description */ (''),
/* implementation_level */ '2;1');

FILE_NAME(
/* name */ 'Power.step',
/* time_stamp */ '2025-11-15T18:54:59+01:00',
/* author */ (''),
/* organization */ (''),
/* preprocessor_version */ 'ST-DEVELOPER v20.1',
/* originating_system */ 'Autodesk Translation Framework v14.21.0.0',
/* authorisation */ '');

FILE_SCHEMA (('AUTOMOTIVE_DESIGN { 1 0 10303 214 3 1 1 }'));
ENDSEC;

DATA;
#10=MECHANICAL_DESIGN_GEOMETRIC_PRESENTATION_REPRESENTATION('',(#16,#17,
#18),#739);
#11=SHAPE_REPRESENTATION_RELATIONSHIP('SRR','None',#745,#12);
#12=ADVANCED_BREP_SHAPE_REPRESENTATION('',(#13),#738);
#13=MANIFOLD_SOLID_BREP('Power',#424);
#14=FACE_BOUND('',#75,.T.);
#15=FACE_BOUND('',#76,.T.);
#16=STYLED_ITEM('',(#782),#413);
#17=STYLED_ITEM('',(#782),#418);
#18=STYLED_ITEM('',(#766),#13);
#19=PLANE('',#429);
#20=PLANE('',#433);
#21=PLANE('',#437);
#22=PLANE('',#459);
#23=PLANE('',#460);
#24=PLANE('',#464);
#25=PLANE('',#468);
#26=PLANE('',#473);
#27=PLANE('',#474);
#28=PLANE('',#475);
#29=PLANE('',#476);
#30=FACE_OUTER_BOUND('',#54,.T.);
#31=FACE_OUTER_BOUND('',#55,.T.);
#32=FACE_OUTER_BOUND('',#56,.T.);
#33=FACE_OUTER_BOUND('',#57,.T.);
#34=FACE_OUTER_BOUND('',#58,.T.);
#35=FACE_OUTER_BOUND('',#59,.T.);
#36=FACE_OUTER_BOUND('',#60,.T.);
#37=FACE_OUTER_BOUND('',#61,.T.);
#38=FACE_OUTER_BOUND('',#62,.T.);
#39=FACE_OUTER_BOUND('',#63,.T.);
#40=FACE_OUTER_BOUND('',#64,.T.);
#41=FACE_OUTER_BOUND('',#65,.T.);
#42=FACE_OUTER_BOUND('',#66,.T.);
#43=FACE_OUTER_BOUND('',#67,.T.);
#44=FACE_OUTER_BOUND('',#68,.T.);
#45=FACE_OUTER_BOUND('',#69,.T.);
#46=FACE_OUTER_BOUND('',#70,.T.);
#47=FACE_OUTER_BOUND('',#71,.T.);
#48=FACE_OUTER_BOUND('',#72,.T.);
#49=FACE_OUTER_BOUND('',#73,.T.);
#50=FACE_OUTER_BOUND('',#74,.T.);
#51=FACE_OUTER_BOUND('',#77,.T.);
#52=FACE_OUTER_BOUND('',#78,.T.);
#53=FACE_OUTER_BOUND('',#79,.T.);
#54=EDGE_LOOP('',(#269,#270,#271,#272));
#55=EDGE_LOOP('',(#273,#274,#275,#276));
#56=EDGE_LOOP('',(#277,#278,#279,#280));
#57=EDGE_LOOP('',(#281,#282,#283,#284));
#58=EDGE_LOOP('',(#285,#286,#287,#288));
#59=EDGE_LOOP('',(#289,#290,#291,#292));
#60=EDGE_LOOP('',(#293,#294,#295,#296));
#61=EDGE_LOOP('',(#297,#298,#299,#300));
#62=EDGE_LOOP('',(#301,#302,#303,#304));
#63=EDGE_LOOP('',(#305,#306,#307,#308));
#64=EDGE_LOOP('',(#309,#310,#311,#312));
#65=EDGE_LOOP('',(#313,#314,#315,#316));
#66=EDGE_LOOP('',(#317,#318,#319,#320));
#67=EDGE_LOOP('',(#321,#322,#323,#324));
#68=EDGE_LOOP('',(#325,#326,#327,#328));
#69=EDGE_LOOP('',(#329,#330,#331,#332));
#70=EDGE_LOOP('',(#333,#334,#335,#336));
#71=EDGE_LOOP('',(#337,#338,#339,#340));
#72=EDGE_LOOP('',(#341,#342,#343,#344));
#73=EDGE_LOOP('',(#345,#346,#347,#348,#349));
#74=EDGE_LOOP('',(#350));
#75=EDGE_LOOP('',(#351,#352,#353,#354));
#76=EDGE_LOOP('',(#355,#356,#357,#358));
#77=EDGE_LOOP('',(#359,#360,#361,#362,#363,#364,#365,#366,#367,#368,#369,
#370,#371));
#78=EDGE_LOOP('',(#372,#373,#374,#375,#376));
#79=EDGE_LOOP('',(#377,#378,#379,#380,#381,#382,#383,#384,#385,#386));
#80=LINE('',#619,#112);
#81=LINE('',#622,#113);
#82=LINE('',#625,#114);
#83=LINE('',#627,#115);
#84=LINE('',#628,#116);
#85=LINE('',#634,#117);
#86=LINE('',#637,#118);
#87=LINE('',#640,#119);
#88=LINE('',#642,#120);
#89=LINE('',#643,#121);
#90=LINE('',#649,#122);
#91=LINE('',#652,#123);
#92=LINE('',#654,#124);
#93=LINE('',#655,#125);
#94=LINE('',#663,#126);
#95=LINE('',#669,#127);
#96=LINE('',#676,#128);
#97=LINE('',#679,#129);
#98=LINE('',#684,#130);
#99=LINE('',#690,#131);
#100=LINE('',#699,#132);
#101=LINE('',#701,#133);
#102=LINE('',#703,#134);
#103=LINE('',#704,#135);
#104=LINE('',#709,#136);
#105=LINE('',#713,#137);
#106=LINE('',#715,#138);
#107=LINE('',#716,#139);
#108=LINE('',#725,#140);
#109=LINE('',#731,#141);
#110=LINE('',#732,#142);
#111=LINE('',#734,#143);
#112=VECTOR('',#483,10.);
#113=VECTOR('',#486,10.);
#114=VECTOR('',#489,10.);
#115=VECTOR('',#490,10.);
#116=VECTOR('',#491,10.);
#117=VECTOR('',#496,10.);
#118=VECTOR('',#499,10.);
#119=VECTOR('',#502,10.);
#120=VECTOR('',#503,10.);
#121=VECTOR('',#504,10.);
#122=VECTOR('',#511,10.);
#123=VECTOR('',#514,10.);
#124=VECTOR('',#515,10.);
#125=VECTOR('',#516,10.);
#126=VECTOR('',#527,10.);
#127=VECTOR('',#534,10.);
#128=VECTOR('',#541,10.);
#129=VECTOR('',#544,10.);
#130=VECTOR('',#549,10.);
#131=VECTOR('',#556,10.);
#132=VECTOR('',#569,10.);
#133=VECTOR('',#570,10.);
#134=VECTOR('',#571,10.);
#135=VECTOR('',#572,10.);
#136=VECTOR('',#577,10.);
#137=VECTOR('',#582,10.);
#138=VECTOR('',#583,10.);
#139=VECTOR('',#584,10.);
#140=VECTOR('',#597,2.5);
#141=VECTOR('',#606,10.);
#142=VECTOR('',#607,10.);
#143=VECTOR('',#610,10.);
#144=CIRCLE('',#427,0.5);
#145=CIRCLE('',#428,0.5);
#146=CIRCLE('',#431,0.5);
#147=CIRCLE('',#432,0.5);
#148=CIRCLE('',#435,0.249999999999999);
#149=CIRCLE('',#436,0.249999999999999);
#150=CIRCLE('',#439,0.249999999999999);
#151=CIRCLE('',#440,0.249999999999999);
#152=CIRCLE('',#442,3.);
#153=CIRCLE('',#443,3.);
#154=CIRCLE('',#445,3.);
#155=CIRCLE('',#446,3.);
#156=CIRCLE('',#448,1.99999999999999);
#157=CIRCLE('',#449,1.99999999999999);
#158=CIRCLE('',#451,0.249999999999994);
#159=CIRCLE('',#452,0.249999999999994);
#160=CIRCLE('',#454,1.50000000000004);
#161=CIRCLE('',#455,1.50000000000004);
#162=CIRCLE('',#457,0.250000000000027);
#163=CIRCLE('',#458,0.250000000000027);
#164=CIRCLE('',#462,0.250000000000012);
#165=CIRCLE('',#463,0.250000000000012);
#166=CIRCLE('',#466,0.250000000000004);
#167=CIRCLE('',#467,0.250000000000004);
#168=CIRCLE('',#470,2.5);
#169=CIRCLE('',#471,2.5);
#170=CIRCLE('',#472,2.5);
#171=VERTEX_POINT('',#615);
#172=VERTEX_POINT('',#616);
#173=VERTEX_POINT('',#618);
#174=VERTEX_POINT('',#620);
#175=VERTEX_POINT('',#624);
#176=VERTEX_POINT('',#626);
#177=VERTEX_POINT('',#630);
#178=VERTEX_POINT('',#631);
#179=VERTEX_POINT('',#633);
#180=VERTEX_POINT('',#635);
#181=VERTEX_POINT('',#639);
#182=VERTEX_POINT('',#641);
#183=VERTEX_POINT('',#645);
#184=VERTEX_POINT('',#647);
#185=VERTEX_POINT('',#651);
#186=VERTEX_POINT('',#653);
#187=VERTEX_POINT('',#660);
#188=VERTEX_POINT('',#662);
#189=VERTEX_POINT('',#666);
#190=VERTEX_POINT('',#668);
#191=VERTEX_POINT('',#672);
#192=VERTEX_POINT('',#673);
#193=VERTEX_POINT('',#675);
#194=VERTEX_POINT('',#677);
#195=VERTEX_POINT('',#681);
#196=VERTEX_POINT('',#683);
#197=VERTEX_POINT('',#687);
#198=VERTEX_POINT('',#689);
#199=VERTEX_POINT('',#697);
#200=VERTEX_POINT('',#698);
#201=VERTEX_POINT('',#700);
#202=VERTEX_POINT('',#702);
#203=VERTEX_POINT('',#706);
#204=VERTEX_POINT('',#708);
#205=VERTEX_POINT('',#712);
#206=VERTEX_POINT('',#714);
#207=VERTEX_POINT('',#722);
#208=VERTEX_POINT('',#724);
#209=VERTEX_POINT('',#726);
#210=EDGE_CURVE('',#171,#172,#144,.T.);
#211=EDGE_CURVE('',#172,#173,#80,.T.);
#212=EDGE_CURVE('',#173,#174,#145,.T.);
#213=EDGE_CURVE('',#174,#171,#81,.T.);
#214=EDGE_CURVE('',#175,#172,#82,.T.);
#215=EDGE_CURVE('',#175,#176,#83,.T.);
#216=EDGE_CURVE('',#173,#176,#84,.T.);
#217=EDGE_CURVE('',#177,#178,#146,.T.);
#218=EDGE_CURVE('',#178,#179,#85,.T.);
#219=EDGE_CURVE('',#179,#180,#147,.T.);
#220=EDGE_CURVE('',#180,#177,#86,.T.);
#221=EDGE_CURVE('',#181,#178,#87,.T.);
#222=EDGE_CURVE('',#182,#181,#88,.T.);
#223=EDGE_CURVE('',#179,#182,#89,.T.);
#224=EDGE_CURVE('',#182,#183,#148,.T.);
#225=EDGE_CURVE('',#184,#181,#149,.T.);
#226=EDGE_CURVE('',#183,#184,#90,.T.);
#227=EDGE_CURVE('',#183,#185,#91,.T.);
#228=EDGE_CURVE('',#186,#184,#92,.T.);
#229=EDGE_CURVE('',#185,#186,#93,.T.);
#230=EDGE_CURVE('',#185,#175,#150,.T.);
#231=EDGE_CURVE('',#176,#186,#151,.T.);
#232=EDGE_CURVE('',#187,#174,#152,.T.);
#233=EDGE_CURVE('',#188,#187,#94,.T.);
#234=EDGE_CURVE('',#171,#188,#153,.T.);
#235=EDGE_CURVE('',#189,#180,#154,.T.);
#236=EDGE_CURVE('',#189,#190,#95,.T.);
#237=EDGE_CURVE('',#177,#190,#155,.T.);
#238=EDGE_CURVE('',#191,#192,#156,.T.);
#239=EDGE_CURVE('',#191,#193,#96,.T.);
#240=EDGE_CURVE('',#193,#194,#157,.T.);
#241=EDGE_CURVE('',#192,#194,#97,.T.);
#242=EDGE_CURVE('',#195,#191,#158,.T.);
#243=EDGE_CURVE('',#195,#196,#98,.T.);
#244=EDGE_CURVE('',#196,#193,#159,.T.);
#245=EDGE_CURVE('',#197,#195,#160,.T.);
#246=EDGE_CURVE('',#197,#198,#99,.T.);
#247=EDGE_CURVE('',#198,#196,#161,.T.);
#248=EDGE_CURVE('',#192,#197,#162,.T.);
#249=EDGE_CURVE('',#194,#198,#163,.T.);
#250=EDGE_CURVE('',#199,#200,#100,.T.);
#251=EDGE_CURVE('',#199,#201,#101,.T.);
#252=EDGE_CURVE('',#201,#202,#102,.T.);
#253=EDGE_CURVE('',#200,#202,#103,.T.);
#254=EDGE_CURVE('',#203,#199,#164,.T.);
#255=EDGE_CURVE('',#203,#204,#104,.T.);
#256=EDGE_CURVE('',#204,#201,#165,.T.);
#257=EDGE_CURVE('',#205,#203,#105,.T.);
#258=EDGE_CURVE('',#205,#206,#106,.T.);
#259=EDGE_CURVE('',#206,#204,#107,.T.);
#260=EDGE_CURVE('',#200,#205,#166,.T.);
#261=EDGE_CURVE('',#202,#206,#167,.T.);
#262=EDGE_CURVE('',#207,#207,#168,.T.);
#263=EDGE_CURVE('',#207,#208,#108,.T.);
#264=EDGE_CURVE('',#209,#208,#169,.T.);
#265=EDGE_CURVE('',#208,#209,#170,.T.);
#266=EDGE_CURVE('',#190,#209,#109,.T.);
#267=EDGE_CURVE('',#209,#187,#110,.T.);
#268=EDGE_CURVE('',#188,#189,#111,.T.);
#269=ORIENTED_EDGE('',*,*,#210,.T.);
#270=ORIENTED_EDGE('',*,*,#211,.T.);
#271=ORIENTED_EDGE('',*,*,#212,.T.);
#272=ORIENTED_EDGE('',*,*,#213,.T.);
#273=ORIENTED_EDGE('',*,*,#211,.F.);
#274=ORIENTED_EDGE('',*,*,#214,.F.);
#275=ORIENTED_EDGE('',*,*,#215,.T.);
#276=ORIENTED_EDGE('',*,*,#216,.F.);
#277=ORIENTED_EDGE('',*,*,#217,.T.);
#278=ORIENTED_EDGE('',*,*,#218,.T.);
#279=ORIENTED_EDGE('',*,*,#219,.T.);
#280=ORIENTED_EDGE('',*,*,#220,.T.);
#281=ORIENTED_EDGE('',*,*,#218,.F.);
#282=ORIENTED_EDGE('',*,*,#221,.F.);
#283=ORIENTED_EDGE('',*,*,#222,.F.);
#284=ORIENTED_EDGE('',*,*,#223,.F.);
#285=ORIENTED_EDGE('',*,*,#224,.F.);
#286=ORIENTED_EDGE('',*,*,#222,.T.);
#287=ORIENTED_EDGE('',*,*,#225,.F.);
#288=ORIENTED_EDGE('',*,*,#226,.F.);
#289=ORIENTED_EDGE('',*,*,#227,.F.);
#290=ORIENTED_EDGE('',*,*,#226,.T.);
#291=ORIENTED_EDGE('',*,*,#228,.F.);
#292=ORIENTED_EDGE('',*,*,#229,.F.);
#293=ORIENTED_EDGE('',*,*,#230,.F.);
#294=ORIENTED_EDGE('',*,*,#229,.T.);
#295=ORIENTED_EDGE('',*,*,#231,.F.);
#296=ORIENTED_EDGE('',*,*,#215,.F.);
#297=ORIENTED_EDGE('',*,*,#213,.F.);
#298=ORIENTED_EDGE('',*,*,#232,.F.);
#299=ORIENTED_EDGE('',*,*,#233,.F.);
#300=ORIENTED_EDGE('',*,*,#234,.F.);
#301=ORIENTED_EDGE('',*,*,#220,.F.);
#302=ORIENTED_EDGE('',*,*,#235,.F.);
#303=ORIENTED_EDGE('',*,*,#236,.T.);
#304=ORIENTED_EDGE('',*,*,#237,.F.);
#305=ORIENTED_EDGE('',*,*,#238,.F.);
#306=ORIENTED_EDGE('',*,*,#239,.T.);
#307=ORIENTED_EDGE('',*,*,#240,.T.);
#308=ORIENTED_EDGE('',*,*,#241,.F.);
#309=ORIENTED_EDGE('',*,*,#242,.F.);
#310=ORIENTED_EDGE('',*,*,#243,.T.);
#311=ORIENTED_EDGE('',*,*,#244,.T.);
#312=ORIENTED_EDGE('',*,*,#239,.F.);
#313=ORIENTED_EDGE('',*,*,#245,.F.);
#314=ORIENTED_EDGE('',*,*,#246,.T.);
#315=ORIENTED_EDGE('',*,*,#247,.T.);
#316=ORIENTED_EDGE('',*,*,#243,.F.);
#317=ORIENTED_EDGE('',*,*,#248,.F.);
#318=ORIENTED_EDGE('',*,*,#241,.T.);
#319=ORIENTED_EDGE('',*,*,#249,.T.);
#320=ORIENTED_EDGE('',*,*,#246,.F.);
#321=ORIENTED_EDGE('',*,*,#249,.F.);
#322=ORIENTED_EDGE('',*,*,#240,.F.);
#323=ORIENTED_EDGE('',*,*,#244,.F.);
#324=ORIENTED_EDGE('',*,*,#247,.F.);
#325=ORIENTED_EDGE('',*,*,#250,.F.);
#326=ORIENTED_EDGE('',*,*,#251,.T.);
#327=ORIENTED_EDGE('',*,*,#252,.T.);
#328=ORIENTED_EDGE('',*,*,#253,.F.);
#329=ORIENTED_EDGE('',*,*,#254,.F.);
#330=ORIENTED_EDGE('',*,*,#255,.T.);
#331=ORIENTED_EDGE('',*,*,#256,.T.);
#332=ORIENTED_EDGE('',*,*,#251,.F.);
#333=ORIENTED_EDGE('',*,*,#257,.F.);
#334=ORIENTED_EDGE('',*,*,#258,.T.);
#335=ORIENTED_EDGE('',*,*,#259,.T.);
#336=ORIENTED_EDGE('',*,*,#255,.F.);
#337=ORIENTED_EDGE('',*,*,#260,.F.);
#338=ORIENTED_EDGE('',*,*,#253,.T.);
#339=ORIENTED_EDGE('',*,*,#261,.T.);
#340=ORIENTED_EDGE('',*,*,#258,.F.);
#341=ORIENTED_EDGE('',*,*,#261,.F.);
#342=ORIENTED_EDGE('',*,*,#252,.F.);
#343=ORIENTED_EDGE('',*,*,#256,.F.);
#344=ORIENTED_EDGE('',*,*,#259,.F.);
#345=ORIENTED_EDGE('',*,*,#262,.F.);
#346=ORIENTED_EDGE('',*,*,#263,.T.);
#347=ORIENTED_EDGE('',*,*,#264,.F.);
#348=ORIENTED_EDGE('',*,*,#265,.F.);
#349=ORIENTED_EDGE('',*,*,#263,.F.);
#350=ORIENTED_EDGE('',*,*,#262,.T.);
#351=ORIENTED_EDGE('',*,*,#238,.T.);
#352=ORIENTED_EDGE('',*,*,#248,.T.);
#353=ORIENTED_EDGE('',*,*,#245,.T.);
#354=ORIENTED_EDGE('',*,*,#242,.T.);
#355=ORIENTED_EDGE('',*,*,#250,.T.);
#356=ORIENTED_EDGE('',*,*,#260,.T.);
#357=ORIENTED_EDGE('',*,*,#257,.T.);
#358=ORIENTED_EDGE('',*,*,#254,.T.);
#359=ORIENTED_EDGE('',*,*,#232,.T.);
#360=ORIENTED_EDGE('',*,*,#212,.F.);
#361=ORIENTED_EDGE('',*,*,#216,.T.);
#362=ORIENTED_EDGE('',*,*,#231,.T.);
#363=ORIENTED_EDGE('',*,*,#228,.T.);
#364=ORIENTED_EDGE('',*,*,#225,.T.);
#365=ORIENTED_EDGE('',*,*,#221,.T.);
#366=ORIENTED_EDGE('',*,*,#217,.F.);
#367=ORIENTED_EDGE('',*,*,#237,.T.);
#368=ORIENTED_EDGE('',*,*,#266,.T.);
#369=ORIENTED_EDGE('',*,*,#264,.T.);
#370=ORIENTED_EDGE('',*,*,#265,.T.);
#371=ORIENTED_EDGE('',*,*,#267,.T.);
#372=ORIENTED_EDGE('',*,*,#268,.F.);
#373=ORIENTED_EDGE('',*,*,#233,.T.);
#374=ORIENTED_EDGE('',*,*,#267,.F.);
#375=ORIENTED_EDGE('',*,*,#266,.F.);
#376=ORIENTED_EDGE('',*,*,#236,.F.);
#377=ORIENTED_EDGE('',*,*,#235,.T.);
#378=ORIENTED_EDGE('',*,*,#219,.F.);
#379=ORIENTED_EDGE('',*,*,#223,.T.);
#380=ORIENTED_EDGE('',*,*,#224,.T.);
#381=ORIENTED_EDGE('',*,*,#227,.T.);
#382=ORIENTED_EDGE('',*,*,#230,.T.);
#383=ORIENTED_EDGE('',*,*,#214,.T.);
#384=ORIENTED_EDGE('',*,*,#210,.F.);
#385=ORIENTED_EDGE('',*,*,#234,.T.);
#386=ORIENTED_EDGE('',*,*,#268,.T.);
#387=CYLINDRICAL_SURFACE('',#426,0.5);
#388=CYLINDRICAL_SURFACE('',#430,0.5);
#389=CYLINDRICAL_SURFACE('',#434,0.249999999999999);
#390=CYLINDRICAL_SURFACE('',#438,0.249999999999999);
#391=CYLINDRICAL_SURFACE('',#441,3.);
#392=CYLINDRICAL_SURFACE('',#444,3.);
#393=CYLINDRICAL_SURFACE('',#447,1.99999999999999);
#394=CYLINDRICAL_SURFACE('',#450,0.249999999999994);
#395=CYLINDRICAL_SURFACE('',#453,1.50000000000004);
#396=CYLINDRICAL_SURFACE('',#456,0.250000000000027);
#397=CYLINDRICAL_SURFACE('',#461,0.250000000000012);
#398=CYLINDRICAL_SURFACE('',#465,0.250000000000004);
#399=CYLINDRICAL_SURFACE('',#469,2.5);
#400=ADVANCED_FACE('',(#30),#387,.F.);
#401=ADVANCED_FACE('',(#31),#19,.T.);
#402=ADVANCED_FACE('',(#32),#388,.F.);
#403=ADVANCED_FACE('',(#33),#20,.T.);
#404=ADVANCED_FACE('',(#34),#389,.T.);
#405=ADVANCED_FACE('',(#35),#21,.T.);
#406=ADVANCED_FACE('',(#36),#390,.T.);
#407=ADVANCED_FACE('',(#37),#391,.T.);
#408=ADVANCED_FACE('',(#38),#392,.T.);
#409=ADVANCED_FACE('',(#39),#393,.F.);
#410=ADVANCED_FACE('',(#40),#394,.F.);
#411=ADVANCED_FACE('',(#41),#395,.T.);
#412=ADVANCED_FACE('',(#42),#396,.F.);
#413=ADVANCED_FACE('',(#43),#22,.T.);
#414=ADVANCED_FACE('',(#44),#23,.F.);
#415=ADVANCED_FACE('',(#45),#397,.F.);
#416=ADVANCED_FACE('',(#46),#24,.F.);
#417=ADVANCED_FACE('',(#47),#398,.F.);
#418=ADVANCED_FACE('',(#48),#25,.T.);
#419=ADVANCED_FACE('',(#49),#399,.T.);
#420=ADVANCED_FACE('',(#50,#14,#15),#26,.T.);
#421=ADVANCED_FACE('',(#51),#27,.F.);
#422=ADVANCED_FACE('',(#52),#28,.T.);
#423=ADVANCED_FACE('',(#53),#29,.T.);
#424=CLOSED_SHELL('',(#400,#401,#402,#403,#404,#405,#406,#407,#408,#409,
#410,#411,#412,#413,#414,#415,#416,#417,#418,#419,#420,#421,#422,#423));
#425=AXIS2_PLACEMENT_3D('',#613,#477,#478);
#426=AXIS2_PLACEMENT_3D('',#614,#479,#480);
#427=AXIS2_PLACEMENT_3D('',#617,#481,#482);
#428=AXIS2_PLACEMENT_3D('',#621,#484,#485);
#429=AXIS2_PLACEMENT_3D('',#623,#487,#488);
#430=AXIS2_PLACEMENT_3D('',#629,#492,#493);
#431=AXIS2_PLACEMENT_3D('',#632,#494,#495);
#432=AXIS2_PLACEMENT_3D('',#636,#497,#498);
#433=AXIS2_PLACEMENT_3D('',#638,#500,#501);
#434=AXIS2_PLACEMENT_3D('',#644,#505,#506);
#435=AXIS2_PLACEMENT_3D('',#646,#507,#508);
#436=AXIS2_PLACEMENT_3D('',#648,#509,#510);
#437=AXIS2_PLACEMENT_3D('',#650,#512,#513);
#438=AXIS2_PLACEMENT_3D('',#656,#517,#518);
#439=AXIS2_PLACEMENT_3D('',#657,#519,#520);
#440=AXIS2_PLACEMENT_3D('',#658,#521,#522);
#441=AXIS2_PLACEMENT_3D('',#659,#523,#524);
#442=AXIS2_PLACEMENT_3D('',#661,#525,#526);
#443=AXIS2_PLACEMENT_3D('',#664,#528,#529);
#444=AXIS2_PLACEMENT_3D('',#665,#530,#531);
#445=AXIS2_PLACEMENT_3D('',#667,#532,#533);
#446=AXIS2_PLACEMENT_3D('',#670,#535,#536);
#447=AXIS2_PLACEMENT_3D('',#671,#537,#538);
#448=AXIS2_PLACEMENT_3D('',#674,#539,#540);
#449=AXIS2_PLACEMENT_3D('',#678,#542,#543);
#450=AXIS2_PLACEMENT_3D('',#680,#545,#546);
#451=AXIS2_PLACEMENT_3D('',#682,#547,#548);
#452=AXIS2_PLACEMENT_3D('',#685,#550,#551);
#453=AXIS2_PLACEMENT_3D('',#686,#552,#553);
#454=AXIS2_PLACEMENT_3D('',#688,#554,#555);
#455=AXIS2_PLACEMENT_3D('',#691,#557,#558);
#456=AXIS2_PLACEMENT_3D('',#692,#559,#560);
#457=AXIS2_PLACEMENT_3D('',#693,#561,#562);
#458=AXIS2_PLACEMENT_3D('',#694,#563,#564);
#459=AXIS2_PLACEMENT_3D('',#695,#565,#566);
#460=AXIS2_PLACEMENT_3D('',#696,#567,#568);
#461=AXIS2_PLACEMENT_3D('',#705,#573,#574);
#462=AXIS2_PLACEMENT_3D('',#707,#575,#576);
#463=AXIS2_PLACEMENT_3D('',#710,#578,#579);
#464=AXIS2_PLACEMENT_3D('',#711,#580,#581);
#465=AXIS2_PLACEMENT_3D('',#717,#585,#586);
#466=AXIS2_PLACEMENT_3D('',#718,#587,#588);
#467=AXIS2_PLACEMENT_3D('',#719,#589,#590);
#468=AXIS2_PLACEMENT_3D('',#720,#591,#592);
#469=AXIS2_PLACEMENT_3D('',#721,#593,#594);
#470=AXIS2_PLACEMENT_3D('',#723,#595,#596);
#471=AXIS2_PLACEMENT_3D('',#727,#598,#599);
#472=AXIS2_PLACEMENT_3D('',#728,#600,#601);
#473=AXIS2_PLACEMENT_3D('',#729,#602,#603);
#474=AXIS2_PLACEMENT_3D('',#730,#604,#605);
#475=AXIS2_PLACEMENT_3D('',#733,#608,#609);
#476=AXIS2_PLACEMENT_3D('',#735,#611,#612);
#477=DIRECTION('axis',(0.,0.,1.));
#478=DIRECTION('refdir',(1.,0.,0.));
#479=DIRECTION('center_axis',(1.,0.,0.));
#480=DIRECTION('ref_axis',(0.,-0.823754471047915,-0.56694670951384));
#481=DIRECTION('center_axis',(-1.,0.,0.));
#482=DIRECTION('ref_axis',(0.,-0.823754471047915,-0.56694670951384));
#483=DIRECTION('',(1.,0.,0.));
#484=DIRECTION('center_axis',(1.,0.,0.));
#485=DIRECTION('ref_axis',(0.,-0.823754471047915,-0.56694670951384));
#486=DIRECTION('',(-1.,0.,0.));
#487=DIRECTION('center_axis',(0.,1.,2.02731862802315E-15));
#488=DIRECTION('ref_axis',(0.,-2.02731862802315E-15,1.));
#489=DIRECTION('',(0.,2.02731862802315E-15,-1.));
#490=DIRECTION('',(1.,0.,0.));
#491=DIRECTION('',(0.,-2.02731862802315E-15,1.));
#492=DIRECTION('center_axis',(-1.,0.,0.));
#493=DIRECTION('ref_axis',(0.,0.823754471047913,-0.566946709513843));
#494=DIRECTION('center_axis',(1.,0.,0.));
#495=DIRECTION('ref_axis',(0.,0.823754471047913,-0.566946709513843));
#496=DIRECTION('',(-1.,0.,0.));
#497=DIRECTION('center_axis',(-1.,0.,0.));
#498=DIRECTION('ref_axis',(0.,0.823754471047913,-0.566946709513843));
#499=DIRECTION('',(1.,0.,0.));
#500=DIRECTION('center_axis',(0.,-1.,0.));
#501=DIRECTION('ref_axis',(0.,0.,-1.));
#502=DIRECTION('',(0.,0.,-1.));
#503=DIRECTION('',(1.,0.,0.));
#504=DIRECTION('',(0.,0.,1.));
#505=DIRECTION('center_axis',(1.,0.,0.));
#506=DIRECTION('ref_axis',(0.,-1.,0.));
#507=DIRECTION('center_axis',(-1.,0.,0.));
#508=DIRECTION('ref_axis',(0.,-1.,0.));
#509=DIRECTION('center_axis',(1.,0.,0.));
#510=DIRECTION('ref_axis',(0.,-1.,0.));
#511=DIRECTION('',(1.,0.,0.));
#512=DIRECTION('center_axis',(0.,0.,1.));
#513=DIRECTION('ref_axis',(0.,-1.,0.));
#514=DIRECTION('',(0.,1.,0.));
#515=DIRECTION('',(0.,-1.,0.));
#516=DIRECTION('',(1.,0.,0.));
#517=DIRECTION('center_axis',(1.,0.,0.));
#518=DIRECTION('ref_axis',(0.,0.,1.));
#519=DIRECTION('center_axis',(-1.,0.,0.));
#520=DIRECTION('ref_axis',(0.,0.,1.));
#521=DIRECTION('center_axis',(1.,0.,0.));
#522=DIRECTION('ref_axis',(0.,0.,1.));
#523=DIRECTION('center_axis',(1.,0.,0.));
#524=DIRECTION('ref_axis',(0.,0.993929814833424,0.11001601331259));
#525=DIRECTION('center_axis',(1.,0.,0.));
#526=DIRECTION('ref_axis',(0.,-0.552770798392569,-0.833333333333332));
#527=DIRECTION('',(1.,0.,0.));
#528=DIRECTION('center_axis',(-1.,0.,0.));
#529=DIRECTION('ref_axis',(0.,-0.552770798392569,-0.833333333333332));
#530=DIRECTION('center_axis',(1.,0.,0.));
#531=DIRECTION('ref_axis',(0.,-0.552770798392569,-0.833333333333332));
#532=DIRECTION('center_axis',(-1.,0.,0.));
#533=DIRECTION('ref_axis',(0.,-0.552770798392569,-0.833333333333332));
#534=DIRECTION('',(1.,0.,0.));
#535=DIRECTION('center_axis',(1.,0.,0.));
#536=DIRECTION('ref_axis',(0.,-0.552770798392569,-0.833333333333332));
#537=DIRECTION('center_axis',(-1.,0.,0.));
#538=DIRECTION('ref_axis',(0.,-0.0039234402274234,-0.999992303278771));
#539=DIRECTION('center_axis',(-1.,0.,0.));
#540=DIRECTION('ref_axis',(0.,-0.623336810216808,0.781953464746295));
#541=DIRECTION('',(-1.,0.,0.));
#542=DIRECTION('center_axis',(-1.,0.,0.));
#543=DIRECTION('ref_axis',(0.,-0.623336810216808,0.781953464746295));
#544=DIRECTION('',(-1.,0.,0.));
#545=DIRECTION('center_axis',(-1.,0.,0.));
#546=DIRECTION('ref_axis',(0.,0.629453467824862,0.777038179141319));
#547=DIRECTION('center_axis',(-1.,0.,0.));
#548=DIRECTION('ref_axis',(0.,0.629453467824862,0.777038179141319));
#549=DIRECTION('',(-1.,0.,0.));
#550=DIRECTION('center_axis',(-1.,0.,0.));
#551=DIRECTION('ref_axis',(0.,0.629453467824862,0.777038179141319));
#552=DIRECTION('center_axis',(-1.,0.,0.));
#553=DIRECTION('ref_axis',(0.,-0.00392344022689171,-0.999992303278773));
#554=DIRECTION('center_axis',(1.,0.,0.));
#555=DIRECTION('ref_axis',(0.,-0.623336810216783,0.781953464746315));
#556=DIRECTION('',(-1.,0.,0.));
#557=DIRECTION('center_axis',(1.,0.,0.));
#558=DIRECTION('ref_axis',(0.,-0.623336810216783,0.781953464746315));
#559=DIRECTION('center_axis',(-1.,0.,0.));
#560=DIRECTION('ref_axis',(0.,0.623336810216846,-0.781953464746265));
#561=DIRECTION('center_axis',(-1.,0.,0.));
#562=DIRECTION('ref_axis',(0.,0.623336810216846,-0.781953464746265));
#563=DIRECTION('center_axis',(-1.,0.,0.));
#564=DIRECTION('ref_axis',(0.,0.623336810216846,-0.781953464746265));
#565=DIRECTION('center_axis',(1.,0.,0.));
#566=DIRECTION('ref_axis',(0.,1.,0.));
#567=DIRECTION('center_axis',(0.,1.,0.));
#568=DIRECTION('ref_axis',(0.,0.,-1.));
#569=DIRECTION('',(0.,0.,-1.));
#570=DIRECTION('',(-1.,0.,0.));
#571=DIRECTION('',(0.,0.,-1.));
#572=DIRECTION('',(-1.,0.,0.));
#573=DIRECTION('center_axis',(-1.,0.,0.));
#574=DIRECTION('ref_axis',(0.,1.,0.));
#575=DIRECTION('center_axis',(-1.,0.,0.));
#576=DIRECTION('ref_axis',(0.,1.,0.));
#577=DIRECTION('',(-1.,0.,0.));
#578=DIRECTION('center_axis',(-1.,0.,0.));
#579=DIRECTION('ref_axis',(0.,1.,0.));
#580=DIRECTION('center_axis',(0.,-1.,-1.44183504174558E-14));
#581=DIRECTION('ref_axis',(0.,-1.44183504174558E-14,1.));
#582=DIRECTION('',(0.,-1.44183504174558E-14,1.));
#583=DIRECTION('',(-1.,0.,0.));
#584=DIRECTION('',(0.,-1.44183504174558E-14,1.));
#585=DIRECTION('center_axis',(-1.,0.,0.));
#586=DIRECTION('ref_axis',(0.,-1.,0.));
#587=DIRECTION('center_axis',(-1.,0.,0.));
#588=DIRECTION('ref_axis',(0.,-1.,0.));
#589=DIRECTION('center_axis',(-1.,0.,0.));
#590=DIRECTION('ref_axis',(0.,-1.,0.));
#591=DIRECTION('center_axis',(1.,0.,0.));
#592=DIRECTION('ref_axis',(0.,1.,0.));
#593=DIRECTION('center_axis',(1.,0.,0.));
#594=DIRECTION('ref_axis',(0.,1.,0.));
#595=DIRECTION('center_axis',(1.,0.,0.));
#596=DIRECTION('ref_axis',(0.,1.,0.));
#597=DIRECTION('',(-1.,0.,0.));
#598=DIRECTION('center_axis',(-1.,0.,0.));
#599=DIRECTION('ref_axis',(0.,1.,0.));
#600=DIRECTION('center_axis',(-1.,0.,0.));
#601=DIRECTION('ref_axis',(0.,1.,0.));
#602=DIRECTION('center_axis',(1.,0.,0.));
#603=DIRECTION('ref_axis',(0.,1.,0.));
#604=DIRECTION('center_axis',(-1.,0.,0.));
#605=DIRECTION('ref_axis',(0.,-1.,0.));
#606=DIRECTION('',(0.,1.,0.));
#607=DIRECTION('',(0.,1.,0.));
#608=DIRECTION('center_axis',(0.,0.,-1.));
#609=DIRECTION('ref_axis',(0.,1.,0.));
#610=DIRECTION('',(0.,-1.,0.));
#611=DIRECTION('center_axis',(-1.,0.,0.));
#612=DIRECTION('ref_axis',(0.,-1.,0.));
#613=CARTESIAN_POINT('',(0.,0.,0.));
#614=CARTESIAN_POINT('Origin',(70.5,-17.7556429418243,15.414117378294));
#615=CARTESIAN_POINT('',(70.5,-17.9342143703957,14.9470924914861));
#616=CARTESIAN_POINT('',(70.5,-18.2556429418243,15.414117378294));
#617=CARTESIAN_POINT('Origin',(70.5,-17.7556429418243,15.414117378294));
#618=CARTESIAN_POINT('',(71.5,-18.2556429418243,15.414117378294));
#619=CARTESIAN_POINT('',(70.5,-18.2556429418243,15.414117378294));
#620=CARTESIAN_POINT('',(71.5,-17.9342143703957,14.9470924914861));
#621=CARTESIAN_POINT('Origin',(71.5,-17.7556429418243,15.414117378294));
#622=CARTESIAN_POINT('',(70.5,-17.9342143703957,14.9470924914861));
#623=CARTESIAN_POINT('Origin',(70.5,-18.2556429418243,15.0496806802941));
#624=CARTESIAN_POINT('',(70.5,-18.2556429418243,16.1449431706385));
#625=CARTESIAN_POINT('',(70.5,-18.2556429418243,16.1449431706385));
#626=CARTESIAN_POINT('',(71.5,-18.2556429418243,16.1449431706385));
#627=CARTESIAN_POINT('',(70.5,-18.2556429418243,16.1449431706385));
#628=CARTESIAN_POINT('',(71.5,-18.2556429418243,16.1449431706385));
#629=CARTESIAN_POINT('Origin',(70.5,-20.2556429418243,15.414117378294));
#630=CARTESIAN_POINT('',(71.5,-20.0770715132529,14.9470924914861));
#631=CARTESIAN_POINT('',(71.5,-19.7556429418243,15.414117378294));
#632=CARTESIAN_POINT('Origin',(71.5,-20.2556429418243,15.414117378294));
#633=CARTESIAN_POINT('',(70.5,-19.7556429418243,15.414117378294));
#634=CARTESIAN_POINT('',(70.5,-19.7556429418243,15.414117378294));
#635=CARTESIAN_POINT('',(70.5,-20.0770715132529,14.9470924914861));
#636=CARTESIAN_POINT('Origin',(70.5,-20.2556429418243,15.414117378294));
#637=CARTESIAN_POINT('',(70.5,-20.0770715132529,14.9470924914861));
#638=CARTESIAN_POINT('Origin',(70.5,-19.7556429418243,16.1449431706385));
#639=CARTESIAN_POINT('',(71.5,-19.7556429418243,16.1449431706385));
#640=CARTESIAN_POINT('',(71.5,-19.7556429418243,15.0496806802941));
#641=CARTESIAN_POINT('',(70.5,-19.7556429418243,16.1449431706385));
#642=CARTESIAN_POINT('',(70.5,-19.7556429418243,16.1449431706385));
#643=CARTESIAN_POINT('',(70.5,-19.7556429418243,15.0496806802941));
#644=CARTESIAN_POINT('Origin',(70.5,-19.5056429418243,16.1449431706385));
#645=CARTESIAN_POINT('',(70.5,-19.5056429418243,16.3949431706385));
#646=CARTESIAN_POINT('Origin',(70.5,-19.5056429418243,16.1449431706385));
#647=CARTESIAN_POINT('',(71.5,-19.5056429418243,16.3949431706385));
#648=CARTESIAN_POINT('Origin',(71.5,-19.5056429418243,16.1449431706385));
#649=CARTESIAN_POINT('',(70.5,-19.5056429418243,16.3949431706385));
#650=CARTESIAN_POINT('Origin',(70.5,-18.5056429418243,16.3949431706385));
#651=CARTESIAN_POINT('',(70.5,-18.5056429418243,16.3949431706385));
#652=CARTESIAN_POINT('',(70.5,-19.5056429418243,16.3949431706385));
#653=CARTESIAN_POINT('',(71.5,-18.5056429418243,16.3949431706385));
#654=CARTESIAN_POINT('',(71.5,-19.5056429418243,16.3949431706385));
#655=CARTESIAN_POINT('',(70.5,-18.5056429418243,16.3949431706385));
#656=CARTESIAN_POINT('Origin',(70.5,-18.5056429418243,16.1449431706385));
#657=CARTESIAN_POINT('Origin',(70.5,-18.5056429418243,16.1449431706385));
#658=CARTESIAN_POINT('Origin',(71.5,-18.5056429418243,16.1449431706385));
#659=CARTESIAN_POINT('Origin',(70.5,-19.0056429418243,12.1449431706385));
#660=CARTESIAN_POINT('',(71.5,-17.3473305466466,9.64494317063851));
#661=CARTESIAN_POINT('Origin',(71.5,-19.0056429418243,12.1449431706385));
#662=CARTESIAN_POINT('',(70.5,-17.3473305466466,9.64494317063851));
#663=CARTESIAN_POINT('',(70.5,-17.3473305466466,9.64494317063851));
#664=CARTESIAN_POINT('Origin',(70.5,-19.0056429418243,12.1449431706385));
#665=CARTESIAN_POINT('Origin',(70.5,-19.0056429418243,12.1449431706385));
#666=CARTESIAN_POINT('',(70.5,-20.663955337002,9.64494317063851));
#667=CARTESIAN_POINT('Origin',(70.5,-19.0056429418243,12.1449431706385));
#668=CARTESIAN_POINT('',(71.5,-20.663955337002,9.64494317063851));
#669=CARTESIAN_POINT('',(70.5,-20.663955337002,9.64494317063851));
#670=CARTESIAN_POINT('Origin',(71.5,-19.0056429418243,12.1449431706385));
#671=CARTESIAN_POINT('Origin',(72.5,-19.0056429418243,12.1449431706385));
#672=CARTESIAN_POINT('',(72.5,-17.7467360061746,13.6990195289211));
#673=CARTESIAN_POINT('',(72.5,-20.2523165622579,13.7088501001311));
#674=CARTESIAN_POINT('Origin',(72.5,-19.0056429418243,12.1449431706385));
#675=CARTESIAN_POINT('',(71.75,-17.7467360061746,13.6990195289211));
#676=CARTESIAN_POINT('',(72.5,-17.7467360061746,13.6990195289211));
#677=CARTESIAN_POINT('',(71.75,-20.2523165622579,13.7088501001311));
#678=CARTESIAN_POINT('Origin',(71.75,-19.0056429418243,12.1449431706385));
#679=CARTESIAN_POINT('',(72.5,-20.2523165622579,13.7088501001311));
#680=CARTESIAN_POINT('Origin',(72.5,-17.9040993731308,13.5047599841358));
#681=CARTESIAN_POINT('',(72.5,-18.0614627400883,13.3105004393516));
#682=CARTESIAN_POINT('Origin',(72.5,-17.9040993731308,13.5047599841358));
#683=CARTESIAN_POINT('',(71.75,-18.0614627400883,13.3105004393516));
#684=CARTESIAN_POINT('',(72.5,-18.0614627400883,13.3105004393516));
#685=CARTESIAN_POINT('Origin',(71.75,-17.9040993731308,13.5047599841358));
#686=CARTESIAN_POINT('Origin',(72.5,-19.0056429418243,12.1449431706385));
#687=CARTESIAN_POINT('',(72.5,-19.9406481571495,13.317873367758));
#688=CARTESIAN_POINT('Origin',(72.5,-19.0056429418243,12.1449431706385));
#689=CARTESIAN_POINT('',(71.75,-19.9406481571495,13.317873367758));
#690=CARTESIAN_POINT('',(72.5,-19.9406481571495,13.317873367758));
#691=CARTESIAN_POINT('Origin',(71.75,-19.0056429418243,12.1449431706385));
#692=CARTESIAN_POINT('Origin',(72.5,-20.0964823597037,13.5133617339446));
#693=CARTESIAN_POINT('Origin',(72.5,-20.0964823597037,13.5133617339446));
#694=CARTESIAN_POINT('Origin',(71.75,-20.0964823597037,13.5133617339446));
#695=CARTESIAN_POINT('Origin',(71.75,-19.0056429418243,11.9541524522915));
#696=CARTESIAN_POINT('Origin',(72.5,-18.7556429418243,14.0654630264246));
#697=CARTESIAN_POINT('',(72.5,-18.7556429418243,14.0654630264246));
#698=CARTESIAN_POINT('',(72.5,-18.7556429418243,12.8334518823136));
#699=CARTESIAN_POINT('',(72.5,-18.7556429418243,13.1052030985315));
#700=CARTESIAN_POINT('',(71.75,-18.7556429418243,14.0654630264246));
#701=CARTESIAN_POINT('',(72.5,-18.7556429418243,14.0654630264246));
#702=CARTESIAN_POINT('',(71.75,-18.7556429418243,12.8334518823136));
#703=CARTESIAN_POINT('',(71.75,-18.7556429418243,14.0654630264246));
#704=CARTESIAN_POINT('',(72.5,-18.7556429418243,12.8334518823136));
#705=CARTESIAN_POINT('Origin',(72.5,-19.0056429418243,14.0654630264246));
#706=CARTESIAN_POINT('',(72.5,-19.2556429418243,14.0654630264246));
#707=CARTESIAN_POINT('Origin',(72.5,-19.0056429418243,14.0654630264246));
#708=CARTESIAN_POINT('',(71.75,-19.2556429418243,14.0654630264246));
#709=CARTESIAN_POINT('',(72.5,-19.2556429418243,14.0654630264246));
#710=CARTESIAN_POINT('Origin',(71.75,-19.0056429418243,14.0654630264246));
#711=CARTESIAN_POINT('Origin',(72.5,-19.2556429418243,12.8334518823136));
#712=CARTESIAN_POINT('',(72.5,-19.2556429418243,12.8334518823136));
#713=CARTESIAN_POINT('',(72.5,-19.2556429418243,12.4891975264761));
#714=CARTESIAN_POINT('',(71.75,-19.2556429418243,12.8334518823136));
#715=CARTESIAN_POINT('',(72.5,-19.2556429418243,12.8334518823136));
#716=CARTESIAN_POINT('',(71.75,-19.2556429418243,12.8334518823136));
#717=CARTESIAN_POINT('Origin',(72.5,-19.0056429418243,12.8334518823136));
#718=CARTESIAN_POINT('Origin',(72.5,-19.0056429418243,12.8334518823136));
#719=CARTESIAN_POINT('Origin',(71.75,-19.0056429418243,12.8334518823136));
#720=CARTESIAN_POINT('Origin',(71.75,-19.0056429418243,13.4494574543691));
#721=CARTESIAN_POINT('Origin',(71.5,-19.0056429418243,12.1449431706385));
#722=CARTESIAN_POINT('',(72.5,-21.5056429418243,12.1449431706385));
#723=CARTESIAN_POINT('Origin',(72.5,-19.0056429418243,12.1449431706385));
#724=CARTESIAN_POINT('',(71.5,-21.5056429418243,12.1449431706385));
#725=CARTESIAN_POINT('',(71.5,-21.5056429418243,12.1449431706385));
#726=CARTESIAN_POINT('',(71.5,-19.0056429418243,9.64494317063851));
#727=CARTESIAN_POINT('Origin',(71.5,-19.0056429418243,12.1449431706385));
#728=CARTESIAN_POINT('Origin',(71.5,-19.0056429418243,12.1449431706385));
#729=CARTESIAN_POINT('Origin',(72.5,-19.0056429418243,12.1449431706385));
#730=CARTESIAN_POINT('Origin',(71.5,-19.0056429418243,12.3949431706385));
#731=CARTESIAN_POINT('',(71.5,-17.3473305466466,9.64494317063851));
#732=CARTESIAN_POINT('',(71.5,-17.3473305466466,9.64494317063851));
#733=CARTESIAN_POINT('Origin',(70.5,-20.663955337002,9.64494317063851));
#734=CARTESIAN_POINT('',(70.5,-17.3473305466466,9.64494317063851));
#735=CARTESIAN_POINT('Origin',(70.5,-19.0056429418243,12.3949431706385));
#736=UNCERTAINTY_MEASURE_WITH_UNIT(LENGTH_MEASURE(0.01),#740,
'DISTANCE_ACCURACY_VALUE',
'Maximum model space distance between geometric entities at asserted c
onnectivities');
#737=UNCERTAINTY_MEASURE_WITH_UNIT(LENGTH_MEASURE(0.01),#740,
'DISTANCE_ACCURACY_VALUE',
'Maximum model space distance between geometric entities at asserted c
onnectivities');
#738=(
GEOMETRIC_REPRESENTATION_CONTEXT(3)
GLOBAL_UNCERTAINTY_ASSIGNED_CONTEXT((#736))
GLOBAL_UNIT_ASSIGNED_CONTEXT((#740,#741,#742))
REPRESENTATION_CONTEXT('','3D')
);
#739=(
GEOMETRIC_REPRESENTATION_CONTEXT(3)
GLOBAL_UNCERTAINTY_ASSIGNED_CONTEXT((#737))
GLOBAL_UNIT_ASSIGNED_CONTEXT((#740,#741,#742))
REPRESENTATION_CONTEXT('','3D')
);
#740=(
LENGTH_UNIT()
NAMED_UNIT(*)
SI_UNIT(.MILLI.,.METRE.)
);
#741=(
NAMED_UNIT(*)
PLANE_ANGLE_UNIT()
SI_UNIT($,.RADIAN.)
);
#742=(
NAMED_UNIT(*)
SI_UNIT($,.STERADIAN.)
SOLID_ANGLE_UNIT()
);
#743=SHAPE_DEFINITION_REPRESENTATION(#744,#745);
#744=PRODUCT_DEFINITION_SHAPE('',$,#747);
#745=SHAPE_REPRESENTATION('',(#425),#738);
#746=PRODUCT_DEFINITION_CONTEXT('part definition',#751,'design');
#747=PRODUCT_DEFINITION('Xii-Boy Ultra','Xii-Boy Ultra v221',#748,#746);
#748=PRODUCT_DEFINITION_FORMATION('',$,#753);
#749=PRODUCT_RELATED_PRODUCT_CATEGORY('Xii-Boy Ultra v221',
'Xii-Boy Ultra v221',(#753));
#750=APPLICATION_PROTOCOL_DEFINITION('international standard',
'automotive_design',2009,#751);
#751=APPLICATION_CONTEXT(
'Core Data for Automotive Mechanical Design Process');
#752=PRODUCT_CONTEXT('part definition',#751,'mechanical');
#753=PRODUCT('Xii-Boy Ultra','Xii-Boy Ultra v221',$,(#752));
#754=PRESENTATION_STYLE_ASSIGNMENT((#788));
#755=PRESENTATION_STYLE_ASSIGNMENT((#789));
#756=PRESENTATION_STYLE_ASSIGNMENT((#790));
#757=PRESENTATION_STYLE_ASSIGNMENT((#791));
#758=PRESENTATION_STYLE_ASSIGNMENT((#792));
#759=PRESENTATION_STYLE_ASSIGNMENT((#793));
#760=PRESENTATION_STYLE_ASSIGNMENT((#794));
#761=PRESENTATION_STYLE_ASSIGNMENT((#795));
#762=PRESENTATION_STYLE_ASSIGNMENT((#796));
#763=PRESENTATION_STYLE_ASSIGNMENT((#797));
#764=PRESENTATION_STYLE_ASSIGNMENT((#798));
#765=PRESENTATION_STYLE_ASSIGNMENT((#799));
#766=PRESENTATION_STYLE_ASSIGNMENT((#800));
#767=PRESENTATION_STYLE_ASSIGNMENT((#801));
#768=PRESENTATION_STYLE_ASSIGNMENT((#802));
#769=PRESENTATION_STYLE_ASSIGNMENT((#803));
#770=PRESENTATION_STYLE_ASSIGNMENT((#804));
#771=PRESENTATION_STYLE_ASSIGNMENT((#805));
#772=PRESENTATION_STYLE_ASSIGNMENT((#806));
#773=PRESENTATION_STYLE_ASSIGNMENT((#807));
#774=PRESENTATION_STYLE_ASSIGNMENT((#808));
#775=PRESENTATION_STYLE_ASSIGNMENT((#809));
#776=PRESENTATION_STYLE_ASSIGNMENT((#810));
#777=PRESENTATION_STYLE_ASSIGNMENT((#811));
#778=PRESENTATION_STYLE_ASSIGNMENT((#812));
#779=PRESENTATION_STYLE_ASSIGNMENT((#813));
#780=PRESENTATION_STYLE_ASSIGNMENT((#814));
#781=PRESENTATION_STYLE_ASSIGNMENT((#815));
#782=PRESENTATION_STYLE_ASSIGNMENT((#816));
#783=PRESENTATION_STYLE_ASSIGNMENT((#817));
#784=PRESENTATION_STYLE_ASSIGNMENT((#818));
#785=PRESENTATION_STYLE_ASSIGNMENT((#819));
#786=PRESENTATION_STYLE_ASSIGNMENT((#820));
#787=PRESENTATION_STYLE_ASSIGNMENT((#821));
#788=SURFACE_STYLE_USAGE(.BOTH.,#822);
#789=SURFACE_STYLE_USAGE(.BOTH.,#823);
#790=SURFACE_STYLE_USAGE(.BOTH.,#824);
#791=SURFACE_STYLE_USAGE(.BOTH.,#825);
#792=SURFACE_STYLE_USAGE(.BOTH.,#826);
#793=SURFACE_STYLE_USAGE(.BOTH.,#827);
#794=SURFACE_STYLE_USAGE(.BOTH.,#828);
#795=SURFACE_STYLE_USAGE(.BOTH.,#829);
#796=SURFACE_STYLE_USAGE(.BOTH.,#830);
#797=SURFACE_STYLE_USAGE(.BOTH.,#831);
#798=SURFACE_STYLE_USAGE(.BOTH.,#832);
#799=SURFACE_STYLE_USAGE(.BOTH.,#833);
#800=SURFACE_STYLE_USAGE(.BOTH.,#834);
#801=SURFACE_STYLE_USAGE(.BOTH.,#835);
#802=SURFACE_STYLE_USAGE(.BOTH.,#836);
#803=SURFACE_STYLE_USAGE(.BOTH.,#837);
#804=SURFACE_STYLE_USAGE(.BOTH.,#838);
#805=SURFACE_STYLE_USAGE(.BOTH.,#839);
#806=SURFACE_STYLE_USAGE(.BOTH.,#840);
#807=SURFACE_STYLE_USAGE(.BOTH.,#841);
#808=SURFACE_STYLE_USAGE(.BOTH.,#842);
#809=SURFACE_STYLE_USAGE(.BOTH.,#843);
#810=SURFACE_STYLE_USAGE(.BOTH.,#844);
#811=SURFACE_STYLE_USAGE(.BOTH.,#845);
#812=SURFACE_STYLE_USAGE(.BOTH.,#846);
#813=SURFACE_STYLE_USAGE(.BOTH.,#847);
#814=SURFACE_STYLE_USAGE(.BOTH.,#848);
#815=SURFACE_STYLE_USAGE(.BOTH.,#849);
#816=SURFACE_STYLE_USAGE(.BOTH.,#850);
#817=SURFACE_STYLE_USAGE(.BOTH.,#851);
#818=SURFACE_STYLE_USAGE(.BOTH.,#852);
#819=SURFACE_STYLE_USAGE(.BOTH.,#853);
#820=SURFACE_STYLE_USAGE(.BOTH.,#854);
#821=SURFACE_STYLE_USAGE(.BOTH.,#855);
#822=SURFACE_SIDE_STYLE('',(#856));
#823=SURFACE_SIDE_STYLE('',(#857));
#824=SURFACE_SIDE_STYLE('',(#858));
#825=SURFACE_SIDE_STYLE('',(#859));
#826=SURFACE_SIDE_STYLE('',(#860));
#827=SURFACE_SIDE_STYLE('',(#861));
#828=SURFACE_SIDE_STYLE('',(#862));
#829=SURFACE_SIDE_STYLE('',(#863));
#830=SURFACE_SIDE_STYLE('',(#864));
#831=SURFACE_SIDE_STYLE('',(#865));
#832=SURFACE_SIDE_STYLE('',(#866));
#833=SURFACE_SIDE_STYLE('',(#867));
#834=SURFACE_SIDE_STYLE('',(#868));
#835=SURFACE_SIDE_STYLE('',(#869));
#836=SURFACE_SIDE_STYLE('',(#870));
#837=SURFACE_SIDE_STYLE('',(#871));
#838=SURFACE_SIDE_STYLE('',(#872));
#839=SURFACE_SIDE_STYLE('',(#873));
#840=SURFACE_SIDE_STYLE('',(#874));
#841=SURFACE_SIDE_STYLE('',(#875));
#842=SURFACE_SIDE_STYLE('',(#876));
#843=SURFACE_SIDE_STYLE('',(#877));
#844=SURFACE_SIDE_STYLE('',(#878));
#845=SURFACE_SIDE_STYLE('',(#879));
#846=SURFACE_SIDE_STYLE('',(#880));
#847=SURFACE_SIDE_STYLE('',(#881));
#848=SURFACE_SIDE_STYLE('',(#882));
#849=SURFACE_SIDE_STYLE('',(#883));
#850=SURFACE_SIDE_STYLE('',(#884));
#851=SURFACE_SIDE_STYLE('',(#885));
#852=SURFACE_SIDE_STYLE('',(#886));
#853=SURFACE_SIDE_STYLE('',(#887));
#854=SURFACE_SIDE_STYLE('',(#888));
#855=SURFACE_SIDE_STYLE('',(#889));
#856=SURFACE_STYLE_FILL_AREA(#890);
#857=SURFACE_STYLE_FILL_AREA(#891);
#858=SURFACE_STYLE_FILL_AREA(#892);
#859=SURFACE_STYLE_FILL_AREA(#893);
#860=SURFACE_STYLE_FILL_AREA(#894);
#861=SURFACE_STYLE_FILL_AREA(#895);
#862=SURFACE_STYLE_FILL_AREA(#896);
#863=SURFACE_STYLE_FILL_AREA(#897);
#864=SURFACE_STYLE_FILL_AREA(#898);
#865=SURFACE_STYLE_FILL_AREA(#899);
#866=SURFACE_STYLE_FILL_AREA(#900);
#867=SURFACE_STYLE_FILL_AREA(#901);
#868=SURFACE_STYLE_FILL_AREA(#902);
#869=SURFACE_STYLE_FILL_AREA(#903);
#870=SURFACE_STYLE_FILL_AREA(#904);
#871=SURFACE_STYLE_FILL_AREA(#905);
#872=SURFACE_STYLE_FILL_AREA(#906);
#873=SURFACE_STYLE_FILL_AREA(#907);
#874=SURFACE_STYLE_FILL_AREA(#908);
#875=SURFACE_STYLE_FILL_AREA(#909);
#876=SURFACE_STYLE_FILL_AREA(#910);
#877=SURFACE_STYLE_FILL_AREA(#911);
#878=SURFACE_STYLE_FILL_AREA(#912);
#879=SURFACE_STYLE_FILL_AREA(#913);
#880=SURFACE_STYLE_FILL_AREA(#914);
#881=SURFACE_STYLE_FILL_AREA(#915);
#882=SURFACE_STYLE_FILL_AREA(#916);
#883=SURFACE_STYLE_FILL_AREA(#917);
#884=SURFACE_STYLE_FILL_AREA(#918);
#885=SURFACE_STYLE_FILL_AREA(#919);
#886=SURFACE_STYLE_FILL_AREA(#920);
#887=SURFACE_STYLE_FILL_AREA(#921);
#888=SURFACE_STYLE_FILL_AREA(#922);
#889=SURFACE_STYLE_FILL_AREA(#923);
#890=FILL_AREA_STYLE('Opaque(80,124,105)',(#924));
#891=FILL_AREA_STYLE('Opaque(50,50,50)',(#925));
#892=FILL_AREA_STYLE('Opaque(218,205,0)',(#926));
#893=FILL_AREA_STYLE('Opaque(52,52,52)',(#927));
#894=FILL_AREA_STYLE('Opaque(191,191,191)',(#928));
#895=FILL_AREA_STYLE('Opaque(15,102,15)',(#929));
#896=FILL_AREA_STYLE('Opaque(202,209,238)',(#930));
#897=FILL_AREA_STYLE('Opaque(255,255,255)',(#931));
#898=FILL_AREA_STYLE('Opaque(152,170,175)',(#932));
#899=FILL_AREA_STYLE('Opaque(204,203,178)',(#933));
#900=FILL_AREA_STYLE('Opaque(234,234,234)',(#934));
#901=FILL_AREA_STYLE('Opaque(69,69,69)',(#935));
#902=FILL_AREA_STYLE('Opaque(64,64,64)',(#936));
#903=FILL_AREA_STYLE('Opaque(225,225,225)',(#937));
#904=FILL_AREA_STYLE('Opaque(25,25,25)',(#938));
#905=FILL_AREA_STYLE('Opaque(211,84,18)',(#939));
#906=FILL_AREA_STYLE('Opaque(70,70,70)',(#940));
#907=FILL_AREA_STYLE('Opaque(219,219,219)',(#941));
#908=FILL_AREA_STYLE('Opaque(204,204,204)',(#942));
#909=FILL_AREA_STYLE('Opaque(160,160,160)',(#943));
#910=FILL_AREA_STYLE('Opaque(220,220,220)',(#944));
#911=FILL_AREA_STYLE('Opaque(63,63,63)',(#945));
#912=FILL_AREA_STYLE('Opaque(176,176,176)',(#946));
#913=FILL_AREA_STYLE('Powder Coat - Rough (Dark Grey)',(#947));
#914=FILL_AREA_STYLE('Opaque(21,22,24)',(#948));
#915=FILL_AREA_STYLE('Aluminum - Polished',(#949));
#916=FILL_AREA_STYLE('Gold - Polished',(#950));
#917=FILL_AREA_STYLE('Steel - Satin',(#951));
#918=FILL_AREA_STYLE('Opaque(246,246,243)',(#952));
#919=FILL_AREA_STYLE('Plastic - Glossy (Black)',(#953));
#920=FILL_AREA_STYLE('Copper - Polished',(#954));
#921=FILL_AREA_STYLE('Aluminum - Anodized Rough (Red)',(#955));
#922=FILL_AREA_STYLE('Glass (Clear)',(#956));
#923=FILL_AREA_STYLE('Opaque(243,243,243)',(#957));
#924=FILL_AREA_STYLE_COLOUR('Opaque(80,124,105)',#958);
#925=FILL_AREA_STYLE_COLOUR('Opaque(50,50,50)',#959);
#926=FILL_AREA_STYLE_COLOUR('Opaque(218,205,0)',#960);
#927=FILL_AREA_STYLE_COLOUR('Opaque(52,52,52)',#961);
#928=FILL_AREA_STYLE_COLOUR('Opaque(191,191,191)',#962);
#929=FILL_AREA_STYLE_COLOUR('Opaque(15,102,15)',#963);
#930=FILL_AREA_STYLE_COLOUR('Opaque(202,209,238)',#964);
#931=FILL_AREA_STYLE_COLOUR('Opaque(255,255,255)',#965);
#932=FILL_AREA_STYLE_COLOUR('Opaque(152,170,175)',#966);
#933=FILL_AREA_STYLE_COLOUR('Opaque(204,203,178)',#967);
#934=FILL_AREA_STYLE_COLOUR('Opaque(234,234,234)',#968);
#935=FILL_AREA_STYLE_COLOUR('Opaque(69,69,69)',#969);
#936=FILL_AREA_STYLE_COLOUR('Opaque(64,64,64)',#970);
#937=FILL_AREA_STYLE_COLOUR('Opaque(225,225,225)',#971);
#938=FILL_AREA_STYLE_COLOUR('Opaque(25,25,25)',#972);
#939=FILL_AREA_STYLE_COLOUR('Opaque(211,84,18)',#973);
#940=FILL_AREA_STYLE_COLOUR('Opaque(70,70,70)',#974);
#941=FILL_AREA_STYLE_COLOUR('Opaque(219,219,219)',#975);
#942=FILL_AREA_STYLE_COLOUR('Opaque(204,204,204)',#976);
#943=FILL_AREA_STYLE_COLOUR('Opaque(160,160,160)',#977);
#944=FILL_AREA_STYLE_COLOUR('Opaque(220,220,220)',#978);
#945=FILL_AREA_STYLE_COLOUR('Opaque(63,63,63)',#979);
#946=FILL_AREA_STYLE_COLOUR('Opaque(176,176,176)',#980);
#947=FILL_AREA_STYLE_COLOUR('Powder Coat - Rough (Dark Grey)',#981);
#948=FILL_AREA_STYLE_COLOUR('Opaque(21,22,24)',#982);
#949=FILL_AREA_STYLE_COLOUR('Aluminum - Polished',#983);
#950=FILL_AREA_STYLE_COLOUR('Gold - Polished',#984);
#951=FILL_AREA_STYLE_COLOUR('Steel - Satin',#985);
#952=FILL_AREA_STYLE_COLOUR('Opaque(246,246,243)',#986);
#953=FILL_AREA_STYLE_COLOUR('Plastic - Glossy (Black)',#987);
#954=FILL_AREA_STYLE_COLOUR('Copper - Polished',#988);
#955=FILL_AREA_STYLE_COLOUR('Aluminum - Anodized Rough (Red)',#989);
#956=FILL_AREA_STYLE_COLOUR('Glass (Clear)',#990);
#957=FILL_AREA_STYLE_COLOUR('Opaque(243,243,243)',#991);
#958=COLOUR_RGB('Opaque(80,124,105)',0.313725490196078,0.486274509803922,
0.411764705882353);
#959=COLOUR_RGB('Opaque(50,50,50)',0.196078431372549,0.196078431372549,
0.196078431372549);
#960=COLOUR_RGB('Opaque(218,205,0)',0.854901960784314,0.803921568627451,
0.);
#961=COLOUR_RGB('Opaque(52,52,52)',0.203921568627451,0.203921568627451,
0.203921568627451);
#962=COLOUR_RGB('Opaque(191,191,191)',0.749019607843137,0.749019607843137,
0.749019607843137);
#963=COLOUR_RGB('Opaque(15,102,15)',0.0588235294117647,0.4,0.0588235294117647);
#964=COLOUR_RGB('Opaque(202,209,238)',0.792156862745098,0.819607843137255,
0.933333333333333);
#965=COLOUR_RGB('Opaque(255,255,255)',1.,1.,1.);
#966=COLOUR_RGB('Opaque(152,170,175)',0.596078431372549,0.666666666666667,
0.686274509803922);
#967=COLOUR_RGB('Opaque(204,203,178)',0.8,0.796078431372549,0.698039215686274);
#968=COLOUR_RGB('Opaque(234,234,234)',0.917647058823529,0.917647058823529,
0.917647058823529);
#969=COLOUR_RGB('Opaque(69,69,69)',0.270588235294118,0.270588235294118,
0.270588235294118);
#970=COLOUR_RGB('Opaque(64,64,64)',0.250980392156863,0.250980392156863,
0.250980392156863);
#971=COLOUR_RGB('Opaque(225,225,225)',0.882352941176471,0.882352941176471,
0.882352941176471);
#972=COLOUR_RGB('Opaque(25,25,25)',0.0980392156862745,0.0980392156862745,
0.0980392156862745);
#973=COLOUR_RGB('Opaque(211,84,18)',0.827450980392157,0.329411764705882,
0.0705882352941176);
#974=COLOUR_RGB('Opaque(70,70,70)',0.274509803921569,0.274509803921569,
0.274509803921569);
#975=COLOUR_RGB('Opaque(219,219,219)',0.858823529411765,0.858823529411765,
0.858823529411765);
#976=COLOUR_RGB('Opaque(204,204,204)',0.8,0.8,0.8);
#977=COLOUR_RGB('Opaque(160,160,160)',0.627450980392157,0.627450980392157,
0.627450980392157);
#978=COLOUR_RGB('Opaque(220,220,220)',0.862745098039216,0.862745098039216,
0.862745098039216);
#979=COLOUR_RGB('Opaque(63,63,63)',0.250980392156863,0.250980392156863,
0.250980392156863);
#980=COLOUR_RGB('Opaque(176,176,176)',0.690196078431373,0.690196078431373,
0.690196078431373);
#981=COLOUR_RGB('Powder Coat - Rough (Dark Grey)',0.349019607843137,0.349019607843137,
0.349019607843137);
#982=COLOUR_RGB('Opaque(21,22,24)',0.0823529411764706,0.0862745098039216,
0.0941176470588235);
#983=COLOUR_RGB('Aluminum - Polished',0.96078431372549,0.96078431372549,
0.964705882352941);
#984=COLOUR_RGB('Gold - Polished',0.956862745098039,0.898039215686275,0.654901960784314);
#985=COLOUR_RGB('Steel - Satin',0.627450980392157,0.627450980392157,0.627450980392157);
#986=COLOUR_RGB('Opaque(246,246,243)',0.964705882352941,0.964705882352941,
0.952941176470588);
#987=COLOUR_RGB('Plastic - Glossy (Black)',0.0980392156862745,0.0980392156862745,
0.0980392156862745);
#988=COLOUR_RGB('Copper - Polished',0.929411764705882,0.807843137254902,
0.764705882352941);
#989=COLOUR_RGB('Aluminum - Anodized Rough (Red)',0.854901960784314,0.349019607843137,
0.349019607843137);
#990=COLOUR_RGB('Glass (Clear)',0.964705882352941,0.964705882352941,0.952941176470588);
#991=COLOUR_RGB('Opaque(243,243,243)',0.952941176470588,0.952941176470588,
0.952941176470588);
ENDSEC;
END-ISO-10303-21;
