ISO-10303-21;
HEADER;
/* Generated by software containing ST-Developer
 * from STEP Tools, Inc. (www.steptools.com) 
 */

FILE_DESCRIPTION(
/* description */ (''),
/* implementation_level */ '2;1');

FILE_NAME(
/* name */ 'Start.step',
/* time_stamp */ '2025-11-15T18:51:24+01:00',
/* author */ (''),
/* organization */ (''),
/* preprocessor_version */ 'ST-DEVELOPER v20.1',
/* originating_system */ 'Autodesk Translation Framework v14.21.0.0',
/* authorisation */ '');

FILE_SCHEMA (('AUTOMOTIVE_DESIGN { 1 0 10303 214 3 1 1 }'));
ENDSEC;

DATA;
#10=MECHANICAL_DESIGN_GEOMETRIC_PRESENTATION_REPRESENTATION('',(#13),#248);
#11=SHAPE_REPRESENTATION_RELATIONSHIP('SRR','None',#254,#12);
#12=ADVANCED_BREP_SHAPE_REPRESENTATION('',(#14),#247);
#13=STYLED_ITEM('',(#291),#14);
#14=MANIFOLD_SOLID_BREP('Start',#139);
#15=FACE_BOUND('',#40,.T.);
#16=TOROIDAL_SURFACE('',#145,2.4,0.5);
#17=PLANE('',#144);
#18=PLANE('',#153);
#19=PLANE('',#154);
#20=PLANE('',#156);
#21=PLANE('',#159);
#22=FACE_OUTER_BOUND('',#31,.T.);
#23=FACE_OUTER_BOUND('',#32,.T.);
#24=FACE_OUTER_BOUND('',#33,.T.);
#25=FACE_OUTER_BOUND('',#34,.T.);
#26=FACE_OUTER_BOUND('',#35,.T.);
#27=FACE_OUTER_BOUND('',#36,.T.);
#28=FACE_OUTER_BOUND('',#37,.T.);
#29=FACE_OUTER_BOUND('',#38,.T.);
#30=FACE_OUTER_BOUND('',#39,.T.);
#31=EDGE_LOOP('',(#93,#94,#95,#96));
#32=EDGE_LOOP('',(#97));
#33=EDGE_LOOP('',(#98,#99,#100,#101,#102));
#34=EDGE_LOOP('',(#103,#104,#105,#106,#107,#108));
#35=EDGE_LOOP('',(#109));
#36=EDGE_LOOP('',(#110,#111,#112,#113,#114));
#37=EDGE_LOOP('',(#115,#116,#117,#118,#119));
#38=EDGE_LOOP('',(#120,#121,#122,#123));
#39=EDGE_LOOP('',(#124,#125));
#40=EDGE_LOOP('',(#126));
#41=LINE('',#212,#48);
#42=LINE('',#225,#49);
#43=LINE('',#234,#50);
#44=LINE('',#235,#51);
#45=LINE('',#239,#52);
#46=LINE('',#240,#53);
#47=LINE('',#241,#54);
#48=VECTOR('',#166,0.999999999999996);
#49=VECTOR('',#183,2.9);
#50=VECTOR('',#194,10.);
#51=VECTOR('',#195,10.);
#52=VECTOR('',#198,10.);
#53=VECTOR('',#199,10.);
#54=VECTOR('',#200,10.);
#55=CIRCLE('',#142,0.999999999999996);
#56=CIRCLE('',#143,0.999999999999996);
#57=CIRCLE('',#146,2.4);
#58=CIRCLE('',#147,0.5);
#59=CIRCLE('',#148,2.9);
#60=CIRCLE('',#149,2.9);
#61=CIRCLE('',#151,2.9);
#62=CIRCLE('',#152,2.9);
#63=CIRCLE('',#155,3.79999999999999);
#64=CIRCLE('',#158,3.79999999999999);
#65=VERTEX_POINT('',#209);
#66=VERTEX_POINT('',#211);
#67=VERTEX_POINT('',#216);
#68=VERTEX_POINT('',#218);
#69=VERTEX_POINT('',#220);
#70=VERTEX_POINT('',#224);
#71=VERTEX_POINT('',#226);
#72=VERTEX_POINT('',#231);
#73=VERTEX_POINT('',#232);
#74=VERTEX_POINT('',#237);
#75=VERTEX_POINT('',#238);
#76=EDGE_CURVE('',#65,#65,#55,.T.);
#77=EDGE_CURVE('',#65,#66,#41,.T.);
#78=EDGE_CURVE('',#66,#66,#56,.T.);
#79=EDGE_CURVE('',#67,#67,#57,.T.);
#80=EDGE_CURVE('',#67,#68,#58,.T.);
#81=EDGE_CURVE('',#68,#69,#59,.T.);
#82=EDGE_CURVE('',#69,#68,#60,.T.);
#83=EDGE_CURVE('',#69,#70,#42,.T.);
#84=EDGE_CURVE('',#71,#70,#61,.T.);
#85=EDGE_CURVE('',#70,#71,#62,.T.);
#86=EDGE_CURVE('',#72,#73,#63,.T.);
#87=EDGE_CURVE('',#73,#71,#43,.T.);
#88=EDGE_CURVE('',#71,#72,#44,.T.);
#89=EDGE_CURVE('',#74,#75,#45,.T.);
#90=EDGE_CURVE('',#74,#72,#46,.T.);
#91=EDGE_CURVE('',#75,#73,#47,.T.);
#92=EDGE_CURVE('',#75,#74,#64,.T.);
#93=ORIENTED_EDGE('',*,*,#76,.F.);
#94=ORIENTED_EDGE('',*,*,#77,.T.);
#95=ORIENTED_EDGE('',*,*,#78,.F.);
#96=ORIENTED_EDGE('',*,*,#77,.F.);
#97=ORIENTED_EDGE('',*,*,#76,.T.);
#98=ORIENTED_EDGE('',*,*,#79,.T.);
#99=ORIENTED_EDGE('',*,*,#80,.T.);
#100=ORIENTED_EDGE('',*,*,#81,.T.);
#101=ORIENTED_EDGE('',*,*,#82,.T.);
#102=ORIENTED_EDGE('',*,*,#80,.F.);
#103=ORIENTED_EDGE('',*,*,#82,.F.);
#104=ORIENTED_EDGE('',*,*,#83,.T.);
#105=ORIENTED_EDGE('',*,*,#84,.F.);
#106=ORIENTED_EDGE('',*,*,#85,.F.);
#107=ORIENTED_EDGE('',*,*,#83,.F.);
#108=ORIENTED_EDGE('',*,*,#81,.F.);
#109=ORIENTED_EDGE('',*,*,#79,.F.);
#110=ORIENTED_EDGE('',*,*,#86,.T.);
#111=ORIENTED_EDGE('',*,*,#87,.T.);
#112=ORIENTED_EDGE('',*,*,#84,.T.);
#113=ORIENTED_EDGE('',*,*,#85,.T.);
#114=ORIENTED_EDGE('',*,*,#88,.T.);
#115=ORIENTED_EDGE('',*,*,#89,.F.);
#116=ORIENTED_EDGE('',*,*,#90,.T.);
#117=ORIENTED_EDGE('',*,*,#88,.F.);
#118=ORIENTED_EDGE('',*,*,#87,.F.);
#119=ORIENTED_EDGE('',*,*,#91,.F.);
#120=ORIENTED_EDGE('',*,*,#92,.F.);
#121=ORIENTED_EDGE('',*,*,#91,.T.);
#122=ORIENTED_EDGE('',*,*,#86,.F.);
#123=ORIENTED_EDGE('',*,*,#90,.F.);
#124=ORIENTED_EDGE('',*,*,#92,.T.);
#125=ORIENTED_EDGE('',*,*,#89,.T.);
#126=ORIENTED_EDGE('',*,*,#78,.T.);
#127=CYLINDRICAL_SURFACE('',#141,0.999999999999996);
#128=CYLINDRICAL_SURFACE('',#150,2.9);
#129=CYLINDRICAL_SURFACE('',#157,3.79999999999999);
#130=ADVANCED_FACE('',(#22),#127,.T.);
#131=ADVANCED_FACE('',(#23),#17,.T.);
#132=ADVANCED_FACE('',(#24),#16,.T.);
#133=ADVANCED_FACE('',(#25),#128,.T.);
#134=ADVANCED_FACE('',(#26),#18,.T.);
#135=ADVANCED_FACE('',(#27),#19,.F.);
#136=ADVANCED_FACE('',(#28),#20,.T.);
#137=ADVANCED_FACE('',(#29),#129,.T.);
#138=ADVANCED_FACE('',(#30,#15),#21,.T.);
#139=CLOSED_SHELL('',(#130,#131,#132,#133,#134,#135,#136,#137,#138));
#140=AXIS2_PLACEMENT_3D('',#207,#160,#161);
#141=AXIS2_PLACEMENT_3D('',#208,#162,#163);
#142=AXIS2_PLACEMENT_3D('',#210,#164,#165);
#143=AXIS2_PLACEMENT_3D('',#213,#167,#168);
#144=AXIS2_PLACEMENT_3D('',#214,#169,#170);
#145=AXIS2_PLACEMENT_3D('',#215,#171,#172);
#146=AXIS2_PLACEMENT_3D('',#217,#173,#174);
#147=AXIS2_PLACEMENT_3D('',#219,#175,#176);
#148=AXIS2_PLACEMENT_3D('',#221,#177,#178);
#149=AXIS2_PLACEMENT_3D('',#222,#179,#180);
#150=AXIS2_PLACEMENT_3D('',#223,#181,#182);
#151=AXIS2_PLACEMENT_3D('',#227,#184,#185);
#152=AXIS2_PLACEMENT_3D('',#228,#186,#187);
#153=AXIS2_PLACEMENT_3D('',#229,#188,#189);
#154=AXIS2_PLACEMENT_3D('',#230,#190,#191);
#155=AXIS2_PLACEMENT_3D('',#233,#192,#193);
#156=AXIS2_PLACEMENT_3D('',#236,#196,#197);
#157=AXIS2_PLACEMENT_3D('',#242,#201,#202);
#158=AXIS2_PLACEMENT_3D('',#243,#203,#204);
#159=AXIS2_PLACEMENT_3D('',#244,#205,#206);
#160=DIRECTION('axis',(0.,0.,1.));
#161=DIRECTION('refdir',(1.,0.,0.));
#162=DIRECTION('center_axis',(0.,0.,-1.));
#163=DIRECTION('ref_axis',(1.,0.,0.));
#164=DIRECTION('center_axis',(0.,0.,-1.));
#165=DIRECTION('ref_axis',(1.,0.,0.));
#166=DIRECTION('',(0.,0.,1.));
#167=DIRECTION('center_axis',(0.,0.,1.));
#168=DIRECTION('ref_axis',(1.,0.,0.));
#169=DIRECTION('center_axis',(0.,0.,-1.));
#170=DIRECTION('ref_axis',(1.,0.,0.));
#171=DIRECTION('center_axis',(0.,0.,1.));
#172=DIRECTION('ref_axis',(1.,0.,0.));
#173=DIRECTION('center_axis',(0.,0.,-1.));
#174=DIRECTION('ref_axis',(-1.,0.,0.));
#175=DIRECTION('center_axis',(1.22464679914735E-16,-1.,0.));
#176=DIRECTION('ref_axis',(-1.,-1.22464679914735E-16,0.));
#177=DIRECTION('center_axis',(0.,0.,1.));
#178=DIRECTION('ref_axis',(-1.,0.,0.));
#179=DIRECTION('center_axis',(0.,0.,1.));
#180=DIRECTION('ref_axis',(-1.,0.,0.));
#181=DIRECTION('center_axis',(0.,0.,1.));
#182=DIRECTION('ref_axis',(-1.,0.,0.));
#183=DIRECTION('',(0.,0.,-1.));
#184=DIRECTION('center_axis',(0.,0.,-1.));
#185=DIRECTION('ref_axis',(-1.,0.,0.));
#186=DIRECTION('center_axis',(0.,0.,-1.));
#187=DIRECTION('ref_axis',(-1.,0.,0.));
#188=DIRECTION('center_axis',(0.,0.,1.));
#189=DIRECTION('ref_axis',(-1.,0.,0.));
#190=DIRECTION('center_axis',(0.,0.,-1.));
#191=DIRECTION('ref_axis',(1.,0.,0.));
#192=DIRECTION('center_axis',(0.,0.,1.));
#193=DIRECTION('ref_axis',(-0.763157894736846,0.646212060937295,0.));
#194=DIRECTION('',(0.,-1.,0.));
#195=DIRECTION('',(0.,-1.,0.));
#196=DIRECTION('center_axis',(-1.,0.,0.));
#197=DIRECTION('ref_axis',(0.,-1.,0.));
#198=DIRECTION('',(0.,1.,0.));
#199=DIRECTION('',(0.,0.,1.));
#200=DIRECTION('',(0.,0.,1.));
#201=DIRECTION('center_axis',(0.,0.,1.));
#202=DIRECTION('ref_axis',(1.,-1.46081976924363E-16,0.));
#203=DIRECTION('center_axis',(0.,0.,-1.));
#204=DIRECTION('ref_axis',(-0.763157894736846,0.646212060937295,0.));
#205=DIRECTION('center_axis',(0.,0.,-1.));
#206=DIRECTION('ref_axis',(1.,0.,0.));
#207=CARTESIAN_POINT('',(0.,0.,0.));
#208=CARTESIAN_POINT('Origin',(-21.7466963442131,-3.5527136788005E-14,24.5));
#209=CARTESIAN_POINT('',(-22.7466963442131,-3.5527136788005E-14,23.5));
#210=CARTESIAN_POINT('Origin',(-21.7466963442131,-3.5527136788005E-14,23.5));
#211=CARTESIAN_POINT('',(-22.7466963442131,-3.5527136788005E-14,24.5));
#212=CARTESIAN_POINT('',(-22.7466963442131,-3.54046721080903E-14,24.5));
#213=CARTESIAN_POINT('Origin',(-21.7466963442131,-3.5527136788005E-14,24.5));
#214=CARTESIAN_POINT('Origin',(-21.7466963442131,-3.5527136788005E-14,23.5));
#215=CARTESIAN_POINT('Origin',(-21.7466963442131,-3.5527136788005E-14,27.5));
#216=CARTESIAN_POINT('',(-24.1466963442131,-3.58210520198004E-14,28.));
#217=CARTESIAN_POINT('Origin',(-21.7466963442131,-3.5527136788005E-14,28.));
#218=CARTESIAN_POINT('',(-24.6466963442131,-3.58822843597577E-14,27.5));
#219=CARTESIAN_POINT('Origin',(-24.1466963442131,-3.58210520198004E-14,
27.5));
#220=CARTESIAN_POINT('',(-18.8466963442131,-3.5527136788005E-14,27.5));
#221=CARTESIAN_POINT('Origin',(-21.7466963442131,-3.5527136788005E-14,27.5));
#222=CARTESIAN_POINT('Origin',(-21.7466963442131,-3.5527136788005E-14,27.5));
#223=CARTESIAN_POINT('Origin',(-21.7466963442131,-3.5527136788005E-14,25.5));
#224=CARTESIAN_POINT('',(-18.8466963442131,-3.51719892162523E-14,25.5));
#225=CARTESIAN_POINT('',(-18.8466963442131,-3.51719892162523E-14,25.5));
#226=CARTESIAN_POINT('',(-24.6466963442131,-3.5527136788005E-14,25.5));
#227=CARTESIAN_POINT('Origin',(-21.7466963442131,-3.5527136788005E-14,25.5));
#228=CARTESIAN_POINT('Origin',(-21.7466963442131,-3.5527136788005E-14,25.5));
#229=CARTESIAN_POINT('Origin',(-21.7466963442131,-3.5527136788005E-14,28.));
#230=CARTESIAN_POINT('Origin',(-21.2966963442131,-3.5527136788005E-14,25.5));
#231=CARTESIAN_POINT('',(-24.6466963442131,-2.45560583156175,25.5));
#232=CARTESIAN_POINT('',(-24.6466963442131,2.45560583156168,25.5));
#233=CARTESIAN_POINT('Origin',(-21.7466963442131,-3.5527136788005E-14,25.5));
#234=CARTESIAN_POINT('',(-24.6466963442131,-2.45560583156175,25.5));
#235=CARTESIAN_POINT('',(-24.6466963442131,-2.45560583156175,25.5));
#236=CARTESIAN_POINT('Origin',(-24.6466963442131,2.45560583156168,24.5));
#237=CARTESIAN_POINT('',(-24.6466963442131,-2.45560583156175,24.5));
#238=CARTESIAN_POINT('',(-24.6466963442131,2.45560583156168,24.5));
#239=CARTESIAN_POINT('',(-24.6466963442131,-2.45560583156175,24.5));
#240=CARTESIAN_POINT('',(-24.6466963442131,-2.45560583156175,24.5));
#241=CARTESIAN_POINT('',(-24.6466963442131,2.45560583156168,24.5));
#242=CARTESIAN_POINT('Origin',(-21.7466963442131,-3.5527136788005E-14,24.5));
#243=CARTESIAN_POINT('Origin',(-21.7466963442131,-3.5527136788005E-14,24.5));
#244=CARTESIAN_POINT('Origin',(-21.2966963442131,-3.5527136788005E-14,24.5));
#245=UNCERTAINTY_MEASURE_WITH_UNIT(LENGTH_MEASURE(0.01),#249,
'DISTANCE_ACCURACY_VALUE',
'Maximum model space distance between geometric entities at asserted c
onnectivities');
#246=UNCERTAINTY_MEASURE_WITH_UNIT(LENGTH_MEASURE(0.01),#249,
'DISTANCE_ACCURACY_VALUE',
'Maximum model space distance between geometric entities at asserted c
onnectivities');
#247=(
GEOMETRIC_REPRESENTATION_CONTEXT(3)
GLOBAL_UNCERTAINTY_ASSIGNED_CONTEXT((#245))
GLOBAL_UNIT_ASSIGNED_CONTEXT((#249,#250,#251))
REPRESENTATION_CONTEXT('','3D')
);
#248=(
GEOMETRIC_REPRESENTATION_CONTEXT(3)
GLOBAL_UNCERTAINTY_ASSIGNED_CONTEXT((#246))
GLOBAL_UNIT_ASSIGNED_CONTEXT((#249,#250,#251))
REPRESENTATION_CONTEXT('','3D')
);
#249=(
LENGTH_UNIT()
NAMED_UNIT(*)
SI_UNIT(.MILLI.,.METRE.)
);
#250=(
NAMED_UNIT(*)
PLANE_ANGLE_UNIT()
SI_UNIT($,.RADIAN.)
);
#251=(
NAMED_UNIT(*)
SI_UNIT($,.STERADIAN.)
SOLID_ANGLE_UNIT()
);
#252=SHAPE_DEFINITION_REPRESENTATION(#253,#254);
#253=PRODUCT_DEFINITION_SHAPE('',$,#256);
#254=SHAPE_REPRESENTATION('',(#140),#247);
#255=PRODUCT_DEFINITION_CONTEXT('part definition',#260,'design');
#256=PRODUCT_DEFINITION('Xii-Boy Ultra','Xii-Boy Ultra v221',#257,#255);
#257=PRODUCT_DEFINITION_FORMATION('',$,#262);
#258=PRODUCT_RELATED_PRODUCT_CATEGORY('Xii-Boy Ultra v221',
'Xii-Boy Ultra v221',(#262));
#259=APPLICATION_PROTOCOL_DEFINITION('international standard',
'automotive_design',2009,#260);
#260=APPLICATION_CONTEXT(
'Core Data for Automotive Mechanical Design Process');
#261=PRODUCT_CONTEXT('part definition',#260,'mechanical');
#262=PRODUCT('Xii-Boy Ultra','Xii-Boy Ultra v221',$,(#261));
#263=PRESENTATION_STYLE_ASSIGNMENT((#297));
#264=PRESENTATION_STYLE_ASSIGNMENT((#298));
#265=PRESENTATION_STYLE_ASSIGNMENT((#299));
#266=PRESENTATION_STYLE_ASSIGNMENT((#300));
#267=PRESENTATION_STYLE_ASSIGNMENT((#301));
#268=PRESENTATION_STYLE_ASSIGNMENT((#302));
#269=PRESENTATION_STYLE_ASSIGNMENT((#303));
#270=PRESENTATION_STYLE_ASSIGNMENT((#304));
#271=PRESENTATION_STYLE_ASSIGNMENT((#305));
#272=PRESENTATION_STYLE_ASSIGNMENT((#306));
#273=PRESENTATION_STYLE_ASSIGNMENT((#307));
#274=PRESENTATION_STYLE_ASSIGNMENT((#308));
#275=PRESENTATION_STYLE_ASSIGNMENT((#309));
#276=PRESENTATION_STYLE_ASSIGNMENT((#310));
#277=PRESENTATION_STYLE_ASSIGNMENT((#311));
#278=PRESENTATION_STYLE_ASSIGNMENT((#312));
#279=PRESENTATION_STYLE_ASSIGNMENT((#313));
#280=PRESENTATION_STYLE_ASSIGNMENT((#314));
#281=PRESENTATION_STYLE_ASSIGNMENT((#315));
#282=PRESENTATION_STYLE_ASSIGNMENT((#316));
#283=PRESENTATION_STYLE_ASSIGNMENT((#317));
#284=PRESENTATION_STYLE_ASSIGNMENT((#318));
#285=PRESENTATION_STYLE_ASSIGNMENT((#319));
#286=PRESENTATION_STYLE_ASSIGNMENT((#320));
#287=PRESENTATION_STYLE_ASSIGNMENT((#321));
#288=PRESENTATION_STYLE_ASSIGNMENT((#322));
#289=PRESENTATION_STYLE_ASSIGNMENT((#323));
#290=PRESENTATION_STYLE_ASSIGNMENT((#324));
#291=PRESENTATION_STYLE_ASSIGNMENT((#325));
#292=PRESENTATION_STYLE_ASSIGNMENT((#326));
#293=PRESENTATION_STYLE_ASSIGNMENT((#327));
#294=PRESENTATION_STYLE_ASSIGNMENT((#328));
#295=PRESENTATION_STYLE_ASSIGNMENT((#329));
#296=PRESENTATION_STYLE_ASSIGNMENT((#330));
#297=SURFACE_STYLE_USAGE(.BOTH.,#331);
#298=SURFACE_STYLE_USAGE(.BOTH.,#332);
#299=SURFACE_STYLE_USAGE(.BOTH.,#333);
#300=SURFACE_STYLE_USAGE(.BOTH.,#334);
#301=SURFACE_STYLE_USAGE(.BOTH.,#335);
#302=SURFACE_STYLE_USAGE(.BOTH.,#336);
#303=SURFACE_STYLE_USAGE(.BOTH.,#337);
#304=SURFACE_STYLE_USAGE(.BOTH.,#338);
#305=SURFACE_STYLE_USAGE(.BOTH.,#339);
#306=SURFACE_STYLE_USAGE(.BOTH.,#340);
#307=SURFACE_STYLE_USAGE(.BOTH.,#341);
#308=SURFACE_STYLE_USAGE(.BOTH.,#342);
#309=SURFACE_STYLE_USAGE(.BOTH.,#343);
#310=SURFACE_STYLE_USAGE(.BOTH.,#344);
#311=SURFACE_STYLE_USAGE(.BOTH.,#345);
#312=SURFACE_STYLE_USAGE(.BOTH.,#346);
#313=SURFACE_STYLE_USAGE(.BOTH.,#347);
#314=SURFACE_STYLE_USAGE(.BOTH.,#348);
#315=SURFACE_STYLE_USAGE(.BOTH.,#349);
#316=SURFACE_STYLE_USAGE(.BOTH.,#350);
#317=SURFACE_STYLE_USAGE(.BOTH.,#351);
#318=SURFACE_STYLE_USAGE(.BOTH.,#352);
#319=SURFACE_STYLE_USAGE(.BOTH.,#353);
#320=SURFACE_STYLE_USAGE(.BOTH.,#354);
#321=SURFACE_STYLE_USAGE(.BOTH.,#355);
#322=SURFACE_STYLE_USAGE(.BOTH.,#356);
#323=SURFACE_STYLE_USAGE(.BOTH.,#357);
#324=SURFACE_STYLE_USAGE(.BOTH.,#358);
#325=SURFACE_STYLE_USAGE(.BOTH.,#359);
#326=SURFACE_STYLE_USAGE(.BOTH.,#360);
#327=SURFACE_STYLE_USAGE(.BOTH.,#361);
#328=SURFACE_STYLE_USAGE(.BOTH.,#362);
#329=SURFACE_STYLE_USAGE(.BOTH.,#363);
#330=SURFACE_STYLE_USAGE(.BOTH.,#364);
#331=SURFACE_SIDE_STYLE('',(#365));
#332=SURFACE_SIDE_STYLE('',(#366));
#333=SURFACE_SIDE_STYLE('',(#367));
#334=SURFACE_SIDE_STYLE('',(#368));
#335=SURFACE_SIDE_STYLE('',(#369));
#336=SURFACE_SIDE_STYLE('',(#370));
#337=SURFACE_SIDE_STYLE('',(#371));
#338=SURFACE_SIDE_STYLE('',(#372));
#339=SURFACE_SIDE_STYLE('',(#373));
#340=SURFACE_SIDE_STYLE('',(#374));
#341=SURFACE_SIDE_STYLE('',(#375));
#342=SURFACE_SIDE_STYLE('',(#376));
#343=SURFACE_SIDE_STYLE('',(#377));
#344=SURFACE_SIDE_STYLE('',(#378));
#345=SURFACE_SIDE_STYLE('',(#379));
#346=SURFACE_SIDE_STYLE('',(#380));
#347=SURFACE_SIDE_STYLE('',(#381));
#348=SURFACE_SIDE_STYLE('',(#382));
#349=SURFACE_SIDE_STYLE('',(#383));
#350=SURFACE_SIDE_STYLE('',(#384));
#351=SURFACE_SIDE_STYLE('',(#385));
#352=SURFACE_SIDE_STYLE('',(#386));
#353=SURFACE_SIDE_STYLE('',(#387));
#354=SURFACE_SIDE_STYLE('',(#388));
#355=SURFACE_SIDE_STYLE('',(#389));
#356=SURFACE_SIDE_STYLE('',(#390));
#357=SURFACE_SIDE_STYLE('',(#391));
#358=SURFACE_SIDE_STYLE('',(#392));
#359=SURFACE_SIDE_STYLE('',(#393));
#360=SURFACE_SIDE_STYLE('',(#394));
#361=SURFACE_SIDE_STYLE('',(#395));
#362=SURFACE_SIDE_STYLE('',(#396));
#363=SURFACE_SIDE_STYLE('',(#397));
#364=SURFACE_SIDE_STYLE('',(#398));
#365=SURFACE_STYLE_FILL_AREA(#399);
#366=SURFACE_STYLE_FILL_AREA(#400);
#367=SURFACE_STYLE_FILL_AREA(#401);
#368=SURFACE_STYLE_FILL_AREA(#402);
#369=SURFACE_STYLE_FILL_AREA(#403);
#370=SURFACE_STYLE_FILL_AREA(#404);
#371=SURFACE_STYLE_FILL_AREA(#405);
#372=SURFACE_STYLE_FILL_AREA(#406);
#373=SURFACE_STYLE_FILL_AREA(#407);
#374=SURFACE_STYLE_FILL_AREA(#408);
#375=SURFACE_STYLE_FILL_AREA(#409);
#376=SURFACE_STYLE_FILL_AREA(#410);
#377=SURFACE_STYLE_FILL_AREA(#411);
#378=SURFACE_STYLE_FILL_AREA(#412);
#379=SURFACE_STYLE_FILL_AREA(#413);
#380=SURFACE_STYLE_FILL_AREA(#414);
#381=SURFACE_STYLE_FILL_AREA(#415);
#382=SURFACE_STYLE_FILL_AREA(#416);
#383=SURFACE_STYLE_FILL_AREA(#417);
#384=SURFACE_STYLE_FILL_AREA(#418);
#385=SURFACE_STYLE_FILL_AREA(#419);
#386=SURFACE_STYLE_FILL_AREA(#420);
#387=SURFACE_STYLE_FILL_AREA(#421);
#388=SURFACE_STYLE_FILL_AREA(#422);
#389=SURFACE_STYLE_FILL_AREA(#423);
#390=SURFACE_STYLE_FILL_AREA(#424);
#391=SURFACE_STYLE_FILL_AREA(#425);
#392=SURFACE_STYLE_FILL_AREA(#426);
#393=SURFACE_STYLE_FILL_AREA(#427);
#394=SURFACE_STYLE_FILL_AREA(#428);
#395=SURFACE_STYLE_FILL_AREA(#429);
#396=SURFACE_STYLE_FILL_AREA(#430);
#397=SURFACE_STYLE_FILL_AREA(#431);
#398=SURFACE_STYLE_FILL_AREA(#432);
#399=FILL_AREA_STYLE('Opaque(80,124,105)',(#433));
#400=FILL_AREA_STYLE('Opaque(50,50,50)',(#434));
#401=FILL_AREA_STYLE('Opaque(218,205,0)',(#435));
#402=FILL_AREA_STYLE('Opaque(52,52,52)',(#436));
#403=FILL_AREA_STYLE('Opaque(191,191,191)',(#437));
#404=FILL_AREA_STYLE('Opaque(15,102,15)',(#438));
#405=FILL_AREA_STYLE('Opaque(202,209,238)',(#439));
#406=FILL_AREA_STYLE('Opaque(255,255,255)',(#440));
#407=FILL_AREA_STYLE('Opaque(152,170,175)',(#441));
#408=FILL_AREA_STYLE('Opaque(204,203,178)',(#442));
#409=FILL_AREA_STYLE('Opaque(234,234,234)',(#443));
#410=FILL_AREA_STYLE('Opaque(69,69,69)',(#444));
#411=FILL_AREA_STYLE('Opaque(64,64,64)',(#445));
#412=FILL_AREA_STYLE('Opaque(225,225,225)',(#446));
#413=FILL_AREA_STYLE('Opaque(25,25,25)',(#447));
#414=FILL_AREA_STYLE('Opaque(211,84,18)',(#448));
#415=FILL_AREA_STYLE('Opaque(70,70,70)',(#449));
#416=FILL_AREA_STYLE('Opaque(219,219,219)',(#450));
#417=FILL_AREA_STYLE('Opaque(204,204,204)',(#451));
#418=FILL_AREA_STYLE('Opaque(160,160,160)',(#452));
#419=FILL_AREA_STYLE('Opaque(220,220,220)',(#453));
#420=FILL_AREA_STYLE('Opaque(63,63,63)',(#454));
#421=FILL_AREA_STYLE('Opaque(176,176,176)',(#455));
#422=FILL_AREA_STYLE('Powder Coat - Rough (Dark Grey)',(#456));
#423=FILL_AREA_STYLE('Opaque(21,22,24)',(#457));
#424=FILL_AREA_STYLE('Aluminum - Polished',(#458));
#425=FILL_AREA_STYLE('Gold - Polished',(#459));
#426=FILL_AREA_STYLE('Steel - Satin',(#460));
#427=FILL_AREA_STYLE('Opaque(246,246,243)',(#461));
#428=FILL_AREA_STYLE('Plastic - Glossy (Black)',(#462));
#429=FILL_AREA_STYLE('Copper - Polished',(#463));
#430=FILL_AREA_STYLE('Aluminum - Anodized Rough (Red)',(#464));
#431=FILL_AREA_STYLE('Glass (Clear)',(#465));
#432=FILL_AREA_STYLE('Opaque(243,243,243)',(#466));
#433=FILL_AREA_STYLE_COLOUR('Opaque(80,124,105)',#467);
#434=FILL_AREA_STYLE_COLOUR('Opaque(50,50,50)',#468);
#435=FILL_AREA_STYLE_COLOUR('Opaque(218,205,0)',#469);
#436=FILL_AREA_STYLE_COLOUR('Opaque(52,52,52)',#470);
#437=FILL_AREA_STYLE_COLOUR('Opaque(191,191,191)',#471);
#438=FILL_AREA_STYLE_COLOUR('Opaque(15,102,15)',#472);
#439=FILL_AREA_STYLE_COLOUR('Opaque(202,209,238)',#473);
#440=FILL_AREA_STYLE_COLOUR('Opaque(255,255,255)',#474);
#441=FILL_AREA_STYLE_COLOUR('Opaque(152,170,175)',#475);
#442=FILL_AREA_STYLE_COLOUR('Opaque(204,203,178)',#476);
#443=FILL_AREA_STYLE_COLOUR('Opaque(234,234,234)',#477);
#444=FILL_AREA_STYLE_COLOUR('Opaque(69,69,69)',#478);
#445=FILL_AREA_STYLE_COLOUR('Opaque(64,64,64)',#479);
#446=FILL_AREA_STYLE_COLOUR('Opaque(225,225,225)',#480);
#447=FILL_AREA_STYLE_COLOUR('Opaque(25,25,25)',#481);
#448=FILL_AREA_STYLE_COLOUR('Opaque(211,84,18)',#482);
#449=FILL_AREA_STYLE_COLOUR('Opaque(70,70,70)',#483);
#450=FILL_AREA_STYLE_COLOUR('Opaque(219,219,219)',#484);
#451=FILL_AREA_STYLE_COLOUR('Opaque(204,204,204)',#485);
#452=FILL_AREA_STYLE_COLOUR('Opaque(160,160,160)',#486);
#453=FILL_AREA_STYLE_COLOUR('Opaque(220,220,220)',#487);
#454=FILL_AREA_STYLE_COLOUR('Opaque(63,63,63)',#488);
#455=FILL_AREA_STYLE_COLOUR('Opaque(176,176,176)',#489);
#456=FILL_AREA_STYLE_COLOUR('Powder Coat - Rough (Dark Grey)',#490);
#457=FILL_AREA_STYLE_COLOUR('Opaque(21,22,24)',#491);
#458=FILL_AREA_STYLE_COLOUR('Aluminum - Polished',#492);
#459=FILL_AREA_STYLE_COLOUR('Gold - Polished',#493);
#460=FILL_AREA_STYLE_COLOUR('Steel - Satin',#494);
#461=FILL_AREA_STYLE_COLOUR('Opaque(246,246,243)',#495);
#462=FILL_AREA_STYLE_COLOUR('Plastic - Glossy (Black)',#496);
#463=FILL_AREA_STYLE_COLOUR('Copper - Polished',#497);
#464=FILL_AREA_STYLE_COLOUR('Aluminum - Anodized Rough (Red)',#498);
#465=FILL_AREA_STYLE_COLOUR('Glass (Clear)',#499);
#466=FILL_AREA_STYLE_COLOUR('Opaque(243,243,243)',#500);
#467=COLOUR_RGB('Opaque(80,124,105)',0.313725490196078,0.486274509803922,
0.411764705882353);
#468=COLOUR_RGB('Opaque(50,50,50)',0.196078431372549,0.196078431372549,
0.196078431372549);
#469=COLOUR_RGB('Opaque(218,205,0)',0.854901960784314,0.803921568627451,
0.);
#470=COLOUR_RGB('Opaque(52,52,52)',0.203921568627451,0.203921568627451,
0.203921568627451);
#471=COLOUR_RGB('Opaque(191,191,191)',0.749019607843137,0.749019607843137,
0.749019607843137);
#472=COLOUR_RGB('Opaque(15,102,15)',0.0588235294117647,0.4,0.0588235294117647);
#473=COLOUR_RGB('Opaque(202,209,238)',0.792156862745098,0.819607843137255,
0.933333333333333);
#474=COLOUR_RGB('Opaque(255,255,255)',1.,1.,1.);
#475=COLOUR_RGB('Opaque(152,170,175)',0.596078431372549,0.666666666666667,
0.686274509803922);
#476=COLOUR_RGB('Opaque(204,203,178)',0.8,0.796078431372549,0.698039215686274);
#477=COLOUR_RGB('Opaque(234,234,234)',0.917647058823529,0.917647058823529,
0.917647058823529);
#478=COLOUR_RGB('Opaque(69,69,69)',0.270588235294118,0.270588235294118,
0.270588235294118);
#479=COLOUR_RGB('Opaque(64,64,64)',0.250980392156863,0.250980392156863,
0.250980392156863);
#480=COLOUR_RGB('Opaque(225,225,225)',0.882352941176471,0.882352941176471,
0.882352941176471);
#481=COLOUR_RGB('Opaque(25,25,25)',0.0980392156862745,0.0980392156862745,
0.0980392156862745);
#482=COLOUR_RGB('Opaque(211,84,18)',0.827450980392157,0.329411764705882,
0.0705882352941176);
#483=COLOUR_RGB('Opaque(70,70,70)',0.274509803921569,0.274509803921569,
0.274509803921569);
#484=COLOUR_RGB('Opaque(219,219,219)',0.858823529411765,0.858823529411765,
0.858823529411765);
#485=COLOUR_RGB('Opaque(204,204,204)',0.8,0.8,0.8);
#486=COLOUR_RGB('Opaque(160,160,160)',0.627450980392157,0.627450980392157,
0.627450980392157);
#487=COLOUR_RGB('Opaque(220,220,220)',0.862745098039216,0.862745098039216,
0.862745098039216);
#488=COLOUR_RGB('Opaque(63,63,63)',0.250980392156863,0.250980392156863,
0.250980392156863);
#489=COLOUR_RGB('Opaque(176,176,176)',0.690196078431373,0.690196078431373,
0.690196078431373);
#490=COLOUR_RGB('Powder Coat - Rough (Dark Grey)',0.349019607843137,0.349019607843137,
0.349019607843137);
#491=COLOUR_RGB('Opaque(21,22,24)',0.0823529411764706,0.0862745098039216,
0.0941176470588235);
#492=COLOUR_RGB('Aluminum - Polished',0.96078431372549,0.96078431372549,
0.964705882352941);
#493=COLOUR_RGB('Gold - Polished',0.956862745098039,0.898039215686275,0.654901960784314);
#494=COLOUR_RGB('Steel - Satin',0.627450980392157,0.627450980392157,0.627450980392157);
#495=COLOUR_RGB('Opaque(246,246,243)',0.964705882352941,0.964705882352941,
0.952941176470588);
#496=COLOUR_RGB('Plastic - Glossy (Black)',0.0980392156862745,0.0980392156862745,
0.0980392156862745);
#497=COLOUR_RGB('Copper - Polished',0.929411764705882,0.807843137254902,
0.764705882352941);
#498=COLOUR_RGB('Aluminum - Anodized Rough (Red)',0.854901960784314,0.349019607843137,
0.349019607843137);
#499=COLOUR_RGB('Glass (Clear)',0.964705882352941,0.964705882352941,0.952941176470588);
#500=COLOUR_RGB('Opaque(243,243,243)',0.952941176470588,0.952941176470588,
0.952941176470588);
ENDSEC;
END-ISO-10303-21;
