ISO-10303-21;
HEADER;
/* Generated by software containing ST-Developer
 * from STEP Tools, Inc. (www.steptools.com) 
 */

FILE_DESCRIPTION(
/* description */ (''),
/* implementation_level */ '2;1');

FILE_NAME(
/* name */ 'Sync.step',
/* time_stamp */ '2025-11-15T18:54:49+01:00',
/* author */ (''),
/* organization */ (''),
/* preprocessor_version */ 'ST-DEVELOPER v20.1',
/* originating_system */ 'Autodesk Translation Framework v14.21.0.0',
/* authorisation */ '');

FILE_SCHEMA (('AUTOMOTIVE_DESIGN { 1 0 10303 214 3 1 1 }'));
ENDSEC;

DATA;
#10=MECHANICAL_DESIGN_GEOMETRIC_PRESENTATION_REPRESENTATION('',(#15,#16),
#487);
#11=SHAPE_REPRESENTATION_RELATIONSHIP('SRR','None',#493,#12);
#12=ADVANCED_BREP_SHAPE_REPRESENTATION('',(#13),#486);
#13=MANIFOLD_SOLID_BREP('SYNC',#280);
#14=FACE_BOUND('',#54,.T.);
#15=STYLED_ITEM('',(#530),#274);
#16=STYLED_ITEM('',(#514),#13);
#17=PLANE('',#285);
#18=PLANE('',#289);
#19=PLANE('',#290);
#20=PLANE('',#297);
#21=PLANE('',#305);
#22=PLANE('',#310);
#23=PLANE('',#311);
#24=PLANE('',#313);
#25=FACE_OUTER_BOUND('',#41,.T.);
#26=FACE_OUTER_BOUND('',#42,.T.);
#27=FACE_OUTER_BOUND('',#43,.T.);
#28=FACE_OUTER_BOUND('',#44,.T.);
#29=FACE_OUTER_BOUND('',#45,.T.);
#30=FACE_OUTER_BOUND('',#46,.T.);
#31=FACE_OUTER_BOUND('',#47,.T.);
#32=FACE_OUTER_BOUND('',#48,.T.);
#33=FACE_OUTER_BOUND('',#49,.T.);
#34=FACE_OUTER_BOUND('',#50,.T.);
#35=FACE_OUTER_BOUND('',#51,.T.);
#36=FACE_OUTER_BOUND('',#52,.T.);
#37=FACE_OUTER_BOUND('',#53,.T.);
#38=FACE_OUTER_BOUND('',#55,.T.);
#39=FACE_OUTER_BOUND('',#56,.T.);
#40=FACE_OUTER_BOUND('',#57,.T.);
#41=EDGE_LOOP('',(#180,#181,#182,#183));
#42=EDGE_LOOP('',(#184,#185,#186,#187));
#43=EDGE_LOOP('',(#188,#189,#190,#191));
#44=EDGE_LOOP('',(#192,#193,#194,#195));
#45=EDGE_LOOP('',(#196,#197,#198,#199));
#46=EDGE_LOOP('',(#200,#201,#202,#203));
#47=EDGE_LOOP('',(#204,#205,#206,#207));
#48=EDGE_LOOP('',(#208,#209,#210,#211,#212,#213,#214,#215,#216,#217));
#49=EDGE_LOOP('',(#218,#219,#220,#221));
#50=EDGE_LOOP('',(#222,#223,#224,#225));
#51=EDGE_LOOP('',(#226));
#52=EDGE_LOOP('',(#227,#228,#229,#230,#231));
#53=EDGE_LOOP('',(#232));
#54=EDGE_LOOP('',(#233));
#55=EDGE_LOOP('',(#234,#235,#236,#237,#238,#239,#240,#241,#242,#243,#244,
#245,#246));
#56=EDGE_LOOP('',(#247,#248,#249,#250,#251));
#57=EDGE_LOOP('',(#252,#253,#254,#255));
#58=LINE('',#410,#79);
#59=LINE('',#413,#80);
#60=LINE('',#416,#81);
#61=LINE('',#418,#82);
#62=LINE('',#419,#83);
#63=LINE('',#425,#84);
#64=LINE('',#428,#85);
#65=LINE('',#431,#86);
#66=LINE('',#433,#87);
#67=LINE('',#434,#88);
#68=LINE('',#438,#89);
#69=LINE('',#440,#90);
#70=LINE('',#442,#91);
#71=LINE('',#443,#92);
#72=LINE('',#454,#93);
#73=LINE('',#459,#94);
#74=LINE('',#464,#95);
#75=LINE('',#471,#96);
#76=LINE('',#479,#97);
#77=LINE('',#480,#98);
#78=LINE('',#482,#99);
#79=VECTOR('',#321,10.);
#80=VECTOR('',#324,10.);
#81=VECTOR('',#327,10.);
#82=VECTOR('',#328,10.);
#83=VECTOR('',#329,10.);
#84=VECTOR('',#334,10.);
#85=VECTOR('',#337,10.);
#86=VECTOR('',#340,10.);
#87=VECTOR('',#341,10.);
#88=VECTOR('',#342,10.);
#89=VECTOR('',#345,10.);
#90=VECTOR('',#346,10.);
#91=VECTOR('',#347,10.);
#92=VECTOR('',#348,10.);
#93=VECTOR('',#365,10.);
#94=VECTOR('',#372,10.);
#95=VECTOR('',#377,1.00000000000001);
#96=VECTOR('',#386,2.5);
#97=VECTOR('',#397,10.);
#98=VECTOR('',#398,10.);
#99=VECTOR('',#401,10.);
#100=CIRCLE('',#283,0.5);
#101=CIRCLE('',#284,0.5);
#102=CIRCLE('',#287,0.5);
#103=CIRCLE('',#288,0.5);
#104=CIRCLE('',#292,0.25);
#105=CIRCLE('',#293,0.25);
#106=CIRCLE('',#295,0.249999999999996);
#107=CIRCLE('',#296,0.249999999999996);
#108=CIRCLE('',#298,3.);
#109=CIRCLE('',#299,3.);
#110=CIRCLE('',#301,3.);
#111=CIRCLE('',#303,1.00000000000001);
#112=CIRCLE('',#304,1.00000000000001);
#113=CIRCLE('',#307,2.5);
#114=CIRCLE('',#308,2.5);
#115=CIRCLE('',#309,2.5);
#116=CIRCLE('',#312,3.);
#117=VERTEX_POINT('',#406);
#118=VERTEX_POINT('',#407);
#119=VERTEX_POINT('',#409);
#120=VERTEX_POINT('',#411);
#121=VERTEX_POINT('',#415);
#122=VERTEX_POINT('',#417);
#123=VERTEX_POINT('',#421);
#124=VERTEX_POINT('',#422);
#125=VERTEX_POINT('',#424);
#126=VERTEX_POINT('',#426);
#127=VERTEX_POINT('',#430);
#128=VERTEX_POINT('',#432);
#129=VERTEX_POINT('',#436);
#130=VERTEX_POINT('',#437);
#131=VERTEX_POINT('',#439);
#132=VERTEX_POINT('',#441);
#133=VERTEX_POINT('',#451);
#134=VERTEX_POINT('',#453);
#135=VERTEX_POINT('',#457);
#136=VERTEX_POINT('',#461);
#137=VERTEX_POINT('',#463);
#138=VERTEX_POINT('',#468);
#139=VERTEX_POINT('',#470);
#140=VERTEX_POINT('',#472);
#141=VERTEX_POINT('',#477);
#142=EDGE_CURVE('',#117,#118,#100,.T.);
#143=EDGE_CURVE('',#118,#119,#58,.T.);
#144=EDGE_CURVE('',#119,#120,#101,.T.);
#145=EDGE_CURVE('',#120,#117,#59,.T.);
#146=EDGE_CURVE('',#121,#118,#60,.T.);
#147=EDGE_CURVE('',#122,#121,#61,.T.);
#148=EDGE_CURVE('',#119,#122,#62,.T.);
#149=EDGE_CURVE('',#123,#124,#102,.T.);
#150=EDGE_CURVE('',#124,#125,#63,.T.);
#151=EDGE_CURVE('',#125,#126,#103,.T.);
#152=EDGE_CURVE('',#126,#123,#64,.T.);
#153=EDGE_CURVE('',#127,#124,#65,.T.);
#154=EDGE_CURVE('',#127,#128,#66,.T.);
#155=EDGE_CURVE('',#125,#128,#67,.T.);
#156=EDGE_CURVE('',#129,#130,#68,.T.);
#157=EDGE_CURVE('',#129,#131,#69,.T.);
#158=EDGE_CURVE('',#132,#131,#70,.T.);
#159=EDGE_CURVE('',#130,#132,#71,.T.);
#160=EDGE_CURVE('',#130,#127,#104,.T.);
#161=EDGE_CURVE('',#128,#132,#105,.T.);
#162=EDGE_CURVE('',#122,#129,#106,.T.);
#163=EDGE_CURVE('',#131,#121,#107,.T.);
#164=EDGE_CURVE('',#123,#133,#108,.T.);
#165=EDGE_CURVE('',#133,#134,#72,.T.);
#166=EDGE_CURVE('',#134,#120,#109,.T.);
#167=EDGE_CURVE('',#135,#126,#110,.T.);
#168=EDGE_CURVE('',#133,#135,#73,.T.);
#169=EDGE_CURVE('',#136,#136,#111,.T.);
#170=EDGE_CURVE('',#136,#137,#74,.T.);
#171=EDGE_CURVE('',#137,#137,#112,.T.);
#172=EDGE_CURVE('',#138,#138,#113,.T.);
#173=EDGE_CURVE('',#138,#139,#75,.T.);
#174=EDGE_CURVE('',#140,#139,#114,.T.);
#175=EDGE_CURVE('',#139,#140,#115,.T.);
#176=EDGE_CURVE('',#117,#141,#116,.T.);
#177=EDGE_CURVE('',#141,#140,#76,.T.);
#178=EDGE_CURVE('',#140,#135,#77,.T.);
#179=EDGE_CURVE('',#134,#141,#78,.T.);
#180=ORIENTED_EDGE('',*,*,#142,.T.);
#181=ORIENTED_EDGE('',*,*,#143,.T.);
#182=ORIENTED_EDGE('',*,*,#144,.T.);
#183=ORIENTED_EDGE('',*,*,#145,.T.);
#184=ORIENTED_EDGE('',*,*,#143,.F.);
#185=ORIENTED_EDGE('',*,*,#146,.F.);
#186=ORIENTED_EDGE('',*,*,#147,.F.);
#187=ORIENTED_EDGE('',*,*,#148,.F.);
#188=ORIENTED_EDGE('',*,*,#149,.T.);
#189=ORIENTED_EDGE('',*,*,#150,.T.);
#190=ORIENTED_EDGE('',*,*,#151,.T.);
#191=ORIENTED_EDGE('',*,*,#152,.T.);
#192=ORIENTED_EDGE('',*,*,#150,.F.);
#193=ORIENTED_EDGE('',*,*,#153,.F.);
#194=ORIENTED_EDGE('',*,*,#154,.T.);
#195=ORIENTED_EDGE('',*,*,#155,.F.);
#196=ORIENTED_EDGE('',*,*,#156,.F.);
#197=ORIENTED_EDGE('',*,*,#157,.T.);
#198=ORIENTED_EDGE('',*,*,#158,.F.);
#199=ORIENTED_EDGE('',*,*,#159,.F.);
#200=ORIENTED_EDGE('',*,*,#160,.F.);
#201=ORIENTED_EDGE('',*,*,#159,.T.);
#202=ORIENTED_EDGE('',*,*,#161,.F.);
#203=ORIENTED_EDGE('',*,*,#154,.F.);
#204=ORIENTED_EDGE('',*,*,#162,.F.);
#205=ORIENTED_EDGE('',*,*,#147,.T.);
#206=ORIENTED_EDGE('',*,*,#163,.F.);
#207=ORIENTED_EDGE('',*,*,#157,.F.);
#208=ORIENTED_EDGE('',*,*,#164,.T.);
#209=ORIENTED_EDGE('',*,*,#165,.T.);
#210=ORIENTED_EDGE('',*,*,#166,.T.);
#211=ORIENTED_EDGE('',*,*,#144,.F.);
#212=ORIENTED_EDGE('',*,*,#148,.T.);
#213=ORIENTED_EDGE('',*,*,#162,.T.);
#214=ORIENTED_EDGE('',*,*,#156,.T.);
#215=ORIENTED_EDGE('',*,*,#160,.T.);
#216=ORIENTED_EDGE('',*,*,#153,.T.);
#217=ORIENTED_EDGE('',*,*,#149,.F.);
#218=ORIENTED_EDGE('',*,*,#152,.F.);
#219=ORIENTED_EDGE('',*,*,#167,.F.);
#220=ORIENTED_EDGE('',*,*,#168,.F.);
#221=ORIENTED_EDGE('',*,*,#164,.F.);
#222=ORIENTED_EDGE('',*,*,#169,.F.);
#223=ORIENTED_EDGE('',*,*,#170,.T.);
#224=ORIENTED_EDGE('',*,*,#171,.T.);
#225=ORIENTED_EDGE('',*,*,#170,.F.);
#226=ORIENTED_EDGE('',*,*,#171,.F.);
#227=ORIENTED_EDGE('',*,*,#172,.F.);
#228=ORIENTED_EDGE('',*,*,#173,.T.);
#229=ORIENTED_EDGE('',*,*,#174,.F.);
#230=ORIENTED_EDGE('',*,*,#175,.F.);
#231=ORIENTED_EDGE('',*,*,#173,.F.);
#232=ORIENTED_EDGE('',*,*,#172,.T.);
#233=ORIENTED_EDGE('',*,*,#169,.T.);
#234=ORIENTED_EDGE('',*,*,#176,.T.);
#235=ORIENTED_EDGE('',*,*,#177,.T.);
#236=ORIENTED_EDGE('',*,*,#174,.T.);
#237=ORIENTED_EDGE('',*,*,#175,.T.);
#238=ORIENTED_EDGE('',*,*,#178,.T.);
#239=ORIENTED_EDGE('',*,*,#167,.T.);
#240=ORIENTED_EDGE('',*,*,#151,.F.);
#241=ORIENTED_EDGE('',*,*,#155,.T.);
#242=ORIENTED_EDGE('',*,*,#161,.T.);
#243=ORIENTED_EDGE('',*,*,#158,.T.);
#244=ORIENTED_EDGE('',*,*,#163,.T.);
#245=ORIENTED_EDGE('',*,*,#146,.T.);
#246=ORIENTED_EDGE('',*,*,#142,.F.);
#247=ORIENTED_EDGE('',*,*,#165,.F.);
#248=ORIENTED_EDGE('',*,*,#168,.T.);
#249=ORIENTED_EDGE('',*,*,#178,.F.);
#250=ORIENTED_EDGE('',*,*,#177,.F.);
#251=ORIENTED_EDGE('',*,*,#179,.F.);
#252=ORIENTED_EDGE('',*,*,#145,.F.);
#253=ORIENTED_EDGE('',*,*,#166,.F.);
#254=ORIENTED_EDGE('',*,*,#179,.T.);
#255=ORIENTED_EDGE('',*,*,#176,.F.);
#256=CYLINDRICAL_SURFACE('',#282,0.5);
#257=CYLINDRICAL_SURFACE('',#286,0.5);
#258=CYLINDRICAL_SURFACE('',#291,0.25);
#259=CYLINDRICAL_SURFACE('',#294,0.249999999999996);
#260=CYLINDRICAL_SURFACE('',#300,3.);
#261=CYLINDRICAL_SURFACE('',#302,1.00000000000001);
#262=CYLINDRICAL_SURFACE('',#306,2.5);
#263=CYLINDRICAL_SURFACE('',#314,3.);
#264=ADVANCED_FACE('',(#25),#256,.F.);
#265=ADVANCED_FACE('',(#26),#17,.T.);
#266=ADVANCED_FACE('',(#27),#257,.F.);
#267=ADVANCED_FACE('',(#28),#18,.T.);
#268=ADVANCED_FACE('',(#29),#19,.T.);
#269=ADVANCED_FACE('',(#30),#258,.T.);
#270=ADVANCED_FACE('',(#31),#259,.T.);
#271=ADVANCED_FACE('',(#32),#20,.T.);
#272=ADVANCED_FACE('',(#33),#260,.T.);
#273=ADVANCED_FACE('',(#34),#261,.F.);
#274=ADVANCED_FACE('',(#35),#21,.T.);
#275=ADVANCED_FACE('',(#36),#262,.T.);
#276=ADVANCED_FACE('',(#37,#14),#22,.T.);
#277=ADVANCED_FACE('',(#38),#23,.F.);
#278=ADVANCED_FACE('',(#39),#24,.T.);
#279=ADVANCED_FACE('',(#40),#263,.T.);
#280=CLOSED_SHELL('',(#264,#265,#266,#267,#268,#269,#270,#271,#272,#273,
#274,#275,#276,#277,#278,#279));
#281=AXIS2_PLACEMENT_3D('',#404,#315,#316);
#282=AXIS2_PLACEMENT_3D('',#405,#317,#318);
#283=AXIS2_PLACEMENT_3D('',#408,#319,#320);
#284=AXIS2_PLACEMENT_3D('',#412,#322,#323);
#285=AXIS2_PLACEMENT_3D('',#414,#325,#326);
#286=AXIS2_PLACEMENT_3D('',#420,#330,#331);
#287=AXIS2_PLACEMENT_3D('',#423,#332,#333);
#288=AXIS2_PLACEMENT_3D('',#427,#335,#336);
#289=AXIS2_PLACEMENT_3D('',#429,#338,#339);
#290=AXIS2_PLACEMENT_3D('',#435,#343,#344);
#291=AXIS2_PLACEMENT_3D('',#444,#349,#350);
#292=AXIS2_PLACEMENT_3D('',#445,#351,#352);
#293=AXIS2_PLACEMENT_3D('',#446,#353,#354);
#294=AXIS2_PLACEMENT_3D('',#447,#355,#356);
#295=AXIS2_PLACEMENT_3D('',#448,#357,#358);
#296=AXIS2_PLACEMENT_3D('',#449,#359,#360);
#297=AXIS2_PLACEMENT_3D('',#450,#361,#362);
#298=AXIS2_PLACEMENT_3D('',#452,#363,#364);
#299=AXIS2_PLACEMENT_3D('',#455,#366,#367);
#300=AXIS2_PLACEMENT_3D('',#456,#368,#369);
#301=AXIS2_PLACEMENT_3D('',#458,#370,#371);
#302=AXIS2_PLACEMENT_3D('',#460,#373,#374);
#303=AXIS2_PLACEMENT_3D('',#462,#375,#376);
#304=AXIS2_PLACEMENT_3D('',#465,#378,#379);
#305=AXIS2_PLACEMENT_3D('',#466,#380,#381);
#306=AXIS2_PLACEMENT_3D('',#467,#382,#383);
#307=AXIS2_PLACEMENT_3D('',#469,#384,#385);
#308=AXIS2_PLACEMENT_3D('',#473,#387,#388);
#309=AXIS2_PLACEMENT_3D('',#474,#389,#390);
#310=AXIS2_PLACEMENT_3D('',#475,#391,#392);
#311=AXIS2_PLACEMENT_3D('',#476,#393,#394);
#312=AXIS2_PLACEMENT_3D('',#478,#395,#396);
#313=AXIS2_PLACEMENT_3D('',#481,#399,#400);
#314=AXIS2_PLACEMENT_3D('',#483,#402,#403);
#315=DIRECTION('axis',(0.,0.,1.));
#316=DIRECTION('refdir',(1.,0.,0.));
#317=DIRECTION('center_axis',(-1.,0.,0.));
#318=DIRECTION('ref_axis',(0.,0.983374235379355,0.181590509642079));
#319=DIRECTION('center_axis',(1.,0.,0.));
#320=DIRECTION('ref_axis',(0.,0.983374235379355,0.181590509642079));
#321=DIRECTION('',(-1.,0.,0.));
#322=DIRECTION('center_axis',(-1.,0.,0.));
#323=DIRECTION('ref_axis',(0.,0.983374235379355,0.181590509642079));
#324=DIRECTION('',(1.,0.,0.));
#325=DIRECTION('center_axis',(0.,-0.70710678118655,-0.707106781186545));
#326=DIRECTION('ref_axis',(0.,0.707106781186545,-0.70710678118655));
#327=DIRECTION('',(0.,0.707106781186545,-0.70710678118655));
#328=DIRECTION('',(1.,0.,0.));
#329=DIRECTION('',(0.,-0.707106781186545,0.70710678118655));
#330=DIRECTION('center_axis',(1.,0.,0.));
#331=DIRECTION('ref_axis',(0.,-0.181590509642081,-0.983374235379354));
#332=DIRECTION('center_axis',(-1.,0.,0.));
#333=DIRECTION('ref_axis',(0.,-0.181590509642081,-0.983374235379354));
#334=DIRECTION('',(1.,0.,0.));
#335=DIRECTION('center_axis',(1.,0.,0.));
#336=DIRECTION('ref_axis',(0.,-0.181590509642081,-0.983374235379354));
#337=DIRECTION('',(-1.,0.,0.));
#338=DIRECTION('center_axis',(0.,0.707106781186556,0.707106781186539));
#339=DIRECTION('ref_axis',(0.,-0.707106781186539,0.707106781186556));
#340=DIRECTION('',(0.,0.707106781186539,-0.707106781186556));
#341=DIRECTION('',(1.,0.,0.));
#342=DIRECTION('',(0.,-0.707106781186539,0.707106781186556));
#343=DIRECTION('center_axis',(0.,-0.707106781186552,0.707106781186543));
#344=DIRECTION('ref_axis',(0.,-0.707106781186543,-0.707106781186552));
#345=DIRECTION('',(0.,0.707106781186543,0.707106781186552));
#346=DIRECTION('',(1.,0.,0.));
#347=DIRECTION('',(0.,-0.707106781186543,-0.707106781186552));
#348=DIRECTION('',(1.,0.,0.));
#349=DIRECTION('center_axis',(1.,0.,0.));
#350=DIRECTION('ref_axis',(0.,-0.707106781186548,0.707106781186548));
#351=DIRECTION('center_axis',(-1.,0.,0.));
#352=DIRECTION('ref_axis',(0.,-0.707106781186548,0.707106781186548));
#353=DIRECTION('center_axis',(1.,0.,0.));
#354=DIRECTION('ref_axis',(0.,-0.707106781186548,0.707106781186548));
#355=DIRECTION('center_axis',(1.,0.,0.));
#356=DIRECTION('ref_axis',(0.,-0.707106781186539,-0.707106781186556));
#357=DIRECTION('center_axis',(-1.,0.,0.));
#358=DIRECTION('ref_axis',(0.,-0.707106781186539,-0.707106781186556));
#359=DIRECTION('center_axis',(1.,0.,0.));
#360=DIRECTION('ref_axis',(0.,-0.707106781186539,-0.707106781186556));
#361=DIRECTION('center_axis',(-1.,0.,0.));
#362=DIRECTION('ref_axis',(0.,-1.,0.));
#363=DIRECTION('center_axis',(-1.,0.,0.));
#364=DIRECTION('ref_axis',(0.,-0.552770798392569,-0.833333333333332));
#365=DIRECTION('',(0.,-1.,0.));
#366=DIRECTION('center_axis',(-1.,0.,0.));
#367=DIRECTION('ref_axis',(0.,-0.552770798392569,-0.833333333333332));
#368=DIRECTION('center_axis',(1.,0.,0.));
#369=DIRECTION('ref_axis',(0.,0.876170107087745,0.482002016018449));
#370=DIRECTION('center_axis',(1.,0.,0.));
#371=DIRECTION('ref_axis',(0.,-0.552770798392569,-0.833333333333332));
#372=DIRECTION('',(1.,0.,0.));
#373=DIRECTION('center_axis',(-1.,0.,0.));
#374=DIRECTION('ref_axis',(0.,1.,0.));
#375=DIRECTION('center_axis',(-1.,0.,0.));
#376=DIRECTION('ref_axis',(0.,1.,0.));
#377=DIRECTION('',(-1.,0.,0.));
#378=DIRECTION('center_axis',(-1.,0.,0.));
#379=DIRECTION('ref_axis',(0.,1.,0.));
#380=DIRECTION('center_axis',(1.,0.,0.));
#381=DIRECTION('ref_axis',(0.,1.,0.));
#382=DIRECTION('center_axis',(1.,0.,0.));
#383=DIRECTION('ref_axis',(0.,1.,0.));
#384=DIRECTION('center_axis',(1.,0.,0.));
#385=DIRECTION('ref_axis',(0.,1.,0.));
#386=DIRECTION('',(-1.,0.,0.));
#387=DIRECTION('center_axis',(-1.,0.,0.));
#388=DIRECTION('ref_axis',(0.,1.,0.));
#389=DIRECTION('center_axis',(-1.,0.,0.));
#390=DIRECTION('ref_axis',(0.,1.,0.));
#391=DIRECTION('center_axis',(1.,0.,0.));
#392=DIRECTION('ref_axis',(0.,1.,0.));
#393=DIRECTION('center_axis',(-1.,0.,0.));
#394=DIRECTION('ref_axis',(0.,-1.,0.));
#395=DIRECTION('center_axis',(1.,0.,0.));
#396=DIRECTION('ref_axis',(0.,-0.552770798392569,-0.833333333333332));
#397=DIRECTION('',(0.,1.,0.));
#398=DIRECTION('',(0.,1.,0.));
#399=DIRECTION('center_axis',(0.,0.,-1.));
#400=DIRECTION('ref_axis',(0.,1.,0.));
#401=DIRECTION('',(1.,0.,0.));
#402=DIRECTION('center_axis',(1.,0.,0.));
#403=DIRECTION('ref_axis',(0.,-0.552770798392569,-0.833333333333332));
#404=CARTESIAN_POINT('',(0.,0.,0.));
#405=CARTESIAN_POINT('Origin',(70.5,-29.4511816694208,13.5727149452687));
#406=CARTESIAN_POINT('',(71.5,-28.9946761369071,13.368747548893));
#407=CARTESIAN_POINT('',(71.5,-29.0976282788276,13.926268335862));
#408=CARTESIAN_POINT('Origin',(71.5,-29.4511816694208,13.5727149452687));
#409=CARTESIAN_POINT('',(70.5,-29.0976282788276,13.926268335862));
#410=CARTESIAN_POINT('',(70.5,-29.0976282788276,13.926268335862));
#411=CARTESIAN_POINT('',(70.5,-28.9946761369071,13.368747548893));
#412=CARTESIAN_POINT('Origin',(70.5,-29.4511816694208,13.5727149452687));
#413=CARTESIAN_POINT('',(70.5,-28.9946761369071,13.368747548893));
#414=CARTESIAN_POINT('Origin',(70.5,-29.6144001524604,14.4430402094948));
#415=CARTESIAN_POINT('',(71.5,-29.6144001524604,14.4430402094948));
#416=CARTESIAN_POINT('',(71.5,-28.7954940432544,13.6241341002888));
#417=CARTESIAN_POINT('',(70.5,-29.6144001524604,14.4430402094948));
#418=CARTESIAN_POINT('',(70.5,-29.6144001524604,14.4430402094948));
#419=CARTESIAN_POINT('',(70.5,-28.7954940432544,13.6241341002888));
#420=CARTESIAN_POINT('Origin',(70.5,-27.6834147164545,15.340481898235));
#421=CARTESIAN_POINT('',(70.5,-27.4794473200788,14.8839763657213));
#422=CARTESIAN_POINT('',(70.5,-28.0369681070478,14.9869285076418));
#423=CARTESIAN_POINT('Origin',(70.5,-27.6834147164545,15.340481898235));
#424=CARTESIAN_POINT('',(71.5,-28.0369681070478,14.9869285076418));
#425=CARTESIAN_POINT('',(70.5,-28.0369681070478,14.9869285076418));
#426=CARTESIAN_POINT('',(71.5,-27.4794473200788,14.8839763657213));
#427=CARTESIAN_POINT('Origin',(71.5,-27.6834147164545,15.340481898235));
#428=CARTESIAN_POINT('',(70.5,-27.4794473200788,14.8839763657213));
#429=CARTESIAN_POINT('Origin',(70.5,-27.7348338714746,14.6847942720686));
#430=CARTESIAN_POINT('',(70.5,-28.5537399806806,15.5037003812746));
#431=CARTESIAN_POINT('',(70.5,-28.5537399806806,15.5037003812746));
#432=CARTESIAN_POINT('',(71.5,-28.5537399806806,15.5037003812746));
#433=CARTESIAN_POINT('',(70.5,-28.5537399806806,15.5037003812746));
#434=CARTESIAN_POINT('',(71.5,-28.5537399806806,15.5037003812746));
#435=CARTESIAN_POINT('Origin',(70.5,-28.9072933712739,15.5037003812746));
#436=CARTESIAN_POINT('',(70.5,-29.6144001524604,14.7965936000881));
#437=CARTESIAN_POINT('',(70.5,-28.9072933712739,15.5037003812746));
#438=CARTESIAN_POINT('',(70.5,-29.6144001524604,14.7965936000881));
#439=CARTESIAN_POINT('',(71.5,-29.6144001524604,14.7965936000881));
#440=CARTESIAN_POINT('',(70.5,-29.6144001524604,14.7965936000881));
#441=CARTESIAN_POINT('',(71.5,-28.9072933712739,15.5037003812746));
#442=CARTESIAN_POINT('',(71.5,-29.6144001524604,14.7965936000881));
#443=CARTESIAN_POINT('',(70.5,-28.9072933712739,15.5037003812746));
#444=CARTESIAN_POINT('Origin',(70.5,-28.7305166759772,15.326923685978));
#445=CARTESIAN_POINT('Origin',(70.5,-28.7305166759772,15.326923685978));
#446=CARTESIAN_POINT('Origin',(71.5,-28.7305166759772,15.326923685978));
#447=CARTESIAN_POINT('Origin',(70.5,-29.4376234571638,14.6198169047914));
#448=CARTESIAN_POINT('Origin',(70.5,-29.4376234571638,14.6198169047914));
#449=CARTESIAN_POINT('Origin',(71.5,-29.4376234571638,14.6198169047914));
#450=CARTESIAN_POINT('Origin',(70.5,-26.2556429418243,12.3949431706385));
#451=CARTESIAN_POINT('',(70.5,-24.5973305466466,9.64494317063851));
#452=CARTESIAN_POINT('Origin',(70.5,-26.2556429418243,12.1449431706385));
#453=CARTESIAN_POINT('',(70.5,-27.913955337002,9.64494317063851));
#454=CARTESIAN_POINT('',(70.5,-24.5973305466466,9.64494317063851));
#455=CARTESIAN_POINT('Origin',(70.5,-26.2556429418243,12.1449431706385));
#456=CARTESIAN_POINT('Origin',(70.5,-26.2556429418243,12.1449431706385));
#457=CARTESIAN_POINT('',(71.5,-24.5973305466466,9.64494317063851));
#458=CARTESIAN_POINT('Origin',(71.5,-26.2556429418243,12.1449431706385));
#459=CARTESIAN_POINT('',(70.5,-24.5973305466466,9.64494317063851));
#460=CARTESIAN_POINT('Origin',(72.5,-26.2556429418243,12.1449431706385));
#461=CARTESIAN_POINT('',(72.5,-27.2556429418243,12.1449431706385));
#462=CARTESIAN_POINT('Origin',(72.5,-26.2556429418243,12.1449431706385));
#463=CARTESIAN_POINT('',(71.75,-27.2556429418243,12.1449431706385));
#464=CARTESIAN_POINT('',(72.5,-27.2556429418243,12.1449431706385));
#465=CARTESIAN_POINT('Origin',(71.75,-26.2556429418243,12.1449431706385));
#466=CARTESIAN_POINT('Origin',(71.75,-26.2556429418243,12.1449431706385));
#467=CARTESIAN_POINT('Origin',(71.5,-26.2556429418243,12.1449431706385));
#468=CARTESIAN_POINT('',(72.5,-28.7556429418243,12.1449431706385));
#469=CARTESIAN_POINT('Origin',(72.5,-26.2556429418243,12.1449431706385));
#470=CARTESIAN_POINT('',(71.5,-28.7556429418243,12.1449431706385));
#471=CARTESIAN_POINT('',(71.5,-28.7556429418243,12.1449431706385));
#472=CARTESIAN_POINT('',(71.5,-26.2556429418243,9.64494317063851));
#473=CARTESIAN_POINT('Origin',(71.5,-26.2556429418243,12.1449431706385));
#474=CARTESIAN_POINT('Origin',(71.5,-26.2556429418243,12.1449431706385));
#475=CARTESIAN_POINT('Origin',(72.5,-26.2556429418243,12.1449431706385));
#476=CARTESIAN_POINT('Origin',(71.5,-26.2556429418243,12.3949431706385));
#477=CARTESIAN_POINT('',(71.5,-27.913955337002,9.64494317063851));
#478=CARTESIAN_POINT('Origin',(71.5,-26.2556429418243,12.1449431706385));
#479=CARTESIAN_POINT('',(71.5,-24.5973305466466,9.64494317063851));
#480=CARTESIAN_POINT('',(71.5,-24.5973305466466,9.64494317063851));
#481=CARTESIAN_POINT('Origin',(70.5,-27.913955337002,9.64494317063851));
#482=CARTESIAN_POINT('',(70.5,-27.913955337002,9.64494317063851));
#483=CARTESIAN_POINT('Origin',(70.5,-26.2556429418243,12.1449431706385));
#484=UNCERTAINTY_MEASURE_WITH_UNIT(LENGTH_MEASURE(0.01),#488,
'DISTANCE_ACCURACY_VALUE',
'Maximum model space distance between geometric entities at asserted c
onnectivities');
#485=UNCERTAINTY_MEASURE_WITH_UNIT(LENGTH_MEASURE(0.01),#488,
'DISTANCE_ACCURACY_VALUE',
'Maximum model space distance between geometric entities at asserted c
onnectivities');
#486=(
GEOMETRIC_REPRESENTATION_CONTEXT(3)
GLOBAL_UNCERTAINTY_ASSIGNED_CONTEXT((#484))
GLOBAL_UNIT_ASSIGNED_CONTEXT((#488,#489,#490))
REPRESENTATION_CONTEXT('','3D')
);
#487=(
GEOMETRIC_REPRESENTATION_CONTEXT(3)
GLOBAL_UNCERTAINTY_ASSIGNED_CONTEXT((#485))
GLOBAL_UNIT_ASSIGNED_CONTEXT((#488,#489,#490))
REPRESENTATION_CONTEXT('','3D')
);
#488=(
LENGTH_UNIT()
NAMED_UNIT(*)
SI_UNIT(.MILLI.,.METRE.)
);
#489=(
NAMED_UNIT(*)
PLANE_ANGLE_UNIT()
SI_UNIT($,.RADIAN.)
);
#490=(
NAMED_UNIT(*)
SI_UNIT($,.STERADIAN.)
SOLID_ANGLE_UNIT()
);
#491=SHAPE_DEFINITION_REPRESENTATION(#492,#493);
#492=PRODUCT_DEFINITION_SHAPE('',$,#495);
#493=SHAPE_REPRESENTATION('',(#281),#486);
#494=PRODUCT_DEFINITION_CONTEXT('part definition',#499,'design');
#495=PRODUCT_DEFINITION('Xii-Boy Ultra','Xii-Boy Ultra v221',#496,#494);
#496=PRODUCT_DEFINITION_FORMATION('',$,#501);
#497=PRODUCT_RELATED_PRODUCT_CATEGORY('Xii-Boy Ultra v221',
'Xii-Boy Ultra v221',(#501));
#498=APPLICATION_PROTOCOL_DEFINITION('international standard',
'automotive_design',2009,#499);
#499=APPLICATION_CONTEXT(
'Core Data for Automotive Mechanical Design Process');
#500=PRODUCT_CONTEXT('part definition',#499,'mechanical');
#501=PRODUCT('Xii-Boy Ultra','Xii-Boy Ultra v221',$,(#500));
#502=PRESENTATION_STYLE_ASSIGNMENT((#536));
#503=PRESENTATION_STYLE_ASSIGNMENT((#537));
#504=PRESENTATION_STYLE_ASSIGNMENT((#538));
#505=PRESENTATION_STYLE_ASSIGNMENT((#539));
#506=PRESENTATION_STYLE_ASSIGNMENT((#540));
#507=PRESENTATION_STYLE_ASSIGNMENT((#541));
#508=PRESENTATION_STYLE_ASSIGNMENT((#542));
#509=PRESENTATION_STYLE_ASSIGNMENT((#543));
#510=PRESENTATION_STYLE_ASSIGNMENT((#544));
#511=PRESENTATION_STYLE_ASSIGNMENT((#545));
#512=PRESENTATION_STYLE_ASSIGNMENT((#546));
#513=PRESENTATION_STYLE_ASSIGNMENT((#547));
#514=PRESENTATION_STYLE_ASSIGNMENT((#548));
#515=PRESENTATION_STYLE_ASSIGNMENT((#549));
#516=PRESENTATION_STYLE_ASSIGNMENT((#550));
#517=PRESENTATION_STYLE_ASSIGNMENT((#551));
#518=PRESENTATION_STYLE_ASSIGNMENT((#552));
#519=PRESENTATION_STYLE_ASSIGNMENT((#553));
#520=PRESENTATION_STYLE_ASSIGNMENT((#554));
#521=PRESENTATION_STYLE_ASSIGNMENT((#555));
#522=PRESENTATION_STYLE_ASSIGNMENT((#556));
#523=PRESENTATION_STYLE_ASSIGNMENT((#557));
#524=PRESENTATION_STYLE_ASSIGNMENT((#558));
#525=PRESENTATION_STYLE_ASSIGNMENT((#559));
#526=PRESENTATION_STYLE_ASSIGNMENT((#560));
#527=PRESENTATION_STYLE_ASSIGNMENT((#561));
#528=PRESENTATION_STYLE_ASSIGNMENT((#562));
#529=PRESENTATION_STYLE_ASSIGNMENT((#563));
#530=PRESENTATION_STYLE_ASSIGNMENT((#564));
#531=PRESENTATION_STYLE_ASSIGNMENT((#565));
#532=PRESENTATION_STYLE_ASSIGNMENT((#566));
#533=PRESENTATION_STYLE_ASSIGNMENT((#567));
#534=PRESENTATION_STYLE_ASSIGNMENT((#568));
#535=PRESENTATION_STYLE_ASSIGNMENT((#569));
#536=SURFACE_STYLE_USAGE(.BOTH.,#570);
#537=SURFACE_STYLE_USAGE(.BOTH.,#571);
#538=SURFACE_STYLE_USAGE(.BOTH.,#572);
#539=SURFACE_STYLE_USAGE(.BOTH.,#573);
#540=SURFACE_STYLE_USAGE(.BOTH.,#574);
#541=SURFACE_STYLE_USAGE(.BOTH.,#575);
#542=SURFACE_STYLE_USAGE(.BOTH.,#576);
#543=SURFACE_STYLE_USAGE(.BOTH.,#577);
#544=SURFACE_STYLE_USAGE(.BOTH.,#578);
#545=SURFACE_STYLE_USAGE(.BOTH.,#579);
#546=SURFACE_STYLE_USAGE(.BOTH.,#580);
#547=SURFACE_STYLE_USAGE(.BOTH.,#581);
#548=SURFACE_STYLE_USAGE(.BOTH.,#582);
#549=SURFACE_STYLE_USAGE(.BOTH.,#583);
#550=SURFACE_STYLE_USAGE(.BOTH.,#584);
#551=SURFACE_STYLE_USAGE(.BOTH.,#585);
#552=SURFACE_STYLE_USAGE(.BOTH.,#586);
#553=SURFACE_STYLE_USAGE(.BOTH.,#587);
#554=SURFACE_STYLE_USAGE(.BOTH.,#588);
#555=SURFACE_STYLE_USAGE(.BOTH.,#589);
#556=SURFACE_STYLE_USAGE(.BOTH.,#590);
#557=SURFACE_STYLE_USAGE(.BOTH.,#591);
#558=SURFACE_STYLE_USAGE(.BOTH.,#592);
#559=SURFACE_STYLE_USAGE(.BOTH.,#593);
#560=SURFACE_STYLE_USAGE(.BOTH.,#594);
#561=SURFACE_STYLE_USAGE(.BOTH.,#595);
#562=SURFACE_STYLE_USAGE(.BOTH.,#596);
#563=SURFACE_STYLE_USAGE(.BOTH.,#597);
#564=SURFACE_STYLE_USAGE(.BOTH.,#598);
#565=SURFACE_STYLE_USAGE(.BOTH.,#599);
#566=SURFACE_STYLE_USAGE(.BOTH.,#600);
#567=SURFACE_STYLE_USAGE(.BOTH.,#601);
#568=SURFACE_STYLE_USAGE(.BOTH.,#602);
#569=SURFACE_STYLE_USAGE(.BOTH.,#603);
#570=SURFACE_SIDE_STYLE('',(#604));
#571=SURFACE_SIDE_STYLE('',(#605));
#572=SURFACE_SIDE_STYLE('',(#606));
#573=SURFACE_SIDE_STYLE('',(#607));
#574=SURFACE_SIDE_STYLE('',(#608));
#575=SURFACE_SIDE_STYLE('',(#609));
#576=SURFACE_SIDE_STYLE('',(#610));
#577=SURFACE_SIDE_STYLE('',(#611));
#578=SURFACE_SIDE_STYLE('',(#612));
#579=SURFACE_SIDE_STYLE('',(#613));
#580=SURFACE_SIDE_STYLE('',(#614));
#581=SURFACE_SIDE_STYLE('',(#615));
#582=SURFACE_SIDE_STYLE('',(#616));
#583=SURFACE_SIDE_STYLE('',(#617));
#584=SURFACE_SIDE_STYLE('',(#618));
#585=SURFACE_SIDE_STYLE('',(#619));
#586=SURFACE_SIDE_STYLE('',(#620));
#587=SURFACE_SIDE_STYLE('',(#621));
#588=SURFACE_SIDE_STYLE('',(#622));
#589=SURFACE_SIDE_STYLE('',(#623));
#590=SURFACE_SIDE_STYLE('',(#624));
#591=SURFACE_SIDE_STYLE('',(#625));
#592=SURFACE_SIDE_STYLE('',(#626));
#593=SURFACE_SIDE_STYLE('',(#627));
#594=SURFACE_SIDE_STYLE('',(#628));
#595=SURFACE_SIDE_STYLE('',(#629));
#596=SURFACE_SIDE_STYLE('',(#630));
#597=SURFACE_SIDE_STYLE('',(#631));
#598=SURFACE_SIDE_STYLE('',(#632));
#599=SURFACE_SIDE_STYLE('',(#633));
#600=SURFACE_SIDE_STYLE('',(#634));
#601=SURFACE_SIDE_STYLE('',(#635));
#602=SURFACE_SIDE_STYLE('',(#636));
#603=SURFACE_SIDE_STYLE('',(#637));
#604=SURFACE_STYLE_FILL_AREA(#638);
#605=SURFACE_STYLE_FILL_AREA(#639);
#606=SURFACE_STYLE_FILL_AREA(#640);
#607=SURFACE_STYLE_FILL_AREA(#641);
#608=SURFACE_STYLE_FILL_AREA(#642);
#609=SURFACE_STYLE_FILL_AREA(#643);
#610=SURFACE_STYLE_FILL_AREA(#644);
#611=SURFACE_STYLE_FILL_AREA(#645);
#612=SURFACE_STYLE_FILL_AREA(#646);
#613=SURFACE_STYLE_FILL_AREA(#647);
#614=SURFACE_STYLE_FILL_AREA(#648);
#615=SURFACE_STYLE_FILL_AREA(#649);
#616=SURFACE_STYLE_FILL_AREA(#650);
#617=SURFACE_STYLE_FILL_AREA(#651);
#618=SURFACE_STYLE_FILL_AREA(#652);
#619=SURFACE_STYLE_FILL_AREA(#653);
#620=SURFACE_STYLE_FILL_AREA(#654);
#621=SURFACE_STYLE_FILL_AREA(#655);
#622=SURFACE_STYLE_FILL_AREA(#656);
#623=SURFACE_STYLE_FILL_AREA(#657);
#624=SURFACE_STYLE_FILL_AREA(#658);
#625=SURFACE_STYLE_FILL_AREA(#659);
#626=SURFACE_STYLE_FILL_AREA(#660);
#627=SURFACE_STYLE_FILL_AREA(#661);
#628=SURFACE_STYLE_FILL_AREA(#662);
#629=SURFACE_STYLE_FILL_AREA(#663);
#630=SURFACE_STYLE_FILL_AREA(#664);
#631=SURFACE_STYLE_FILL_AREA(#665);
#632=SURFACE_STYLE_FILL_AREA(#666);
#633=SURFACE_STYLE_FILL_AREA(#667);
#634=SURFACE_STYLE_FILL_AREA(#668);
#635=SURFACE_STYLE_FILL_AREA(#669);
#636=SURFACE_STYLE_FILL_AREA(#670);
#637=SURFACE_STYLE_FILL_AREA(#671);
#638=FILL_AREA_STYLE('Opaque(80,124,105)',(#672));
#639=FILL_AREA_STYLE('Opaque(50,50,50)',(#673));
#640=FILL_AREA_STYLE('Opaque(218,205,0)',(#674));
#641=FILL_AREA_STYLE('Opaque(52,52,52)',(#675));
#642=FILL_AREA_STYLE('Opaque(191,191,191)',(#676));
#643=FILL_AREA_STYLE('Opaque(15,102,15)',(#677));
#644=FILL_AREA_STYLE('Opaque(202,209,238)',(#678));
#645=FILL_AREA_STYLE('Opaque(255,255,255)',(#679));
#646=FILL_AREA_STYLE('Opaque(152,170,175)',(#680));
#647=FILL_AREA_STYLE('Opaque(204,203,178)',(#681));
#648=FILL_AREA_STYLE('Opaque(234,234,234)',(#682));
#649=FILL_AREA_STYLE('Opaque(69,69,69)',(#683));
#650=FILL_AREA_STYLE('Opaque(64,64,64)',(#684));
#651=FILL_AREA_STYLE('Opaque(225,225,225)',(#685));
#652=FILL_AREA_STYLE('Opaque(25,25,25)',(#686));
#653=FILL_AREA_STYLE('Opaque(211,84,18)',(#687));
#654=FILL_AREA_STYLE('Opaque(70,70,70)',(#688));
#655=FILL_AREA_STYLE('Opaque(219,219,219)',(#689));
#656=FILL_AREA_STYLE('Opaque(204,204,204)',(#690));
#657=FILL_AREA_STYLE('Opaque(160,160,160)',(#691));
#658=FILL_AREA_STYLE('Opaque(220,220,220)',(#692));
#659=FILL_AREA_STYLE('Opaque(63,63,63)',(#693));
#660=FILL_AREA_STYLE('Opaque(176,176,176)',(#694));
#661=FILL_AREA_STYLE('Powder Coat - Rough (Dark Grey)',(#695));
#662=FILL_AREA_STYLE('Opaque(21,22,24)',(#696));
#663=FILL_AREA_STYLE('Aluminum - Polished',(#697));
#664=FILL_AREA_STYLE('Gold - Polished',(#698));
#665=FILL_AREA_STYLE('Steel - Satin',(#699));
#666=FILL_AREA_STYLE('Opaque(246,246,243)',(#700));
#667=FILL_AREA_STYLE('Plastic - Glossy (Black)',(#701));
#668=FILL_AREA_STYLE('Copper - Polished',(#702));
#669=FILL_AREA_STYLE('Aluminum - Anodized Rough (Red)',(#703));
#670=FILL_AREA_STYLE('Glass (Clear)',(#704));
#671=FILL_AREA_STYLE('Opaque(243,243,243)',(#705));
#672=FILL_AREA_STYLE_COLOUR('Opaque(80,124,105)',#706);
#673=FILL_AREA_STYLE_COLOUR('Opaque(50,50,50)',#707);
#674=FILL_AREA_STYLE_COLOUR('Opaque(218,205,0)',#708);
#675=FILL_AREA_STYLE_COLOUR('Opaque(52,52,52)',#709);
#676=FILL_AREA_STYLE_COLOUR('Opaque(191,191,191)',#710);
#677=FILL_AREA_STYLE_COLOUR('Opaque(15,102,15)',#711);
#678=FILL_AREA_STYLE_COLOUR('Opaque(202,209,238)',#712);
#679=FILL_AREA_STYLE_COLOUR('Opaque(255,255,255)',#713);
#680=FILL_AREA_STYLE_COLOUR('Opaque(152,170,175)',#714);
#681=FILL_AREA_STYLE_COLOUR('Opaque(204,203,178)',#715);
#682=FILL_AREA_STYLE_COLOUR('Opaque(234,234,234)',#716);
#683=FILL_AREA_STYLE_COLOUR('Opaque(69,69,69)',#717);
#684=FILL_AREA_STYLE_COLOUR('Opaque(64,64,64)',#718);
#685=FILL_AREA_STYLE_COLOUR('Opaque(225,225,225)',#719);
#686=FILL_AREA_STYLE_COLOUR('Opaque(25,25,25)',#720);
#687=FILL_AREA_STYLE_COLOUR('Opaque(211,84,18)',#721);
#688=FILL_AREA_STYLE_COLOUR('Opaque(70,70,70)',#722);
#689=FILL_AREA_STYLE_COLOUR('Opaque(219,219,219)',#723);
#690=FILL_AREA_STYLE_COLOUR('Opaque(204,204,204)',#724);
#691=FILL_AREA_STYLE_COLOUR('Opaque(160,160,160)',#725);
#692=FILL_AREA_STYLE_COLOUR('Opaque(220,220,220)',#726);
#693=FILL_AREA_STYLE_COLOUR('Opaque(63,63,63)',#727);
#694=FILL_AREA_STYLE_COLOUR('Opaque(176,176,176)',#728);
#695=FILL_AREA_STYLE_COLOUR('Powder Coat - Rough (Dark Grey)',#729);
#696=FILL_AREA_STYLE_COLOUR('Opaque(21,22,24)',#730);
#697=FILL_AREA_STYLE_COLOUR('Aluminum - Polished',#731);
#698=FILL_AREA_STYLE_COLOUR('Gold - Polished',#732);
#699=FILL_AREA_STYLE_COLOUR('Steel - Satin',#733);
#700=FILL_AREA_STYLE_COLOUR('Opaque(246,246,243)',#734);
#701=FILL_AREA_STYLE_COLOUR('Plastic - Glossy (Black)',#735);
#702=FILL_AREA_STYLE_COLOUR('Copper - Polished',#736);
#703=FILL_AREA_STYLE_COLOUR('Aluminum - Anodized Rough (Red)',#737);
#704=FILL_AREA_STYLE_COLOUR('Glass (Clear)',#738);
#705=FILL_AREA_STYLE_COLOUR('Opaque(243,243,243)',#739);
#706=COLOUR_RGB('Opaque(80,124,105)',0.313725490196078,0.486274509803922,
0.411764705882353);
#707=COLOUR_RGB('Opaque(50,50,50)',0.196078431372549,0.196078431372549,
0.196078431372549);
#708=COLOUR_RGB('Opaque(218,205,0)',0.854901960784314,0.803921568627451,
0.);
#709=COLOUR_RGB('Opaque(52,52,52)',0.203921568627451,0.203921568627451,
0.203921568627451);
#710=COLOUR_RGB('Opaque(191,191,191)',0.749019607843137,0.749019607843137,
0.749019607843137);
#711=COLOUR_RGB('Opaque(15,102,15)',0.0588235294117647,0.4,0.0588235294117647);
#712=COLOUR_RGB('Opaque(202,209,238)',0.792156862745098,0.819607843137255,
0.933333333333333);
#713=COLOUR_RGB('Opaque(255,255,255)',1.,1.,1.);
#714=COLOUR_RGB('Opaque(152,170,175)',0.596078431372549,0.666666666666667,
0.686274509803922);
#715=COLOUR_RGB('Opaque(204,203,178)',0.8,0.796078431372549,0.698039215686274);
#716=COLOUR_RGB('Opaque(234,234,234)',0.917647058823529,0.917647058823529,
0.917647058823529);
#717=COLOUR_RGB('Opaque(69,69,69)',0.270588235294118,0.270588235294118,
0.270588235294118);
#718=COLOUR_RGB('Opaque(64,64,64)',0.250980392156863,0.250980392156863,
0.250980392156863);
#719=COLOUR_RGB('Opaque(225,225,225)',0.882352941176471,0.882352941176471,
0.882352941176471);
#720=COLOUR_RGB('Opaque(25,25,25)',0.0980392156862745,0.0980392156862745,
0.0980392156862745);
#721=COLOUR_RGB('Opaque(211,84,18)',0.827450980392157,0.329411764705882,
0.0705882352941176);
#722=COLOUR_RGB('Opaque(70,70,70)',0.274509803921569,0.274509803921569,
0.274509803921569);
#723=COLOUR_RGB('Opaque(219,219,219)',0.858823529411765,0.858823529411765,
0.858823529411765);
#724=COLOUR_RGB('Opaque(204,204,204)',0.8,0.8,0.8);
#725=COLOUR_RGB('Opaque(160,160,160)',0.627450980392157,0.627450980392157,
0.627450980392157);
#726=COLOUR_RGB('Opaque(220,220,220)',0.862745098039216,0.862745098039216,
0.862745098039216);
#727=COLOUR_RGB('Opaque(63,63,63)',0.250980392156863,0.250980392156863,
0.250980392156863);
#728=COLOUR_RGB('Opaque(176,176,176)',0.690196078431373,0.690196078431373,
0.690196078431373);
#729=COLOUR_RGB('Powder Coat - Rough (Dark Grey)',0.349019607843137,0.349019607843137,
0.349019607843137);
#730=COLOUR_RGB('Opaque(21,22,24)',0.0823529411764706,0.0862745098039216,
0.0941176470588235);
#731=COLOUR_RGB('Aluminum - Polished',0.96078431372549,0.96078431372549,
0.964705882352941);
#732=COLOUR_RGB('Gold - Polished',0.956862745098039,0.898039215686275,0.654901960784314);
#733=COLOUR_RGB('Steel - Satin',0.627450980392157,0.627450980392157,0.627450980392157);
#734=COLOUR_RGB('Opaque(246,246,243)',0.964705882352941,0.964705882352941,
0.952941176470588);
#735=COLOUR_RGB('Plastic - Glossy (Black)',0.0980392156862745,0.0980392156862745,
0.0980392156862745);
#736=COLOUR_RGB('Copper - Polished',0.929411764705882,0.807843137254902,
0.764705882352941);
#737=COLOUR_RGB('Aluminum - Anodized Rough (Red)',0.854901960784314,0.349019607843137,
0.349019607843137);
#738=COLOUR_RGB('Glass (Clear)',0.964705882352941,0.964705882352941,0.952941176470588);
#739=COLOUR_RGB('Opaque(243,243,243)',0.952941176470588,0.952941176470588,
0.952941176470588);
ENDSEC;
END-ISO-10303-21;
