ISO-10303-21;
HEADER;
/* Generated by software containing ST-Developer
 * from STEP Tools, Inc. (www.steptools.com) 
 */

FILE_DESCRIPTION(
/* description */ (''),
/* implementation_level */ '2;1');

FILE_NAME(
/* name */ 'Volume-Brightness.step',
/* time_stamp */ '2025-11-15T18:54:39+01:00',
/* author */ (''),
/* organization */ (''),
/* preprocessor_version */ 'ST-DEVELOPER v20.1',
/* originating_system */ 'Autodesk Translation Framework v14.21.0.0',
/* authorisation */ '');

FILE_SCHEMA (('AUTOMOTIVE_DESIGN { 1 0 10303 214 3 1 1 }'));
ENDSEC;

DATA;
#10=MECHANICAL_DESIGN_GEOMETRIC_PRESENTATION_REPRESENTATION('',(#17,#18,
#19),#1207);
#11=SHAPE_REPRESENTATION_RELATIONSHIP('SRR','None',#1213,#12);
#12=ADVANCED_BREP_SHAPE_REPRESENTATION('',(#13),#1206);
#13=MANIFOLD_SOLID_BREP('Volume',#743);
#14=FACE_BOUND('',#118,.T.);
#15=FACE_BOUND('',#122,.T.);
#16=FACE_BOUND('',#132,.T.);
#17=STYLED_ITEM('',(#1250),#715);
#18=STYLED_ITEM('',(#1250),#728);
#19=STYLED_ITEM('',(#1223),#13);
#20=PLANE('',#748);
#21=PLANE('',#752);
#22=PLANE('',#753);
#23=PLANE('',#760);
#24=PLANE('',#761);
#25=PLANE('',#762);
#26=PLANE('',#763);
#27=PLANE('',#764);
#28=PLANE('',#765);
#29=PLANE('',#766);
#30=PLANE('',#767);
#31=PLANE('',#768);
#32=PLANE('',#769);
#33=PLANE('',#770);
#34=PLANE('',#771);
#35=PLANE('',#772);
#36=PLANE('',#773);
#37=PLANE('',#774);
#38=PLANE('',#775);
#39=PLANE('',#776);
#40=PLANE('',#777);
#41=PLANE('',#778);
#42=PLANE('',#779);
#43=PLANE('',#781);
#44=PLANE('',#782);
#45=PLANE('',#783);
#46=PLANE('',#785);
#47=PLANE('',#786);
#48=PLANE('',#791);
#49=PLANE('',#795);
#50=PLANE('',#796);
#51=PLANE('',#797);
#52=FACE_OUTER_BOUND('',#91,.T.);
#53=FACE_OUTER_BOUND('',#92,.T.);
#54=FACE_OUTER_BOUND('',#93,.T.);
#55=FACE_OUTER_BOUND('',#94,.T.);
#56=FACE_OUTER_BOUND('',#95,.T.);
#57=FACE_OUTER_BOUND('',#96,.T.);
#58=FACE_OUTER_BOUND('',#97,.T.);
#59=FACE_OUTER_BOUND('',#98,.T.);
#60=FACE_OUTER_BOUND('',#99,.T.);
#61=FACE_OUTER_BOUND('',#100,.T.);
#62=FACE_OUTER_BOUND('',#101,.T.);
#63=FACE_OUTER_BOUND('',#102,.T.);
#64=FACE_OUTER_BOUND('',#103,.T.);
#65=FACE_OUTER_BOUND('',#104,.T.);
#66=FACE_OUTER_BOUND('',#105,.T.);
#67=FACE_OUTER_BOUND('',#106,.T.);
#68=FACE_OUTER_BOUND('',#107,.T.);
#69=FACE_OUTER_BOUND('',#108,.T.);
#70=FACE_OUTER_BOUND('',#109,.T.);
#71=FACE_OUTER_BOUND('',#110,.T.);
#72=FACE_OUTER_BOUND('',#111,.T.);
#73=FACE_OUTER_BOUND('',#112,.T.);
#74=FACE_OUTER_BOUND('',#113,.T.);
#75=FACE_OUTER_BOUND('',#114,.T.);
#76=FACE_OUTER_BOUND('',#115,.T.);
#77=FACE_OUTER_BOUND('',#116,.T.);
#78=FACE_OUTER_BOUND('',#117,.T.);
#79=FACE_OUTER_BOUND('',#119,.T.);
#80=FACE_OUTER_BOUND('',#120,.T.);
#81=FACE_OUTER_BOUND('',#121,.T.);
#82=FACE_OUTER_BOUND('',#123,.T.);
#83=FACE_OUTER_BOUND('',#124,.T.);
#84=FACE_OUTER_BOUND('',#125,.T.);
#85=FACE_OUTER_BOUND('',#126,.T.);
#86=FACE_OUTER_BOUND('',#127,.T.);
#87=FACE_OUTER_BOUND('',#128,.T.);
#88=FACE_OUTER_BOUND('',#129,.T.);
#89=FACE_OUTER_BOUND('',#130,.T.);
#90=FACE_OUTER_BOUND('',#131,.T.);
#91=EDGE_LOOP('',(#493,#494,#495,#496));
#92=EDGE_LOOP('',(#497,#498,#499,#500));
#93=EDGE_LOOP('',(#501,#502,#503,#504));
#94=EDGE_LOOP('',(#505,#506,#507,#508));
#95=EDGE_LOOP('',(#509,#510,#511,#512));
#96=EDGE_LOOP('',(#513,#514,#515,#516));
#97=EDGE_LOOP('',(#517,#518,#519,#520));
#98=EDGE_LOOP('',(#521,#522,#523,#524));
#99=EDGE_LOOP('',(#525,#526,#527,#528));
#100=EDGE_LOOP('',(#529,#530,#531,#532));
#101=EDGE_LOOP('',(#533,#534,#535,#536));
#102=EDGE_LOOP('',(#537,#538,#539,#540));
#103=EDGE_LOOP('',(#541,#542,#543,#544));
#104=EDGE_LOOP('',(#545,#546,#547,#548));
#105=EDGE_LOOP('',(#549,#550,#551,#552));
#106=EDGE_LOOP('',(#553,#554,#555,#556));
#107=EDGE_LOOP('',(#557,#558,#559,#560));
#108=EDGE_LOOP('',(#561,#562,#563,#564));
#109=EDGE_LOOP('',(#565,#566,#567,#568));
#110=EDGE_LOOP('',(#569,#570,#571,#572));
#111=EDGE_LOOP('',(#573,#574,#575,#576));
#112=EDGE_LOOP('',(#577,#578,#579,#580));
#113=EDGE_LOOP('',(#581,#582,#583,#584));
#114=EDGE_LOOP('',(#585,#586,#587,#588));
#115=EDGE_LOOP('',(#589,#590,#591,#592,#593,#594,#595,#596,#597,#598,#599,
#600));
#116=EDGE_LOOP('',(#601,#602,#603,#604));
#117=EDGE_LOOP('',(#605,#606,#607,#608));
#118=EDGE_LOOP('',(#609,#610,#611,#612,#613,#614,#615,#616,#617,#618,#619,
#620));
#119=EDGE_LOOP('',(#621,#622,#623,#624,#625,#626,#627,#628));
#120=EDGE_LOOP('',(#629,#630,#631,#632));
#121=EDGE_LOOP('',(#633,#634,#635,#636));
#122=EDGE_LOOP('',(#637,#638,#639,#640));
#123=EDGE_LOOP('',(#641,#642,#643,#644));
#124=EDGE_LOOP('',(#645,#646,#647,#648,#649,#650,#651,#652));
#125=EDGE_LOOP('',(#653,#654,#655,#656));
#126=EDGE_LOOP('',(#657,#658,#659,#660));
#127=EDGE_LOOP('',(#661,#662,#663,#664));
#128=EDGE_LOOP('',(#665,#666,#667,#668));
#129=EDGE_LOOP('',(#669,#670,#671,#672));
#130=EDGE_LOOP('',(#673,#674,#675,#676,#677,#678,#679,#680,#681,#682));
#131=EDGE_LOOP('',(#683,#684,#685,#686,#687,#688,#689,#690,#691,#692));
#132=EDGE_LOOP('',(#693,#694,#695,#696));
#133=LINE('',#1000,#221);
#134=LINE('',#1003,#222);
#135=LINE('',#1006,#223);
#136=LINE('',#1008,#224);
#137=LINE('',#1009,#225);
#138=LINE('',#1015,#226);
#139=LINE('',#1018,#227);
#140=LINE('',#1020,#228);
#141=LINE('',#1021,#229);
#142=LINE('',#1024,#230);
#143=LINE('',#1026,#231);
#144=LINE('',#1027,#232);
#145=LINE('',#1032,#233);
#146=LINE('',#1038,#234);
#147=LINE('',#1043,#235);
#148=LINE('',#1045,#236);
#149=LINE('',#1047,#237);
#150=LINE('',#1048,#238);
#151=LINE('',#1051,#239);
#152=LINE('',#1053,#240);
#153=LINE('',#1054,#241);
#154=LINE('',#1057,#242);
#155=LINE('',#1059,#243);
#156=LINE('',#1060,#244);
#157=LINE('',#1062,#245);
#158=LINE('',#1063,#246);
#159=LINE('',#1068,#247);
#160=LINE('',#1070,#248);
#161=LINE('',#1072,#249);
#162=LINE('',#1073,#250);
#163=LINE('',#1076,#251);
#164=LINE('',#1078,#252);
#165=LINE('',#1079,#253);
#166=LINE('',#1082,#254);
#167=LINE('',#1084,#255);
#168=LINE('',#1085,#256);
#169=LINE('',#1088,#257);
#170=LINE('',#1090,#258);
#171=LINE('',#1091,#259);
#172=LINE('',#1094,#260);
#173=LINE('',#1096,#261);
#174=LINE('',#1097,#262);
#175=LINE('',#1100,#263);
#176=LINE('',#1102,#264);
#177=LINE('',#1103,#265);
#178=LINE('',#1106,#266);
#179=LINE('',#1108,#267);
#180=LINE('',#1109,#268);
#181=LINE('',#1112,#269);
#182=LINE('',#1114,#270);
#183=LINE('',#1115,#271);
#184=LINE('',#1118,#272);
#185=LINE('',#1120,#273);
#186=LINE('',#1121,#274);
#187=LINE('',#1124,#275);
#188=LINE('',#1126,#276);
#189=LINE('',#1127,#277);
#190=LINE('',#1130,#278);
#191=LINE('',#1132,#279);
#192=LINE('',#1133,#280);
#193=LINE('',#1135,#281);
#194=LINE('',#1136,#282);
#195=LINE('',#1141,#283);
#196=LINE('',#1143,#284);
#197=LINE('',#1145,#285);
#198=LINE('',#1146,#286);
#199=LINE('',#1149,#287);
#200=LINE('',#1152,#288);
#201=LINE('',#1155,#289);
#202=LINE('',#1157,#290);
#203=LINE('',#1159,#291);
#204=LINE('',#1161,#292);
#205=LINE('',#1163,#293);
#206=LINE('',#1164,#294);
#207=LINE('',#1168,#295);
#208=LINE('',#1169,#296);
#209=LINE('',#1170,#297);
#210=LINE('',#1173,#298);
#211=LINE('',#1176,#299);
#212=LINE('',#1179,#300);
#213=LINE('',#1181,#301);
#214=LINE('',#1182,#302);
#215=LINE('',#1189,#303);
#216=LINE('',#1191,#304);
#217=LINE('',#1192,#305);
#218=LINE('',#1198,#306);
#219=LINE('',#1200,#307);
#220=LINE('',#1201,#308);
#221=VECTOR('',#804,10.);
#222=VECTOR('',#807,10.);
#223=VECTOR('',#810,10.);
#224=VECTOR('',#811,10.);
#225=VECTOR('',#812,10.);
#226=VECTOR('',#819,10.);
#227=VECTOR('',#822,10.);
#228=VECTOR('',#823,10.);
#229=VECTOR('',#824,10.);
#230=VECTOR('',#827,10.);
#231=VECTOR('',#828,10.);
#232=VECTOR('',#829,10.);
#233=VECTOR('',#834,10.);
#234=VECTOR('',#841,10.);
#235=VECTOR('',#846,10.);
#236=VECTOR('',#847,10.);
#237=VECTOR('',#848,10.);
#238=VECTOR('',#849,10.);
#239=VECTOR('',#852,10.);
#240=VECTOR('',#853,10.);
#241=VECTOR('',#854,10.);
#242=VECTOR('',#857,10.);
#243=VECTOR('',#858,10.);
#244=VECTOR('',#859,10.);
#245=VECTOR('',#862,10.);
#246=VECTOR('',#863,10.);
#247=VECTOR('',#868,10.);
#248=VECTOR('',#869,10.);
#249=VECTOR('',#870,10.);
#250=VECTOR('',#871,10.);
#251=VECTOR('',#874,10.);
#252=VECTOR('',#875,10.);
#253=VECTOR('',#876,10.);
#254=VECTOR('',#879,10.);
#255=VECTOR('',#880,10.);
#256=VECTOR('',#881,10.);
#257=VECTOR('',#884,10.);
#258=VECTOR('',#885,10.);
#259=VECTOR('',#886,10.);
#260=VECTOR('',#889,10.);
#261=VECTOR('',#890,10.);
#262=VECTOR('',#891,10.);
#263=VECTOR('',#894,10.);
#264=VECTOR('',#895,10.);
#265=VECTOR('',#896,10.);
#266=VECTOR('',#899,10.);
#267=VECTOR('',#900,10.);
#268=VECTOR('',#901,10.);
#269=VECTOR('',#904,10.);
#270=VECTOR('',#905,10.);
#271=VECTOR('',#906,10.);
#272=VECTOR('',#909,10.);
#273=VECTOR('',#910,10.);
#274=VECTOR('',#911,10.);
#275=VECTOR('',#914,10.);
#276=VECTOR('',#915,10.);
#277=VECTOR('',#916,10.);
#278=VECTOR('',#919,10.);
#279=VECTOR('',#920,10.);
#280=VECTOR('',#921,10.);
#281=VECTOR('',#924,10.);
#282=VECTOR('',#925,10.);
#283=VECTOR('',#930,10.);
#284=VECTOR('',#931,10.);
#285=VECTOR('',#932,10.);
#286=VECTOR('',#933,10.);
#287=VECTOR('',#936,10.);
#288=VECTOR('',#939,10.);
#289=VECTOR('',#942,10.);
#290=VECTOR('',#943,10.);
#291=VECTOR('',#944,10.);
#292=VECTOR('',#945,10.);
#293=VECTOR('',#946,10.);
#294=VECTOR('',#947,10.);
#295=VECTOR('',#950,10.);
#296=VECTOR('',#951,10.);
#297=VECTOR('',#952,10.);
#298=VECTOR('',#955,10.);
#299=VECTOR('',#960,10.);
#300=VECTOR('',#963,10.);
#301=VECTOR('',#964,10.);
#302=VECTOR('',#965,10.);
#303=VECTOR('',#976,10.);
#304=VECTOR('',#977,10.);
#305=VECTOR('',#978,10.);
#306=VECTOR('',#985,10.);
#307=VECTOR('',#988,10.);
#308=VECTOR('',#989,10.);
#309=CIRCLE('',#746,0.249999999999999);
#310=CIRCLE('',#747,0.249999999999999);
#311=CIRCLE('',#750,0.249999999999999);
#312=CIRCLE('',#751,0.249999999999999);
#313=CIRCLE('',#755,3.5);
#314=CIRCLE('',#756,3.5);
#315=CIRCLE('',#758,3.5);
#316=CIRCLE('',#759,3.5);
#317=CIRCLE('',#780,3.);
#318=CIRCLE('',#784,3.);
#319=CIRCLE('',#788,3.);
#320=CIRCLE('',#790,3.);
#321=CIRCLE('',#793,3.5);
#322=CIRCLE('',#794,3.5);
#323=VERTEX_POINT('',#996);
#324=VERTEX_POINT('',#997);
#325=VERTEX_POINT('',#999);
#326=VERTEX_POINT('',#1001);
#327=VERTEX_POINT('',#1005);
#328=VERTEX_POINT('',#1007);
#329=VERTEX_POINT('',#1011);
#330=VERTEX_POINT('',#1013);
#331=VERTEX_POINT('',#1017);
#332=VERTEX_POINT('',#1019);
#333=VERTEX_POINT('',#1023);
#334=VERTEX_POINT('',#1025);
#335=VERTEX_POINT('',#1029);
#336=VERTEX_POINT('',#1031);
#337=VERTEX_POINT('',#1035);
#338=VERTEX_POINT('',#1037);
#339=VERTEX_POINT('',#1041);
#340=VERTEX_POINT('',#1042);
#341=VERTEX_POINT('',#1044);
#342=VERTEX_POINT('',#1046);
#343=VERTEX_POINT('',#1050);
#344=VERTEX_POINT('',#1052);
#345=VERTEX_POINT('',#1056);
#346=VERTEX_POINT('',#1058);
#347=VERTEX_POINT('',#1066);
#348=VERTEX_POINT('',#1067);
#349=VERTEX_POINT('',#1069);
#350=VERTEX_POINT('',#1071);
#351=VERTEX_POINT('',#1075);
#352=VERTEX_POINT('',#1077);
#353=VERTEX_POINT('',#1081);
#354=VERTEX_POINT('',#1083);
#355=VERTEX_POINT('',#1087);
#356=VERTEX_POINT('',#1089);
#357=VERTEX_POINT('',#1093);
#358=VERTEX_POINT('',#1095);
#359=VERTEX_POINT('',#1099);
#360=VERTEX_POINT('',#1101);
#361=VERTEX_POINT('',#1105);
#362=VERTEX_POINT('',#1107);
#363=VERTEX_POINT('',#1111);
#364=VERTEX_POINT('',#1113);
#365=VERTEX_POINT('',#1117);
#366=VERTEX_POINT('',#1119);
#367=VERTEX_POINT('',#1123);
#368=VERTEX_POINT('',#1125);
#369=VERTEX_POINT('',#1129);
#370=VERTEX_POINT('',#1131);
#371=VERTEX_POINT('',#1139);
#372=VERTEX_POINT('',#1140);
#373=VERTEX_POINT('',#1142);
#374=VERTEX_POINT('',#1144);
#375=VERTEX_POINT('',#1148);
#376=VERTEX_POINT('',#1150);
#377=VERTEX_POINT('',#1154);
#378=VERTEX_POINT('',#1156);
#379=VERTEX_POINT('',#1158);
#380=VERTEX_POINT('',#1160);
#381=VERTEX_POINT('',#1162);
#382=VERTEX_POINT('',#1166);
#383=VERTEX_POINT('',#1167);
#384=VERTEX_POINT('',#1172);
#385=VERTEX_POINT('',#1178);
#386=VERTEX_POINT('',#1180);
#387=VERTEX_POINT('',#1188);
#388=VERTEX_POINT('',#1190);
#389=VERTEX_POINT('',#1194);
#390=VERTEX_POINT('',#1196);
#391=EDGE_CURVE('',#323,#324,#309,.T.);
#392=EDGE_CURVE('',#323,#325,#133,.T.);
#393=EDGE_CURVE('',#326,#325,#310,.T.);
#394=EDGE_CURVE('',#324,#326,#134,.T.);
#395=EDGE_CURVE('',#327,#324,#135,.T.);
#396=EDGE_CURVE('',#328,#326,#136,.T.);
#397=EDGE_CURVE('',#327,#328,#137,.T.);
#398=EDGE_CURVE('',#327,#329,#311,.T.);
#399=EDGE_CURVE('',#330,#328,#312,.T.);
#400=EDGE_CURVE('',#329,#330,#138,.T.);
#401=EDGE_CURVE('',#331,#329,#139,.T.);
#402=EDGE_CURVE('',#332,#330,#140,.T.);
#403=EDGE_CURVE('',#331,#332,#141,.T.);
#404=EDGE_CURVE('',#323,#333,#142,.T.);
#405=EDGE_CURVE('',#334,#333,#143,.T.);
#406=EDGE_CURVE('',#325,#334,#144,.T.);
#407=EDGE_CURVE('',#332,#335,#313,.T.);
#408=EDGE_CURVE('',#335,#336,#145,.T.);
#409=EDGE_CURVE('',#331,#336,#314,.T.);
#410=EDGE_CURVE('',#337,#333,#315,.T.);
#411=EDGE_CURVE('',#338,#337,#146,.T.);
#412=EDGE_CURVE('',#338,#334,#316,.T.);
#413=EDGE_CURVE('',#339,#340,#147,.T.);
#414=EDGE_CURVE('',#339,#341,#148,.T.);
#415=EDGE_CURVE('',#341,#342,#149,.T.);
#416=EDGE_CURVE('',#340,#342,#150,.T.);
#417=EDGE_CURVE('',#343,#339,#151,.T.);
#418=EDGE_CURVE('',#343,#344,#152,.T.);
#419=EDGE_CURVE('',#344,#341,#153,.T.);
#420=EDGE_CURVE('',#345,#343,#154,.T.);
#421=EDGE_CURVE('',#345,#346,#155,.T.);
#422=EDGE_CURVE('',#346,#344,#156,.T.);
#423=EDGE_CURVE('',#340,#345,#157,.T.);
#424=EDGE_CURVE('',#342,#346,#158,.T.);
#425=EDGE_CURVE('',#347,#348,#159,.T.);
#426=EDGE_CURVE('',#347,#349,#160,.T.);
#427=EDGE_CURVE('',#349,#350,#161,.T.);
#428=EDGE_CURVE('',#348,#350,#162,.T.);
#429=EDGE_CURVE('',#351,#347,#163,.T.);
#430=EDGE_CURVE('',#351,#352,#164,.T.);
#431=EDGE_CURVE('',#352,#349,#165,.T.);
#432=EDGE_CURVE('',#353,#351,#166,.T.);
#433=EDGE_CURVE('',#353,#354,#167,.T.);
#434=EDGE_CURVE('',#354,#352,#168,.T.);
#435=EDGE_CURVE('',#355,#353,#169,.T.);
#436=EDGE_CURVE('',#355,#356,#170,.T.);
#437=EDGE_CURVE('',#356,#354,#171,.T.);
#438=EDGE_CURVE('',#357,#355,#172,.T.);
#439=EDGE_CURVE('',#357,#358,#173,.T.);
#440=EDGE_CURVE('',#358,#356,#174,.T.);
#441=EDGE_CURVE('',#359,#357,#175,.T.);
#442=EDGE_CURVE('',#359,#360,#176,.T.);
#443=EDGE_CURVE('',#360,#358,#177,.T.);
#444=EDGE_CURVE('',#361,#359,#178,.T.);
#445=EDGE_CURVE('',#361,#362,#179,.T.);
#446=EDGE_CURVE('',#362,#360,#180,.T.);
#447=EDGE_CURVE('',#363,#361,#181,.T.);
#448=EDGE_CURVE('',#363,#364,#182,.T.);
#449=EDGE_CURVE('',#364,#362,#183,.T.);
#450=EDGE_CURVE('',#365,#363,#184,.T.);
#451=EDGE_CURVE('',#365,#366,#185,.T.);
#452=EDGE_CURVE('',#366,#364,#186,.T.);
#453=EDGE_CURVE('',#367,#365,#187,.T.);
#454=EDGE_CURVE('',#367,#368,#188,.T.);
#455=EDGE_CURVE('',#368,#366,#189,.T.);
#456=EDGE_CURVE('',#369,#367,#190,.T.);
#457=EDGE_CURVE('',#369,#370,#191,.T.);
#458=EDGE_CURVE('',#370,#368,#192,.T.);
#459=EDGE_CURVE('',#348,#369,#193,.T.);
#460=EDGE_CURVE('',#350,#370,#194,.T.);
#461=EDGE_CURVE('',#371,#372,#195,.T.);
#462=EDGE_CURVE('',#372,#373,#196,.T.);
#463=EDGE_CURVE('',#373,#374,#197,.T.);
#464=EDGE_CURVE('',#374,#371,#198,.T.);
#465=EDGE_CURVE('',#372,#375,#199,.T.);
#466=EDGE_CURVE('',#375,#376,#317,.T.);
#467=EDGE_CURVE('',#376,#373,#200,.T.);
#468=EDGE_CURVE('',#371,#377,#201,.T.);
#469=EDGE_CURVE('',#378,#377,#202,.T.);
#470=EDGE_CURVE('',#379,#378,#203,.T.);
#471=EDGE_CURVE('',#380,#379,#204,.T.);
#472=EDGE_CURVE('',#381,#380,#205,.T.);
#473=EDGE_CURVE('',#381,#375,#206,.T.);
#474=EDGE_CURVE('',#382,#383,#207,.T.);
#475=EDGE_CURVE('',#383,#378,#208,.T.);
#476=EDGE_CURVE('',#377,#382,#209,.T.);
#477=EDGE_CURVE('',#383,#384,#210,.T.);
#478=EDGE_CURVE('',#384,#379,#318,.T.);
#479=EDGE_CURVE('',#382,#374,#211,.T.);
#480=EDGE_CURVE('',#385,#376,#212,.T.);
#481=EDGE_CURVE('',#386,#385,#213,.T.);
#482=EDGE_CURVE('',#386,#384,#214,.T.);
#483=EDGE_CURVE('',#385,#381,#319,.T.);
#484=EDGE_CURVE('',#380,#386,#320,.T.);
#485=EDGE_CURVE('',#338,#387,#215,.T.);
#486=EDGE_CURVE('',#388,#337,#216,.T.);
#487=EDGE_CURVE('',#387,#388,#217,.T.);
#488=EDGE_CURVE('',#389,#387,#321,.T.);
#489=EDGE_CURVE('',#390,#388,#322,.T.);
#490=EDGE_CURVE('',#389,#390,#218,.T.);
#491=EDGE_CURVE('',#335,#389,#219,.T.);
#492=EDGE_CURVE('',#336,#390,#220,.T.);
#493=ORIENTED_EDGE('',*,*,#391,.F.);
#494=ORIENTED_EDGE('',*,*,#392,.T.);
#495=ORIENTED_EDGE('',*,*,#393,.F.);
#496=ORIENTED_EDGE('',*,*,#394,.F.);
#497=ORIENTED_EDGE('',*,*,#395,.T.);
#498=ORIENTED_EDGE('',*,*,#394,.T.);
#499=ORIENTED_EDGE('',*,*,#396,.F.);
#500=ORIENTED_EDGE('',*,*,#397,.F.);
#501=ORIENTED_EDGE('',*,*,#398,.F.);
#502=ORIENTED_EDGE('',*,*,#397,.T.);
#503=ORIENTED_EDGE('',*,*,#399,.F.);
#504=ORIENTED_EDGE('',*,*,#400,.F.);
#505=ORIENTED_EDGE('',*,*,#401,.T.);
#506=ORIENTED_EDGE('',*,*,#400,.T.);
#507=ORIENTED_EDGE('',*,*,#402,.F.);
#508=ORIENTED_EDGE('',*,*,#403,.F.);
#509=ORIENTED_EDGE('',*,*,#404,.T.);
#510=ORIENTED_EDGE('',*,*,#405,.F.);
#511=ORIENTED_EDGE('',*,*,#406,.F.);
#512=ORIENTED_EDGE('',*,*,#392,.F.);
#513=ORIENTED_EDGE('',*,*,#403,.T.);
#514=ORIENTED_EDGE('',*,*,#407,.T.);
#515=ORIENTED_EDGE('',*,*,#408,.T.);
#516=ORIENTED_EDGE('',*,*,#409,.F.);
#517=ORIENTED_EDGE('',*,*,#405,.T.);
#518=ORIENTED_EDGE('',*,*,#410,.F.);
#519=ORIENTED_EDGE('',*,*,#411,.F.);
#520=ORIENTED_EDGE('',*,*,#412,.T.);
#521=ORIENTED_EDGE('',*,*,#413,.F.);
#522=ORIENTED_EDGE('',*,*,#414,.T.);
#523=ORIENTED_EDGE('',*,*,#415,.T.);
#524=ORIENTED_EDGE('',*,*,#416,.F.);
#525=ORIENTED_EDGE('',*,*,#417,.F.);
#526=ORIENTED_EDGE('',*,*,#418,.T.);
#527=ORIENTED_EDGE('',*,*,#419,.T.);
#528=ORIENTED_EDGE('',*,*,#414,.F.);
#529=ORIENTED_EDGE('',*,*,#420,.F.);
#530=ORIENTED_EDGE('',*,*,#421,.T.);
#531=ORIENTED_EDGE('',*,*,#422,.T.);
#532=ORIENTED_EDGE('',*,*,#418,.F.);
#533=ORIENTED_EDGE('',*,*,#423,.F.);
#534=ORIENTED_EDGE('',*,*,#416,.T.);
#535=ORIENTED_EDGE('',*,*,#424,.T.);
#536=ORIENTED_EDGE('',*,*,#421,.F.);
#537=ORIENTED_EDGE('',*,*,#424,.F.);
#538=ORIENTED_EDGE('',*,*,#415,.F.);
#539=ORIENTED_EDGE('',*,*,#419,.F.);
#540=ORIENTED_EDGE('',*,*,#422,.F.);
#541=ORIENTED_EDGE('',*,*,#425,.F.);
#542=ORIENTED_EDGE('',*,*,#426,.T.);
#543=ORIENTED_EDGE('',*,*,#427,.T.);
#544=ORIENTED_EDGE('',*,*,#428,.F.);
#545=ORIENTED_EDGE('',*,*,#429,.F.);
#546=ORIENTED_EDGE('',*,*,#430,.T.);
#547=ORIENTED_EDGE('',*,*,#431,.T.);
#548=ORIENTED_EDGE('',*,*,#426,.F.);
#549=ORIENTED_EDGE('',*,*,#432,.F.);
#550=ORIENTED_EDGE('',*,*,#433,.T.);
#551=ORIENTED_EDGE('',*,*,#434,.T.);
#552=ORIENTED_EDGE('',*,*,#430,.F.);
#553=ORIENTED_EDGE('',*,*,#435,.F.);
#554=ORIENTED_EDGE('',*,*,#436,.T.);
#555=ORIENTED_EDGE('',*,*,#437,.T.);
#556=ORIENTED_EDGE('',*,*,#433,.F.);
#557=ORIENTED_EDGE('',*,*,#438,.F.);
#558=ORIENTED_EDGE('',*,*,#439,.T.);
#559=ORIENTED_EDGE('',*,*,#440,.T.);
#560=ORIENTED_EDGE('',*,*,#436,.F.);
#561=ORIENTED_EDGE('',*,*,#441,.F.);
#562=ORIENTED_EDGE('',*,*,#442,.T.);
#563=ORIENTED_EDGE('',*,*,#443,.T.);
#564=ORIENTED_EDGE('',*,*,#439,.F.);
#565=ORIENTED_EDGE('',*,*,#444,.F.);
#566=ORIENTED_EDGE('',*,*,#445,.T.);
#567=ORIENTED_EDGE('',*,*,#446,.T.);
#568=ORIENTED_EDGE('',*,*,#442,.F.);
#569=ORIENTED_EDGE('',*,*,#447,.F.);
#570=ORIENTED_EDGE('',*,*,#448,.T.);
#571=ORIENTED_EDGE('',*,*,#449,.T.);
#572=ORIENTED_EDGE('',*,*,#445,.F.);
#573=ORIENTED_EDGE('',*,*,#450,.F.);
#574=ORIENTED_EDGE('',*,*,#451,.T.);
#575=ORIENTED_EDGE('',*,*,#452,.T.);
#576=ORIENTED_EDGE('',*,*,#448,.F.);
#577=ORIENTED_EDGE('',*,*,#453,.F.);
#578=ORIENTED_EDGE('',*,*,#454,.T.);
#579=ORIENTED_EDGE('',*,*,#455,.T.);
#580=ORIENTED_EDGE('',*,*,#451,.F.);
#581=ORIENTED_EDGE('',*,*,#456,.F.);
#582=ORIENTED_EDGE('',*,*,#457,.T.);
#583=ORIENTED_EDGE('',*,*,#458,.T.);
#584=ORIENTED_EDGE('',*,*,#454,.F.);
#585=ORIENTED_EDGE('',*,*,#459,.F.);
#586=ORIENTED_EDGE('',*,*,#428,.T.);
#587=ORIENTED_EDGE('',*,*,#460,.T.);
#588=ORIENTED_EDGE('',*,*,#457,.F.);
#589=ORIENTED_EDGE('',*,*,#460,.F.);
#590=ORIENTED_EDGE('',*,*,#427,.F.);
#591=ORIENTED_EDGE('',*,*,#431,.F.);
#592=ORIENTED_EDGE('',*,*,#434,.F.);
#593=ORIENTED_EDGE('',*,*,#437,.F.);
#594=ORIENTED_EDGE('',*,*,#440,.F.);
#595=ORIENTED_EDGE('',*,*,#443,.F.);
#596=ORIENTED_EDGE('',*,*,#446,.F.);
#597=ORIENTED_EDGE('',*,*,#449,.F.);
#598=ORIENTED_EDGE('',*,*,#452,.F.);
#599=ORIENTED_EDGE('',*,*,#455,.F.);
#600=ORIENTED_EDGE('',*,*,#458,.F.);
#601=ORIENTED_EDGE('',*,*,#461,.T.);
#602=ORIENTED_EDGE('',*,*,#462,.T.);
#603=ORIENTED_EDGE('',*,*,#463,.T.);
#604=ORIENTED_EDGE('',*,*,#464,.T.);
#605=ORIENTED_EDGE('',*,*,#462,.F.);
#606=ORIENTED_EDGE('',*,*,#465,.T.);
#607=ORIENTED_EDGE('',*,*,#466,.T.);
#608=ORIENTED_EDGE('',*,*,#467,.T.);
#609=ORIENTED_EDGE('',*,*,#425,.T.);
#610=ORIENTED_EDGE('',*,*,#459,.T.);
#611=ORIENTED_EDGE('',*,*,#456,.T.);
#612=ORIENTED_EDGE('',*,*,#453,.T.);
#613=ORIENTED_EDGE('',*,*,#450,.T.);
#614=ORIENTED_EDGE('',*,*,#447,.T.);
#615=ORIENTED_EDGE('',*,*,#444,.T.);
#616=ORIENTED_EDGE('',*,*,#441,.T.);
#617=ORIENTED_EDGE('',*,*,#438,.T.);
#618=ORIENTED_EDGE('',*,*,#435,.T.);
#619=ORIENTED_EDGE('',*,*,#432,.T.);
#620=ORIENTED_EDGE('',*,*,#429,.T.);
#621=ORIENTED_EDGE('',*,*,#461,.F.);
#622=ORIENTED_EDGE('',*,*,#468,.T.);
#623=ORIENTED_EDGE('',*,*,#469,.F.);
#624=ORIENTED_EDGE('',*,*,#470,.F.);
#625=ORIENTED_EDGE('',*,*,#471,.F.);
#626=ORIENTED_EDGE('',*,*,#472,.F.);
#627=ORIENTED_EDGE('',*,*,#473,.T.);
#628=ORIENTED_EDGE('',*,*,#465,.F.);
#629=ORIENTED_EDGE('',*,*,#474,.T.);
#630=ORIENTED_EDGE('',*,*,#475,.T.);
#631=ORIENTED_EDGE('',*,*,#469,.T.);
#632=ORIENTED_EDGE('',*,*,#476,.T.);
#633=ORIENTED_EDGE('',*,*,#475,.F.);
#634=ORIENTED_EDGE('',*,*,#477,.T.);
#635=ORIENTED_EDGE('',*,*,#478,.T.);
#636=ORIENTED_EDGE('',*,*,#470,.T.);
#637=ORIENTED_EDGE('',*,*,#413,.T.);
#638=ORIENTED_EDGE('',*,*,#423,.T.);
#639=ORIENTED_EDGE('',*,*,#420,.T.);
#640=ORIENTED_EDGE('',*,*,#417,.T.);
#641=ORIENTED_EDGE('',*,*,#468,.F.);
#642=ORIENTED_EDGE('',*,*,#464,.F.);
#643=ORIENTED_EDGE('',*,*,#479,.F.);
#644=ORIENTED_EDGE('',*,*,#476,.F.);
#645=ORIENTED_EDGE('',*,*,#463,.F.);
#646=ORIENTED_EDGE('',*,*,#467,.F.);
#647=ORIENTED_EDGE('',*,*,#480,.F.);
#648=ORIENTED_EDGE('',*,*,#481,.F.);
#649=ORIENTED_EDGE('',*,*,#482,.T.);
#650=ORIENTED_EDGE('',*,*,#477,.F.);
#651=ORIENTED_EDGE('',*,*,#474,.F.);
#652=ORIENTED_EDGE('',*,*,#479,.T.);
#653=ORIENTED_EDGE('',*,*,#483,.F.);
#654=ORIENTED_EDGE('',*,*,#480,.T.);
#655=ORIENTED_EDGE('',*,*,#466,.F.);
#656=ORIENTED_EDGE('',*,*,#473,.F.);
#657=ORIENTED_EDGE('',*,*,#484,.F.);
#658=ORIENTED_EDGE('',*,*,#471,.T.);
#659=ORIENTED_EDGE('',*,*,#478,.F.);
#660=ORIENTED_EDGE('',*,*,#482,.F.);
#661=ORIENTED_EDGE('',*,*,#485,.F.);
#662=ORIENTED_EDGE('',*,*,#411,.T.);
#663=ORIENTED_EDGE('',*,*,#486,.F.);
#664=ORIENTED_EDGE('',*,*,#487,.F.);
#665=ORIENTED_EDGE('',*,*,#488,.T.);
#666=ORIENTED_EDGE('',*,*,#487,.T.);
#667=ORIENTED_EDGE('',*,*,#489,.F.);
#668=ORIENTED_EDGE('',*,*,#490,.F.);
#669=ORIENTED_EDGE('',*,*,#491,.T.);
#670=ORIENTED_EDGE('',*,*,#490,.T.);
#671=ORIENTED_EDGE('',*,*,#492,.F.);
#672=ORIENTED_EDGE('',*,*,#408,.F.);
#673=ORIENTED_EDGE('',*,*,#410,.T.);
#674=ORIENTED_EDGE('',*,*,#404,.F.);
#675=ORIENTED_EDGE('',*,*,#391,.T.);
#676=ORIENTED_EDGE('',*,*,#395,.F.);
#677=ORIENTED_EDGE('',*,*,#398,.T.);
#678=ORIENTED_EDGE('',*,*,#401,.F.);
#679=ORIENTED_EDGE('',*,*,#409,.T.);
#680=ORIENTED_EDGE('',*,*,#492,.T.);
#681=ORIENTED_EDGE('',*,*,#489,.T.);
#682=ORIENTED_EDGE('',*,*,#486,.T.);
#683=ORIENTED_EDGE('',*,*,#412,.F.);
#684=ORIENTED_EDGE('',*,*,#485,.T.);
#685=ORIENTED_EDGE('',*,*,#488,.F.);
#686=ORIENTED_EDGE('',*,*,#491,.F.);
#687=ORIENTED_EDGE('',*,*,#407,.F.);
#688=ORIENTED_EDGE('',*,*,#402,.T.);
#689=ORIENTED_EDGE('',*,*,#399,.T.);
#690=ORIENTED_EDGE('',*,*,#396,.T.);
#691=ORIENTED_EDGE('',*,*,#393,.T.);
#692=ORIENTED_EDGE('',*,*,#406,.T.);
#693=ORIENTED_EDGE('',*,*,#481,.T.);
#694=ORIENTED_EDGE('',*,*,#483,.T.);
#695=ORIENTED_EDGE('',*,*,#472,.T.);
#696=ORIENTED_EDGE('',*,*,#484,.T.);
#697=CYLINDRICAL_SURFACE('',#745,0.249999999999999);
#698=CYLINDRICAL_SURFACE('',#749,0.249999999999999);
#699=CYLINDRICAL_SURFACE('',#754,3.5);
#700=CYLINDRICAL_SURFACE('',#757,3.5);
#701=CYLINDRICAL_SURFACE('',#787,3.);
#702=CYLINDRICAL_SURFACE('',#789,3.);
#703=CYLINDRICAL_SURFACE('',#792,3.5);
#704=ADVANCED_FACE('',(#52),#697,.T.);
#705=ADVANCED_FACE('',(#53),#20,.T.);
#706=ADVANCED_FACE('',(#54),#698,.T.);
#707=ADVANCED_FACE('',(#55),#21,.T.);
#708=ADVANCED_FACE('',(#56),#22,.T.);
#709=ADVANCED_FACE('',(#57),#699,.T.);
#710=ADVANCED_FACE('',(#58),#700,.T.);
#711=ADVANCED_FACE('',(#59),#23,.F.);
#712=ADVANCED_FACE('',(#60),#24,.F.);
#713=ADVANCED_FACE('',(#61),#25,.F.);
#714=ADVANCED_FACE('',(#62),#26,.F.);
#715=ADVANCED_FACE('',(#63),#27,.F.);
#716=ADVANCED_FACE('',(#64),#28,.F.);
#717=ADVANCED_FACE('',(#65),#29,.F.);
#718=ADVANCED_FACE('',(#66),#30,.F.);
#719=ADVANCED_FACE('',(#67),#31,.F.);
#720=ADVANCED_FACE('',(#68),#32,.F.);
#721=ADVANCED_FACE('',(#69),#33,.F.);
#722=ADVANCED_FACE('',(#70),#34,.F.);
#723=ADVANCED_FACE('',(#71),#35,.F.);
#724=ADVANCED_FACE('',(#72),#36,.F.);
#725=ADVANCED_FACE('',(#73),#37,.F.);
#726=ADVANCED_FACE('',(#74),#38,.F.);
#727=ADVANCED_FACE('',(#75),#39,.F.);
#728=ADVANCED_FACE('',(#76),#40,.F.);
#729=ADVANCED_FACE('',(#77),#41,.T.);
#730=ADVANCED_FACE('',(#78,#14),#42,.T.);
#731=ADVANCED_FACE('',(#79),#43,.T.);
#732=ADVANCED_FACE('',(#80),#44,.T.);
#733=ADVANCED_FACE('',(#81,#15),#45,.T.);
#734=ADVANCED_FACE('',(#82),#46,.F.);
#735=ADVANCED_FACE('',(#83),#47,.T.);
#736=ADVANCED_FACE('',(#84),#701,.T.);
#737=ADVANCED_FACE('',(#85),#702,.T.);
#738=ADVANCED_FACE('',(#86),#48,.T.);
#739=ADVANCED_FACE('',(#87),#703,.T.);
#740=ADVANCED_FACE('',(#88),#49,.T.);
#741=ADVANCED_FACE('',(#89),#50,.T.);
#742=ADVANCED_FACE('',(#90,#16),#51,.F.);
#743=CLOSED_SHELL('',(#704,#705,#706,#707,#708,#709,#710,#711,#712,#713,
#714,#715,#716,#717,#718,#719,#720,#721,#722,#723,#724,#725,#726,#727,#728,
#729,#730,#731,#732,#733,#734,#735,#736,#737,#738,#739,#740,#741,#742));
#744=AXIS2_PLACEMENT_3D('',#994,#798,#799);
#745=AXIS2_PLACEMENT_3D('',#995,#800,#801);
#746=AXIS2_PLACEMENT_3D('',#998,#802,#803);
#747=AXIS2_PLACEMENT_3D('',#1002,#805,#806);
#748=AXIS2_PLACEMENT_3D('',#1004,#808,#809);
#749=AXIS2_PLACEMENT_3D('',#1010,#813,#814);
#750=AXIS2_PLACEMENT_3D('',#1012,#815,#816);
#751=AXIS2_PLACEMENT_3D('',#1014,#817,#818);
#752=AXIS2_PLACEMENT_3D('',#1016,#820,#821);
#753=AXIS2_PLACEMENT_3D('',#1022,#825,#826);
#754=AXIS2_PLACEMENT_3D('',#1028,#830,#831);
#755=AXIS2_PLACEMENT_3D('',#1030,#832,#833);
#756=AXIS2_PLACEMENT_3D('',#1033,#835,#836);
#757=AXIS2_PLACEMENT_3D('',#1034,#837,#838);
#758=AXIS2_PLACEMENT_3D('',#1036,#839,#840);
#759=AXIS2_PLACEMENT_3D('',#1039,#842,#843);
#760=AXIS2_PLACEMENT_3D('',#1040,#844,#845);
#761=AXIS2_PLACEMENT_3D('',#1049,#850,#851);
#762=AXIS2_PLACEMENT_3D('',#1055,#855,#856);
#763=AXIS2_PLACEMENT_3D('',#1061,#860,#861);
#764=AXIS2_PLACEMENT_3D('',#1064,#864,#865);
#765=AXIS2_PLACEMENT_3D('',#1065,#866,#867);
#766=AXIS2_PLACEMENT_3D('',#1074,#872,#873);
#767=AXIS2_PLACEMENT_3D('',#1080,#877,#878);
#768=AXIS2_PLACEMENT_3D('',#1086,#882,#883);
#769=AXIS2_PLACEMENT_3D('',#1092,#887,#888);
#770=AXIS2_PLACEMENT_3D('',#1098,#892,#893);
#771=AXIS2_PLACEMENT_3D('',#1104,#897,#898);
#772=AXIS2_PLACEMENT_3D('',#1110,#902,#903);
#773=AXIS2_PLACEMENT_3D('',#1116,#907,#908);
#774=AXIS2_PLACEMENT_3D('',#1122,#912,#913);
#775=AXIS2_PLACEMENT_3D('',#1128,#917,#918);
#776=AXIS2_PLACEMENT_3D('',#1134,#922,#923);
#777=AXIS2_PLACEMENT_3D('',#1137,#926,#927);
#778=AXIS2_PLACEMENT_3D('',#1138,#928,#929);
#779=AXIS2_PLACEMENT_3D('',#1147,#934,#935);
#780=AXIS2_PLACEMENT_3D('',#1151,#937,#938);
#781=AXIS2_PLACEMENT_3D('',#1153,#940,#941);
#782=AXIS2_PLACEMENT_3D('',#1165,#948,#949);
#783=AXIS2_PLACEMENT_3D('',#1171,#953,#954);
#784=AXIS2_PLACEMENT_3D('',#1174,#956,#957);
#785=AXIS2_PLACEMENT_3D('',#1175,#958,#959);
#786=AXIS2_PLACEMENT_3D('',#1177,#961,#962);
#787=AXIS2_PLACEMENT_3D('',#1183,#966,#967);
#788=AXIS2_PLACEMENT_3D('',#1184,#968,#969);
#789=AXIS2_PLACEMENT_3D('',#1185,#970,#971);
#790=AXIS2_PLACEMENT_3D('',#1186,#972,#973);
#791=AXIS2_PLACEMENT_3D('',#1187,#974,#975);
#792=AXIS2_PLACEMENT_3D('',#1193,#979,#980);
#793=AXIS2_PLACEMENT_3D('',#1195,#981,#982);
#794=AXIS2_PLACEMENT_3D('',#1197,#983,#984);
#795=AXIS2_PLACEMENT_3D('',#1199,#986,#987);
#796=AXIS2_PLACEMENT_3D('',#1202,#990,#991);
#797=AXIS2_PLACEMENT_3D('',#1203,#992,#993);
#798=DIRECTION('axis',(0.,0.,1.));
#799=DIRECTION('refdir',(1.,0.,0.));
#800=DIRECTION('center_axis',(0.,-1.,0.));
#801=DIRECTION('ref_axis',(0.,0.,-1.));
#802=DIRECTION('center_axis',(4.90454462513688E-44,1.,2.51001197115776E-29));
#803=DIRECTION('ref_axis',(0.,2.51001197115776E-29,-1.));
#804=DIRECTION('',(0.,-1.,0.));
#805=DIRECTION('center_axis',(-4.90454462513688E-44,-1.,-2.51001197115776E-29));
#806=DIRECTION('ref_axis',(0.,2.51001197115776E-29,-1.));
#807=DIRECTION('',(0.,-1.,0.));
#808=DIRECTION('center_axis',(-1.,0.,0.));
#809=DIRECTION('ref_axis',(0.,2.13351017548409E-29,-1.));
#810=DIRECTION('',(0.,2.13351017548409E-29,-1.));
#811=DIRECTION('',(0.,2.13351017548409E-29,-1.));
#812=DIRECTION('',(0.,-1.,0.));
#813=DIRECTION('center_axis',(0.,-1.,0.));
#814=DIRECTION('ref_axis',(-1.,0.,0.));
#815=DIRECTION('center_axis',(7.70894356533953E-14,1.,1.57772181044202E-28));
#816=DIRECTION('ref_axis',(-1.,7.70894356533954E-14,0.));
#817=DIRECTION('center_axis',(-7.70894356533953E-14,-1.,-1.57772181044202E-28));
#818=DIRECTION('ref_axis',(-1.,7.70894356533954E-14,0.));
#819=DIRECTION('',(0.,-1.,0.));
#820=DIRECTION('center_axis',(0.,0.,1.));
#821=DIRECTION('ref_axis',(-1.,4.22799408394053E-14,0.));
#822=DIRECTION('',(-1.,4.22799408394053E-14,0.));
#823=DIRECTION('',(-1.,4.22799408394053E-14,0.));
#824=DIRECTION('',(0.,-1.,0.));
#825=DIRECTION('center_axis',(0.,0.,-1.));
#826=DIRECTION('ref_axis',(1.,3.57550124860029E-45,0.));
#827=DIRECTION('',(1.,3.57550124860029E-45,0.));
#828=DIRECTION('',(0.,1.,0.));
#829=DIRECTION('',(1.,3.57550124860029E-45,0.));
#830=DIRECTION('center_axis',(0.,1.,0.));
#831=DIRECTION('ref_axis',(-0.626783170528014,0.,0.779193722473975));
#832=DIRECTION('center_axis',(0.,1.,0.));
#833=DIRECTION('ref_axis',(0.0135827508132616,0.,-0.999907750185158));
#834=DIRECTION('',(0.,1.,0.));
#835=DIRECTION('center_axis',(0.,1.,0.));
#836=DIRECTION('ref_axis',(0.0135827508132616,0.,-0.999907750185158));
#837=DIRECTION('center_axis',(0.,1.,0.));
#838=DIRECTION('ref_axis',(0.0135827508132616,0.,-0.999907750185158));
#839=DIRECTION('center_axis',(0.,1.,0.));
#840=DIRECTION('ref_axis',(0.0135827508132616,0.,-0.999907750185158));
#841=DIRECTION('',(0.,1.,0.));
#842=DIRECTION('center_axis',(0.,1.,0.));
#843=DIRECTION('ref_axis',(0.0135827508132616,0.,-0.999907750185158));
#844=DIRECTION('center_axis',(1.,0.,0.));
#845=DIRECTION('ref_axis',(0.,0.,-1.));
#846=DIRECTION('',(0.,0.,-1.));
#847=DIRECTION('',(0.,1.,0.));
#848=DIRECTION('',(0.,0.,-1.));
#849=DIRECTION('',(0.,1.,0.));
#850=DIRECTION('center_axis',(4.44089209850062E-15,0.,1.));
#851=DIRECTION('ref_axis',(1.,0.,-4.44089209850062E-15));
#852=DIRECTION('',(1.,0.,-4.44089209850062E-15));
#853=DIRECTION('',(0.,1.,0.));
#854=DIRECTION('',(1.,0.,-4.44089209850062E-15));
#855=DIRECTION('center_axis',(-1.,0.,0.));
#856=DIRECTION('ref_axis',(0.,0.,1.));
#857=DIRECTION('',(0.,0.,1.));
#858=DIRECTION('',(0.,1.,0.));
#859=DIRECTION('',(0.,0.,1.));
#860=DIRECTION('center_axis',(0.,0.,-1.));
#861=DIRECTION('ref_axis',(-1.,0.,0.));
#862=DIRECTION('',(-1.,0.,0.));
#863=DIRECTION('',(-1.,0.,0.));
#864=DIRECTION('center_axis',(0.,1.,0.));
#865=DIRECTION('ref_axis',(0.,0.,1.));
#866=DIRECTION('center_axis',(0.,0.,1.));
#867=DIRECTION('ref_axis',(1.,0.,0.));
#868=DIRECTION('',(1.,0.,0.));
#869=DIRECTION('',(0.,1.,0.));
#870=DIRECTION('',(1.,0.,0.));
#871=DIRECTION('',(0.,1.,0.));
#872=DIRECTION('center_axis',(1.,0.,0.));
#873=DIRECTION('ref_axis',(0.,0.,-1.));
#874=DIRECTION('',(0.,0.,-1.));
#875=DIRECTION('',(0.,1.,0.));
#876=DIRECTION('',(0.,0.,-1.));
#877=DIRECTION('center_axis',(0.,0.,1.));
#878=DIRECTION('ref_axis',(1.,0.,0.));
#879=DIRECTION('',(1.,0.,0.));
#880=DIRECTION('',(0.,1.,0.));
#881=DIRECTION('',(1.,0.,0.));
#882=DIRECTION('center_axis',(-1.,0.,0.));
#883=DIRECTION('ref_axis',(0.,0.,1.));
#884=DIRECTION('',(0.,0.,1.));
#885=DIRECTION('',(0.,1.,0.));
#886=DIRECTION('',(0.,0.,1.));
#887=DIRECTION('center_axis',(0.,0.,1.));
#888=DIRECTION('ref_axis',(1.,0.,0.));
#889=DIRECTION('',(1.,0.,0.));
#890=DIRECTION('',(0.,1.,0.));
#891=DIRECTION('',(1.,0.,0.));
#892=DIRECTION('center_axis',(-1.,0.,0.));
#893=DIRECTION('ref_axis',(0.,0.,1.));
#894=DIRECTION('',(0.,0.,1.));
#895=DIRECTION('',(0.,1.,0.));
#896=DIRECTION('',(0.,0.,1.));
#897=DIRECTION('center_axis',(0.,0.,-1.));
#898=DIRECTION('ref_axis',(-1.,0.,0.));
#899=DIRECTION('',(-1.,0.,0.));
#900=DIRECTION('',(0.,1.,0.));
#901=DIRECTION('',(-1.,0.,0.));
#902=DIRECTION('center_axis',(-1.,0.,0.));
#903=DIRECTION('ref_axis',(0.,0.,1.));
#904=DIRECTION('',(0.,0.,1.));
#905=DIRECTION('',(0.,1.,0.));
#906=DIRECTION('',(0.,0.,1.));
#907=DIRECTION('center_axis',(0.,0.,-1.));
#908=DIRECTION('ref_axis',(-1.,0.,0.));
#909=DIRECTION('',(-1.,0.,0.));
#910=DIRECTION('',(0.,1.,0.));
#911=DIRECTION('',(-1.,0.,0.));
#912=DIRECTION('center_axis',(1.,0.,0.));
#913=DIRECTION('ref_axis',(0.,0.,-1.));
#914=DIRECTION('',(0.,0.,-1.));
#915=DIRECTION('',(0.,1.,0.));
#916=DIRECTION('',(0.,0.,-1.));
#917=DIRECTION('center_axis',(0.,0.,-1.));
#918=DIRECTION('ref_axis',(-1.,0.,0.));
#919=DIRECTION('',(-1.,0.,0.));
#920=DIRECTION('',(0.,1.,0.));
#921=DIRECTION('',(-1.,0.,0.));
#922=DIRECTION('center_axis',(1.,0.,0.));
#923=DIRECTION('ref_axis',(0.,0.,-1.));
#924=DIRECTION('',(0.,0.,-1.));
#925=DIRECTION('',(0.,0.,-1.));
#926=DIRECTION('center_axis',(0.,1.,0.));
#927=DIRECTION('ref_axis',(0.,0.,1.));
#928=DIRECTION('center_axis',(-0.707106781186546,-0.707106781186549,0.));
#929=DIRECTION('ref_axis',(0.,0.,1.));
#930=DIRECTION('',(0.7071067197196,-0.707106719719598,0.000416958963290378));
#931=DIRECTION('',(0.,0.,1.));
#932=DIRECTION('',(-0.707106719739984,0.707106719739982,-0.000416889820629027));
#933=DIRECTION('',(0.,0.,-1.));
#934=DIRECTION('center_axis',(0.,-1.,0.));
#935=DIRECTION('ref_axis',(1.,0.,0.));
#936=DIRECTION('',(0.999999826145238,0.,0.000589668969579896));
#937=DIRECTION('center_axis',(0.,-1.,0.));
#938=DIRECTION('ref_axis',(-0.000589571187115112,0.,-0.999999826202893));
#939=DIRECTION('',(-0.999999826202892,0.,-0.000589571187115969));
#940=DIRECTION('center_axis',(0.000589668969579896,0.,-0.999999826145238));
#941=DIRECTION('ref_axis',(0.999999826145238,0.,0.000589668969579896));
#942=DIRECTION('',(-0.999999826145238,0.,-0.000589668969579896));
#943=DIRECTION('',(0.7071067197196,0.707106719719598,0.000416958963290378));
#944=DIRECTION('',(0.999999826145238,0.,0.000589668969579896));
#945=DIRECTION('',(0.,-1.,0.));
#946=DIRECTION('',(-0.999999826145238,0.,-0.000589668969579896));
#947=DIRECTION('',(0.,-1.,0.));
#948=DIRECTION('center_axis',(0.707106781186546,-0.707106781186549,0.));
#949=DIRECTION('ref_axis',(0.,0.,-1.));
#950=DIRECTION('',(-0.707106719739984,-0.707106719739982,-0.000416889820629027));
#951=DIRECTION('',(0.,0.,-1.));
#952=DIRECTION('',(0.,0.,1.));
#953=DIRECTION('center_axis',(0.,-1.,0.));
#954=DIRECTION('ref_axis',(1.,0.,0.));
#955=DIRECTION('',(-0.999999826202892,0.,-0.000589571187115969));
#956=DIRECTION('center_axis',(0.,-1.,0.));
#957=DIRECTION('ref_axis',(0.,0.,1.));
#958=DIRECTION('center_axis',(0.,1.,0.));
#959=DIRECTION('ref_axis',(0.,0.,1.));
#960=DIRECTION('',(0.999999826202892,0.,0.000589571187115969));
#961=DIRECTION('center_axis',(-0.00058957118711597,0.,0.999999826202893));
#962=DIRECTION('ref_axis',(-0.999999826202893,0.,-0.00058957118711597));
#963=DIRECTION('',(0.,-1.,0.));
#964=DIRECTION('',(0.999999826202893,0.,0.00058957118711597));
#965=DIRECTION('',(0.,-1.,0.));
#966=DIRECTION('center_axis',(0.,-1.,0.));
#967=DIRECTION('ref_axis',(1.,0.,-1.64050630718782E-14));
#968=DIRECTION('center_axis',(0.,1.,0.));
#969=DIRECTION('ref_axis',(-0.000589571187115112,0.,-0.999999826202893));
#970=DIRECTION('center_axis',(0.,-1.,0.));
#971=DIRECTION('ref_axis',(-0.999999956536309,0.,-0.000294834497574493));
#972=DIRECTION('center_axis',(0.,1.,0.));
#973=DIRECTION('ref_axis',(0.,0.,1.));
#974=DIRECTION('center_axis',(0.000571019926021488,0.,-0.999999836968109));
#975=DIRECTION('ref_axis',(-0.999999836968109,0.,-0.000571019926021488));
#976=DIRECTION('',(0.999999836968109,0.,0.000571019926021488));
#977=DIRECTION('',(-0.999999836968109,0.,-0.000571019926021488));
#978=DIRECTION('',(0.,1.,0.));
#979=DIRECTION('center_axis',(0.,1.,0.));
#980=DIRECTION('ref_axis',(0.999999831626942,0.,0.000580298275206558));
#981=DIRECTION('center_axis',(0.,1.,0.));
#982=DIRECTION('ref_axis',(-0.000589576618974519,0.,0.99999982619969));
#983=DIRECTION('center_axis',(0.,1.,0.));
#984=DIRECTION('ref_axis',(-0.000589576618974519,0.,0.99999982619969));
#985=DIRECTION('',(0.,1.,0.));
#986=DIRECTION('center_axis',(-0.000589576618975088,0.,0.99999982619969));
#987=DIRECTION('ref_axis',(0.99999982619969,0.,0.000589576618975088));
#988=DIRECTION('',(0.99999982619969,0.,0.000589576618975087));
#989=DIRECTION('',(0.99999982619969,0.,0.000589576618975087));
#990=DIRECTION('center_axis',(0.,1.,0.));
#991=DIRECTION('ref_axis',(-1.,0.,0.));
#992=DIRECTION('center_axis',(0.,1.,0.));
#993=DIRECTION('ref_axis',(-1.,0.,0.));
#994=CARTESIAN_POINT('',(0.,0.,0.));
#995=CARTESIAN_POINT('Origin',(10.2203224933323,-41.275,11.6355105530358));
#996=CARTESIAN_POINT('',(10.2203224933323,-41.275,11.3855105530358));
#997=CARTESIAN_POINT('',(9.97032249333227,-41.275,11.6355105530358));
#998=CARTESIAN_POINT('Origin',(10.2203224933323,-41.275,11.6355105530358));
#999=CARTESIAN_POINT('',(10.2203224933323,-42.275,11.3855105530358));
#1000=CARTESIAN_POINT('',(10.2203224933323,-41.275,11.3855105530358));
#1001=CARTESIAN_POINT('',(9.97032249333227,-42.275,11.6355105530358));
#1002=CARTESIAN_POINT('Origin',(10.2203224933323,-42.275,11.6355105530358));
#1003=CARTESIAN_POINT('',(9.97032249333227,-41.275,11.6355105530358));
#1004=CARTESIAN_POINT('Origin',(9.97032249333227,-41.275,12.6355105530358));
#1005=CARTESIAN_POINT('',(9.97032249333227,-41.275,12.6355105530358));
#1006=CARTESIAN_POINT('',(9.97032249333227,-41.275,12.6355105530358));
#1007=CARTESIAN_POINT('',(9.97032249333227,-42.275,12.6355105530358));
#1008=CARTESIAN_POINT('',(9.97032249333227,-42.275,12.6355105530358));
#1009=CARTESIAN_POINT('',(9.97032249333227,-41.275,12.6355105530358));
#1010=CARTESIAN_POINT('Origin',(10.2203224933323,-41.275,12.6355105530358));
#1011=CARTESIAN_POINT('',(10.2203224933323,-41.275,12.8855105530358));
#1012=CARTESIAN_POINT('Origin',(10.2203224933323,-41.275,12.6355105530358));
#1013=CARTESIAN_POINT('',(10.2203224933323,-42.275,12.8855105530358));
#1014=CARTESIAN_POINT('Origin',(10.2203224933323,-42.275,12.6355105530358));
#1015=CARTESIAN_POINT('',(10.2203224933323,-41.275,12.8855105530358));
#1016=CARTESIAN_POINT('Origin',(11.3016239105379,-41.2750000000001,12.8855105530358));
#1017=CARTESIAN_POINT('',(11.3016239105379,-41.2750000000001,12.8855105530358));
#1018=CARTESIAN_POINT('',(11.4450620183791,-41.2750000000001,12.8855105530358));
#1019=CARTESIAN_POINT('',(11.3016239105379,-42.2750000000001,12.8855105530358));
#1020=CARTESIAN_POINT('',(11.4450620183791,-42.2750000000001,12.8855105530358));
#1021=CARTESIAN_POINT('',(11.3016239105379,-42.275,12.8855105530358));
#1022=CARTESIAN_POINT('Origin',(10.2203224933323,-41.275,11.3855105530358));
#1023=CARTESIAN_POINT('',(11.3016239105379,-41.275,11.3855105530358));
#1024=CARTESIAN_POINT('',(10.2203224933323,-41.275,11.3855105530358));
#1025=CARTESIAN_POINT('',(11.3016239105379,-42.275,11.3855105530358));
#1026=CARTESIAN_POINT('',(11.3016239105379,-42.275,11.3855105530358));
#1027=CARTESIAN_POINT('',(10.2203224933323,-42.275,11.3855105530358));
#1028=CARTESIAN_POINT('Origin',(14.7203224933323,-42.275,12.1355105530359));
#1029=CARTESIAN_POINT('',(14.7203224933323,-42.275,15.6355105530359));
#1030=CARTESIAN_POINT('Origin',(14.7203224933323,-42.275,12.1355105530359));
#1031=CARTESIAN_POINT('',(14.7203224933323,-41.275,15.6355105530359));
#1032=CARTESIAN_POINT('',(14.7203224933323,-42.275,15.6355105530359));
#1033=CARTESIAN_POINT('Origin',(14.7203224933323,-41.275,12.1355105530359));
#1034=CARTESIAN_POINT('Origin',(14.7203224933323,-42.275,12.1355105530359));
#1035=CARTESIAN_POINT('',(14.7678621211787,-41.275,8.63583342738783));
#1036=CARTESIAN_POINT('Origin',(14.7203224933323,-41.275,12.1355105530359));
#1037=CARTESIAN_POINT('',(14.7678621211787,-42.275,8.63583342738783));
#1038=CARTESIAN_POINT('',(14.7678621211787,-42.275,8.63583342738783));
#1039=CARTESIAN_POINT('Origin',(14.7203224933323,-42.275,12.1355105530359));
#1040=CARTESIAN_POINT('Origin',(17.6094941966843,-44.275,14.3893423011748));
#1041=CARTESIAN_POINT('',(17.6094941966843,-44.275,14.3893423011748));
#1042=CARTESIAN_POINT('',(17.6094941966843,-44.275,9.88934230117485));
#1043=CARTESIAN_POINT('',(17.6094941966843,-44.275,13.264784581506));
#1044=CARTESIAN_POINT('',(17.6094941966843,-43.525,14.3893423011748));
#1045=CARTESIAN_POINT('',(17.6094941966843,-44.275,14.3893423011748));
#1046=CARTESIAN_POINT('',(17.6094941966843,-43.525,9.88934230117485));
#1047=CARTESIAN_POINT('',(17.6094941966843,-43.525,14.3893423011748));
#1048=CARTESIAN_POINT('',(17.6094941966843,-44.275,9.88934230117485));
#1049=CARTESIAN_POINT('Origin',(16.6094941966843,-44.275,14.3893423011748));
#1050=CARTESIAN_POINT('',(16.6094941966843,-44.275,14.3893423011748));
#1051=CARTESIAN_POINT('',(19.6649076498967,-44.275,14.3893423011748));
#1052=CARTESIAN_POINT('',(16.6094941966843,-43.525,14.3893423011748));
#1053=CARTESIAN_POINT('',(16.6094941966843,-44.275,14.3893423011748));
#1054=CARTESIAN_POINT('',(16.6094941966843,-43.525,14.3893423011748));
#1055=CARTESIAN_POINT('Origin',(16.6094941966843,-44.275,9.88934230117485));
#1056=CARTESIAN_POINT('',(16.6094941966843,-44.275,9.88934230117485));
#1057=CARTESIAN_POINT('',(16.6094941966843,-44.275,11.014784581506));
#1058=CARTESIAN_POINT('',(16.6094941966843,-43.525,9.88934230117485));
#1059=CARTESIAN_POINT('',(16.6094941966843,-44.275,9.88934230117485));
#1060=CARTESIAN_POINT('',(16.6094941966843,-43.525,9.88934230117485));
#1061=CARTESIAN_POINT('Origin',(17.6094941966843,-44.275,9.88934230117485));
#1062=CARTESIAN_POINT('',(20.1649076498967,-44.275,9.88934230117485));
#1063=CARTESIAN_POINT('',(17.6094941966843,-43.525,9.88934230117485));
#1064=CARTESIAN_POINT('Origin',(17.1094941966843,-43.525,12.1393423011748));
#1065=CARTESIAN_POINT('Origin',(29.1861896613378,-44.275,12.6393423011748));
#1066=CARTESIAN_POINT('',(29.1861896613378,-44.275,12.6393423011748));
#1067=CARTESIAN_POINT('',(30.9361896613378,-44.275,12.6393423011748));
#1068=CARTESIAN_POINT('',(25.9532553822235,-44.275,12.6393423011748));
#1069=CARTESIAN_POINT('',(29.1861896613378,-43.525,12.6393423011748));
#1070=CARTESIAN_POINT('',(29.1861896613378,-44.275,12.6393423011748));
#1071=CARTESIAN_POINT('',(30.9361896613378,-43.525,12.6393423011748));
#1072=CARTESIAN_POINT('',(30.9361896613378,-43.525,12.6393423011748));
#1073=CARTESIAN_POINT('',(30.9361896613378,-44.275,12.6393423011748));
#1074=CARTESIAN_POINT('Origin',(29.1861896613378,-44.275,14.3893423011748));
#1075=CARTESIAN_POINT('',(29.1861896613378,-44.275,14.3893423011748));
#1076=CARTESIAN_POINT('',(29.1861896613378,-44.275,13.264784581506));
#1077=CARTESIAN_POINT('',(29.1861896613378,-43.525,14.3893423011748));
#1078=CARTESIAN_POINT('',(29.1861896613378,-44.275,14.3893423011748));
#1079=CARTESIAN_POINT('',(29.1861896613378,-43.525,9.88934230117485));
#1080=CARTESIAN_POINT('Origin',(28.1861896613378,-44.275,14.3893423011748));
#1081=CARTESIAN_POINT('',(28.1861896613378,-44.275,14.3893423011748));
#1082=CARTESIAN_POINT('',(25.4532553822235,-44.275,14.3893423011748));
#1083=CARTESIAN_POINT('',(28.1861896613378,-43.525,14.3893423011748));
#1084=CARTESIAN_POINT('',(28.1861896613378,-44.275,14.3893423011748));
#1085=CARTESIAN_POINT('',(29.1861896613378,-43.525,14.3893423011748));
#1086=CARTESIAN_POINT('Origin',(28.1861896613378,-44.275,12.6393423011748));
#1087=CARTESIAN_POINT('',(28.1861896613378,-44.275,12.6393423011748));
#1088=CARTESIAN_POINT('',(28.1861896613378,-44.275,12.389784581506));
#1089=CARTESIAN_POINT('',(28.1861896613378,-43.525,12.6393423011748));
#1090=CARTESIAN_POINT('',(28.1861896613378,-44.275,12.6393423011748));
#1091=CARTESIAN_POINT('',(28.1861896613378,-43.525,14.3893423011748));
#1092=CARTESIAN_POINT('Origin',(26.4361896613378,-44.275,12.6393423011748));
#1093=CARTESIAN_POINT('',(26.4361896613378,-44.275,12.6393423011748));
#1094=CARTESIAN_POINT('',(24.5782553822235,-44.275,12.6393423011748));
#1095=CARTESIAN_POINT('',(26.4361896613378,-43.525,12.6393423011748));
#1096=CARTESIAN_POINT('',(26.4361896613378,-44.275,12.6393423011748));
#1097=CARTESIAN_POINT('',(30.9361896613378,-43.525,12.6393423011748));
#1098=CARTESIAN_POINT('Origin',(26.4361896613378,-44.275,11.6393423011748));
#1099=CARTESIAN_POINT('',(26.4361896613378,-44.275,11.6393423011748));
#1100=CARTESIAN_POINT('',(26.4361896613378,-44.275,11.889784581506));
#1101=CARTESIAN_POINT('',(26.4361896613378,-43.525,11.6393423011748));
#1102=CARTESIAN_POINT('',(26.4361896613378,-44.275,11.6393423011748));
#1103=CARTESIAN_POINT('',(26.4361896613378,-43.525,12.6393423011748));
#1104=CARTESIAN_POINT('Origin',(28.1861896613378,-44.275,11.6393423011748));
#1105=CARTESIAN_POINT('',(28.1861896613378,-44.275,11.6393423011748));
#1106=CARTESIAN_POINT('',(25.4532553822235,-44.275,11.6393423011748));
#1107=CARTESIAN_POINT('',(28.1861896613378,-43.525,11.6393423011748));
#1108=CARTESIAN_POINT('',(28.1861896613378,-44.275,11.6393423011748));
#1109=CARTESIAN_POINT('',(26.4361896613378,-43.525,11.6393423011748));
#1110=CARTESIAN_POINT('Origin',(28.1861896613378,-44.275,9.88934230117485));
#1111=CARTESIAN_POINT('',(28.1861896613378,-44.275,9.88934230117485));
#1112=CARTESIAN_POINT('',(28.1861896613378,-44.275,11.014784581506));
#1113=CARTESIAN_POINT('',(28.1861896613378,-43.525,9.88934230117485));
#1114=CARTESIAN_POINT('',(28.1861896613378,-44.275,9.88934230117485));
#1115=CARTESIAN_POINT('',(28.1861896613378,-43.525,14.3893423011748));
#1116=CARTESIAN_POINT('Origin',(29.1861896613378,-44.275,9.88934230117485));
#1117=CARTESIAN_POINT('',(29.1861896613378,-44.275,9.88934230117485));
#1118=CARTESIAN_POINT('',(25.9532553822235,-44.275,9.88934230117485));
#1119=CARTESIAN_POINT('',(29.1861896613378,-43.525,9.88934230117485));
#1120=CARTESIAN_POINT('',(29.1861896613378,-44.275,9.88934230117485));
#1121=CARTESIAN_POINT('',(28.1861896613378,-43.525,9.88934230117485));
#1122=CARTESIAN_POINT('Origin',(29.1861896613378,-44.275,11.6393423011748));
#1123=CARTESIAN_POINT('',(29.1861896613378,-44.275,11.6393423011748));
#1124=CARTESIAN_POINT('',(29.1861896613378,-44.275,11.889784581506));
#1125=CARTESIAN_POINT('',(29.1861896613378,-43.525,11.6393423011748));
#1126=CARTESIAN_POINT('',(29.1861896613378,-44.275,11.6393423011748));
#1127=CARTESIAN_POINT('',(29.1861896613378,-43.525,9.88934230117485));
#1128=CARTESIAN_POINT('Origin',(30.9361896613378,-44.275,11.6393423011748));
#1129=CARTESIAN_POINT('',(30.9361896613378,-44.275,11.6393423011748));
#1130=CARTESIAN_POINT('',(26.8282553822235,-44.275,11.6393423011748));
#1131=CARTESIAN_POINT('',(30.9361896613378,-43.525,11.6393423011748));
#1132=CARTESIAN_POINT('',(30.9361896613378,-44.275,11.6393423011748));
#1133=CARTESIAN_POINT('',(26.4361896613378,-43.525,11.6393423011748));
#1134=CARTESIAN_POINT('Origin',(30.9361896613378,-44.275,12.6393423011748));
#1135=CARTESIAN_POINT('',(30.9361896613378,-44.275,12.389784581506));
#1136=CARTESIAN_POINT('',(30.9361896613378,-43.525,11.6393423011748));
#1137=CARTESIAN_POINT('Origin',(28.6861896613378,-43.525,12.1393423011748));
#1138=CARTESIAN_POINT('Origin',(23.7194367463285,-43.775,13.6403741243118));
#1139=CARTESIAN_POINT('',(23.2194367463285,-43.275,9.14052169628672));
#1140=CARTESIAN_POINT('',(24.2194367463285,-44.275,9.14111136535882));
#1141=CARTESIAN_POINT('',(21.0957634213167,-41.1513266749883,9.13926943180772));
#1142=CARTESIAN_POINT('',(24.2194367463285,-44.275,15.1411109580759));
#1143=CARTESIAN_POINT('',(24.2194367463285,-44.275,13.6403741243118));
#1144=CARTESIAN_POINT('',(23.2194367463285,-43.275,15.1405213867863));
#1145=CARTESIAN_POINT('',(25.093994524508,-45.1495577781796,15.141626572233));
#1146=CARTESIAN_POINT('',(23.2194367463285,-43.275,15.1402266011415));
#1147=CARTESIAN_POINT('Origin',(22.7203211031091,-44.275,12.1402268618372));
#1148=CARTESIAN_POINT('',(30.7185509993246,-44.275,9.14494369202983));
#1149=CARTESIAN_POINT('',(30.7185509993246,-44.275,9.14494369202983));
#1150=CARTESIAN_POINT('',(30.7185509993247,-44.275,15.1449426492472));
#1151=CARTESIAN_POINT('Origin',(30.7203197128859,-44.275,12.1449431706385));
#1152=CARTESIAN_POINT('',(14.7203224933323,-44.275,15.1355105530359));
#1153=CARTESIAN_POINT('Origin',(14.722091500241,-42.275,9.13551107460017));
#1154=CARTESIAN_POINT('',(22.2194367463285,-43.275,9.13993202721462));
#1155=CARTESIAN_POINT('',(18.7220884293092,-43.275,9.13786974907773));
#1156=CARTESIAN_POINT('',(21.2194367463285,-44.275,9.13934235814253));
#1157=CARTESIAN_POINT('',(20.3453212565397,-45.1491154897888,9.13882691927276));
#1158=CARTESIAN_POINT('',(14.7220915002408,-44.275,9.13551107460017));
#1159=CARTESIAN_POINT('',(30.7185509993246,-44.275,9.14494369202983));
#1160=CARTESIAN_POINT('',(14.7220915002408,-42.275,9.13551107460017));
#1161=CARTESIAN_POINT('',(14.7220915002408,-42.275,9.13551107460017));
#1162=CARTESIAN_POINT('',(30.7185509993246,-42.275,9.14494369202983));
#1163=CARTESIAN_POINT('',(18.7220908048219,-42.275,9.13786975047849));
#1164=CARTESIAN_POINT('',(30.7185509993246,-42.275,9.14494369202983));
#1165=CARTESIAN_POINT('Origin',(21.7194367463285,-43.775,10.6400794445259));
#1166=CARTESIAN_POINT('',(22.2194367463285,-43.275,15.1399318154967));
#1167=CARTESIAN_POINT('',(21.2194367463285,-44.275,15.1393422442072));
#1168=CARTESIAN_POINT('',(24.3435524330319,-41.1508843132966,15.1411841331214));
#1169=CARTESIAN_POINT('',(21.2194367463285,-44.275,10.6400794445259));
#1170=CARTESIAN_POINT('',(22.2194367463285,-43.275,9.140227383315));
#1171=CARTESIAN_POINT('Origin',(22.7203211031091,-44.275,12.1402268618372));
#1172=CARTESIAN_POINT('',(14.7203224933323,-44.275,15.1355105530359));
#1173=CARTESIAN_POINT('',(14.7203224933323,-44.275,15.1355105530359));
#1174=CARTESIAN_POINT('Origin',(14.7203224933323,-44.275,12.1355105530359));
#1175=CARTESIAN_POINT('Origin',(22.7203211031091,-43.275,12.132169754356));
#1176=CARTESIAN_POINT('',(26.7185493193942,-43.275,15.1425843630984));
#1177=CARTESIAN_POINT('Origin',(30.7185509993246,-42.275,15.1449426492472));
#1178=CARTESIAN_POINT('',(30.7185509993247,-42.275,15.1449426492472));
#1179=CARTESIAN_POINT('',(30.7185509993247,-42.275,15.1449426492472));
#1180=CARTESIAN_POINT('',(14.7203224933323,-42.275,15.1355105530359));
#1181=CARTESIAN_POINT('',(26.718551694513,-42.275,15.1425843644987));
#1182=CARTESIAN_POINT('',(14.7203224933323,-42.275,15.1355105530359));
#1183=CARTESIAN_POINT('Origin',(30.7203197128859,-42.275,12.1449431706385));
#1184=CARTESIAN_POINT('Origin',(30.7203197128859,-42.275,12.1449431706385));
#1185=CARTESIAN_POINT('Origin',(14.7203224933323,-42.275,12.1355105530359));
#1186=CARTESIAN_POINT('Origin',(14.7203224933323,-42.275,12.1355105530359));
#1187=CARTESIAN_POINT('Origin',(30.722318282627,-42.275,8.64494374125013));
#1188=CARTESIAN_POINT('',(30.7223182826458,-42.275,8.64494374125014));
#1189=CARTESIAN_POINT('',(14.7678621211787,-42.275,8.63583342738783));
#1190=CARTESIAN_POINT('',(30.7223182826458,-41.275,8.64494374125014));
#1191=CARTESIAN_POINT('',(14.7678621211787,-41.275,8.63583342738783));
#1192=CARTESIAN_POINT('',(30.7223182826458,-42.275,8.64494374125014));
#1193=CARTESIAN_POINT('Origin',(30.7203197128859,-42.275,12.1449431706385));
#1194=CARTESIAN_POINT('',(30.7182561947195,-42.275,15.6449425623374));
#1195=CARTESIAN_POINT('Origin',(30.7203197128859,-42.275,12.1449431706385));
#1196=CARTESIAN_POINT('',(30.7182561947195,-41.275,15.6449425623374));
#1197=CARTESIAN_POINT('Origin',(30.7203197128859,-41.275,12.1449431706385));
#1198=CARTESIAN_POINT('',(30.7182561947195,-42.275,15.6449425623374));
#1199=CARTESIAN_POINT('Origin',(14.7203224933323,-42.275,15.6355105530359));
#1200=CARTESIAN_POINT('',(14.7203224933323,-42.275,15.6355105530359));
#1201=CARTESIAN_POINT('',(14.7203224933323,-41.275,15.6355105530359));
#1202=CARTESIAN_POINT('Origin',(22.7203211031091,-41.275,12.1402268618372));
#1203=CARTESIAN_POINT('Origin',(22.7203211031091,-42.275,12.1402268618372));
#1204=UNCERTAINTY_MEASURE_WITH_UNIT(LENGTH_MEASURE(0.01),#1208,
'DISTANCE_ACCURACY_VALUE',
'Maximum model space distance between geometric entities at asserted c
onnectivities');
#1205=UNCERTAINTY_MEASURE_WITH_UNIT(LENGTH_MEASURE(0.01),#1208,
'DISTANCE_ACCURACY_VALUE',
'Maximum model space distance between geometric entities at asserted c
onnectivities');
#1206=(
GEOMETRIC_REPRESENTATION_CONTEXT(3)
GLOBAL_UNCERTAINTY_ASSIGNED_CONTEXT((#1204))
GLOBAL_UNIT_ASSIGNED_CONTEXT((#1208,#1209,#1210))
REPRESENTATION_CONTEXT('','3D')
);
#1207=(
GEOMETRIC_REPRESENTATION_CONTEXT(3)
GLOBAL_UNCERTAINTY_ASSIGNED_CONTEXT((#1205))
GLOBAL_UNIT_ASSIGNED_CONTEXT((#1208,#1209,#1210))
REPRESENTATION_CONTEXT('','3D')
);
#1208=(
LENGTH_UNIT()
NAMED_UNIT(*)
SI_UNIT(.MILLI.,.METRE.)
);
#1209=(
NAMED_UNIT(*)
PLANE_ANGLE_UNIT()
SI_UNIT($,.RADIAN.)
);
#1210=(
NAMED_UNIT(*)
SI_UNIT($,.STERADIAN.)
SOLID_ANGLE_UNIT()
);
#1211=SHAPE_DEFINITION_REPRESENTATION(#1212,#1213);
#1212=PRODUCT_DEFINITION_SHAPE('',$,#1215);
#1213=SHAPE_REPRESENTATION('',(#744),#1206);
#1214=PRODUCT_DEFINITION_CONTEXT('part definition',#1219,'design');
#1215=PRODUCT_DEFINITION('Xii-Boy Ultra','Xii-Boy Ultra v221',#1216,#1214);
#1216=PRODUCT_DEFINITION_FORMATION('',$,#1221);
#1217=PRODUCT_RELATED_PRODUCT_CATEGORY('Xii-Boy Ultra v221',
'Xii-Boy Ultra v221',(#1221));
#1218=APPLICATION_PROTOCOL_DEFINITION('international standard',
'automotive_design',2009,#1219);
#1219=APPLICATION_CONTEXT(
'Core Data for Automotive Mechanical Design Process');
#1220=PRODUCT_CONTEXT('part definition',#1219,'mechanical');
#1221=PRODUCT('Xii-Boy Ultra','Xii-Boy Ultra v221',$,(#1220));
#1222=PRESENTATION_STYLE_ASSIGNMENT((#1256));
#1223=PRESENTATION_STYLE_ASSIGNMENT((#1257));
#1224=PRESENTATION_STYLE_ASSIGNMENT((#1258));
#1225=PRESENTATION_STYLE_ASSIGNMENT((#1259));
#1226=PRESENTATION_STYLE_ASSIGNMENT((#1260));
#1227=PRESENTATION_STYLE_ASSIGNMENT((#1261));
#1228=PRESENTATION_STYLE_ASSIGNMENT((#1262));
#1229=PRESENTATION_STYLE_ASSIGNMENT((#1263));
#1230=PRESENTATION_STYLE_ASSIGNMENT((#1264));
#1231=PRESENTATION_STYLE_ASSIGNMENT((#1265));
#1232=PRESENTATION_STYLE_ASSIGNMENT((#1266));
#1233=PRESENTATION_STYLE_ASSIGNMENT((#1267));
#1234=PRESENTATION_STYLE_ASSIGNMENT((#1268));
#1235=PRESENTATION_STYLE_ASSIGNMENT((#1269));
#1236=PRESENTATION_STYLE_ASSIGNMENT((#1270));
#1237=PRESENTATION_STYLE_ASSIGNMENT((#1271));
#1238=PRESENTATION_STYLE_ASSIGNMENT((#1272));
#1239=PRESENTATION_STYLE_ASSIGNMENT((#1273));
#1240=PRESENTATION_STYLE_ASSIGNMENT((#1274));
#1241=PRESENTATION_STYLE_ASSIGNMENT((#1275));
#1242=PRESENTATION_STYLE_ASSIGNMENT((#1276));
#1243=PRESENTATION_STYLE_ASSIGNMENT((#1277));
#1244=PRESENTATION_STYLE_ASSIGNMENT((#1278));
#1245=PRESENTATION_STYLE_ASSIGNMENT((#1279));
#1246=PRESENTATION_STYLE_ASSIGNMENT((#1280));
#1247=PRESENTATION_STYLE_ASSIGNMENT((#1281));
#1248=PRESENTATION_STYLE_ASSIGNMENT((#1282));
#1249=PRESENTATION_STYLE_ASSIGNMENT((#1283));
#1250=PRESENTATION_STYLE_ASSIGNMENT((#1284));
#1251=PRESENTATION_STYLE_ASSIGNMENT((#1285));
#1252=PRESENTATION_STYLE_ASSIGNMENT((#1286));
#1253=PRESENTATION_STYLE_ASSIGNMENT((#1287));
#1254=PRESENTATION_STYLE_ASSIGNMENT((#1288));
#1255=PRESENTATION_STYLE_ASSIGNMENT((#1289));
#1256=SURFACE_STYLE_USAGE(.BOTH.,#1290);
#1257=SURFACE_STYLE_USAGE(.BOTH.,#1291);
#1258=SURFACE_STYLE_USAGE(.BOTH.,#1292);
#1259=SURFACE_STYLE_USAGE(.BOTH.,#1293);
#1260=SURFACE_STYLE_USAGE(.BOTH.,#1294);
#1261=SURFACE_STYLE_USAGE(.BOTH.,#1295);
#1262=SURFACE_STYLE_USAGE(.BOTH.,#1296);
#1263=SURFACE_STYLE_USAGE(.BOTH.,#1297);
#1264=SURFACE_STYLE_USAGE(.BOTH.,#1298);
#1265=SURFACE_STYLE_USAGE(.BOTH.,#1299);
#1266=SURFACE_STYLE_USAGE(.BOTH.,#1300);
#1267=SURFACE_STYLE_USAGE(.BOTH.,#1301);
#1268=SURFACE_STYLE_USAGE(.BOTH.,#1302);
#1269=SURFACE_STYLE_USAGE(.BOTH.,#1303);
#1270=SURFACE_STYLE_USAGE(.BOTH.,#1304);
#1271=SURFACE_STYLE_USAGE(.BOTH.,#1305);
#1272=SURFACE_STYLE_USAGE(.BOTH.,#1306);
#1273=SURFACE_STYLE_USAGE(.BOTH.,#1307);
#1274=SURFACE_STYLE_USAGE(.BOTH.,#1308);
#1275=SURFACE_STYLE_USAGE(.BOTH.,#1309);
#1276=SURFACE_STYLE_USAGE(.BOTH.,#1310);
#1277=SURFACE_STYLE_USAGE(.BOTH.,#1311);
#1278=SURFACE_STYLE_USAGE(.BOTH.,#1312);
#1279=SURFACE_STYLE_USAGE(.BOTH.,#1313);
#1280=SURFACE_STYLE_USAGE(.BOTH.,#1314);
#1281=SURFACE_STYLE_USAGE(.BOTH.,#1315);
#1282=SURFACE_STYLE_USAGE(.BOTH.,#1316);
#1283=SURFACE_STYLE_USAGE(.BOTH.,#1317);
#1284=SURFACE_STYLE_USAGE(.BOTH.,#1318);
#1285=SURFACE_STYLE_USAGE(.BOTH.,#1319);
#1286=SURFACE_STYLE_USAGE(.BOTH.,#1320);
#1287=SURFACE_STYLE_USAGE(.BOTH.,#1321);
#1288=SURFACE_STYLE_USAGE(.BOTH.,#1322);
#1289=SURFACE_STYLE_USAGE(.BOTH.,#1323);
#1290=SURFACE_SIDE_STYLE('',(#1324));
#1291=SURFACE_SIDE_STYLE('',(#1325));
#1292=SURFACE_SIDE_STYLE('',(#1326));
#1293=SURFACE_SIDE_STYLE('',(#1327));
#1294=SURFACE_SIDE_STYLE('',(#1328));
#1295=SURFACE_SIDE_STYLE('',(#1329));
#1296=SURFACE_SIDE_STYLE('',(#1330));
#1297=SURFACE_SIDE_STYLE('',(#1331));
#1298=SURFACE_SIDE_STYLE('',(#1332));
#1299=SURFACE_SIDE_STYLE('',(#1333));
#1300=SURFACE_SIDE_STYLE('',(#1334));
#1301=SURFACE_SIDE_STYLE('',(#1335));
#1302=SURFACE_SIDE_STYLE('',(#1336));
#1303=SURFACE_SIDE_STYLE('',(#1337));
#1304=SURFACE_SIDE_STYLE('',(#1338));
#1305=SURFACE_SIDE_STYLE('',(#1339));
#1306=SURFACE_SIDE_STYLE('',(#1340));
#1307=SURFACE_SIDE_STYLE('',(#1341));
#1308=SURFACE_SIDE_STYLE('',(#1342));
#1309=SURFACE_SIDE_STYLE('',(#1343));
#1310=SURFACE_SIDE_STYLE('',(#1344));
#1311=SURFACE_SIDE_STYLE('',(#1345));
#1312=SURFACE_SIDE_STYLE('',(#1346));
#1313=SURFACE_SIDE_STYLE('',(#1347));
#1314=SURFACE_SIDE_STYLE('',(#1348));
#1315=SURFACE_SIDE_STYLE('',(#1349));
#1316=SURFACE_SIDE_STYLE('',(#1350));
#1317=SURFACE_SIDE_STYLE('',(#1351));
#1318=SURFACE_SIDE_STYLE('',(#1352));
#1319=SURFACE_SIDE_STYLE('',(#1353));
#1320=SURFACE_SIDE_STYLE('',(#1354));
#1321=SURFACE_SIDE_STYLE('',(#1355));
#1322=SURFACE_SIDE_STYLE('',(#1356));
#1323=SURFACE_SIDE_STYLE('',(#1357));
#1324=SURFACE_STYLE_FILL_AREA(#1358);
#1325=SURFACE_STYLE_FILL_AREA(#1359);
#1326=SURFACE_STYLE_FILL_AREA(#1360);
#1327=SURFACE_STYLE_FILL_AREA(#1361);
#1328=SURFACE_STYLE_FILL_AREA(#1362);
#1329=SURFACE_STYLE_FILL_AREA(#1363);
#1330=SURFACE_STYLE_FILL_AREA(#1364);
#1331=SURFACE_STYLE_FILL_AREA(#1365);
#1332=SURFACE_STYLE_FILL_AREA(#1366);
#1333=SURFACE_STYLE_FILL_AREA(#1367);
#1334=SURFACE_STYLE_FILL_AREA(#1368);
#1335=SURFACE_STYLE_FILL_AREA(#1369);
#1336=SURFACE_STYLE_FILL_AREA(#1370);
#1337=SURFACE_STYLE_FILL_AREA(#1371);
#1338=SURFACE_STYLE_FILL_AREA(#1372);
#1339=SURFACE_STYLE_FILL_AREA(#1373);
#1340=SURFACE_STYLE_FILL_AREA(#1374);
#1341=SURFACE_STYLE_FILL_AREA(#1375);
#1342=SURFACE_STYLE_FILL_AREA(#1376);
#1343=SURFACE_STYLE_FILL_AREA(#1377);
#1344=SURFACE_STYLE_FILL_AREA(#1378);
#1345=SURFACE_STYLE_FILL_AREA(#1379);
#1346=SURFACE_STYLE_FILL_AREA(#1380);
#1347=SURFACE_STYLE_FILL_AREA(#1381);
#1348=SURFACE_STYLE_FILL_AREA(#1382);
#1349=SURFACE_STYLE_FILL_AREA(#1383);
#1350=SURFACE_STYLE_FILL_AREA(#1384);
#1351=SURFACE_STYLE_FILL_AREA(#1385);
#1352=SURFACE_STYLE_FILL_AREA(#1386);
#1353=SURFACE_STYLE_FILL_AREA(#1387);
#1354=SURFACE_STYLE_FILL_AREA(#1388);
#1355=SURFACE_STYLE_FILL_AREA(#1389);
#1356=SURFACE_STYLE_FILL_AREA(#1390);
#1357=SURFACE_STYLE_FILL_AREA(#1391);
#1358=FILL_AREA_STYLE('Opaque(80,124,105)',(#1392));
#1359=FILL_AREA_STYLE('Opaque(50,50,50)',(#1393));
#1360=FILL_AREA_STYLE('Opaque(218,205,0)',(#1394));
#1361=FILL_AREA_STYLE('Opaque(52,52,52)',(#1395));
#1362=FILL_AREA_STYLE('Opaque(191,191,191)',(#1396));
#1363=FILL_AREA_STYLE('Opaque(15,102,15)',(#1397));
#1364=FILL_AREA_STYLE('Opaque(202,209,238)',(#1398));
#1365=FILL_AREA_STYLE('Opaque(255,255,255)',(#1399));
#1366=FILL_AREA_STYLE('Opaque(152,170,175)',(#1400));
#1367=FILL_AREA_STYLE('Opaque(204,203,178)',(#1401));
#1368=FILL_AREA_STYLE('Opaque(234,234,234)',(#1402));
#1369=FILL_AREA_STYLE('Opaque(69,69,69)',(#1403));
#1370=FILL_AREA_STYLE('Opaque(64,64,64)',(#1404));
#1371=FILL_AREA_STYLE('Opaque(225,225,225)',(#1405));
#1372=FILL_AREA_STYLE('Opaque(25,25,25)',(#1406));
#1373=FILL_AREA_STYLE('Opaque(211,84,18)',(#1407));
#1374=FILL_AREA_STYLE('Opaque(70,70,70)',(#1408));
#1375=FILL_AREA_STYLE('Opaque(219,219,219)',(#1409));
#1376=FILL_AREA_STYLE('Opaque(204,204,204)',(#1410));
#1377=FILL_AREA_STYLE('Opaque(160,160,160)',(#1411));
#1378=FILL_AREA_STYLE('Opaque(220,220,220)',(#1412));
#1379=FILL_AREA_STYLE('Opaque(63,63,63)',(#1413));
#1380=FILL_AREA_STYLE('Opaque(176,176,176)',(#1414));
#1381=FILL_AREA_STYLE('Powder Coat - Rough (Dark Grey)',(#1415));
#1382=FILL_AREA_STYLE('Opaque(21,22,24)',(#1416));
#1383=FILL_AREA_STYLE('Aluminum - Polished',(#1417));
#1384=FILL_AREA_STYLE('Gold - Polished',(#1418));
#1385=FILL_AREA_STYLE('Steel - Satin',(#1419));
#1386=FILL_AREA_STYLE('Opaque(246,246,243)',(#1420));
#1387=FILL_AREA_STYLE('Plastic - Glossy (Black)',(#1421));
#1388=FILL_AREA_STYLE('Copper - Polished',(#1422));
#1389=FILL_AREA_STYLE('Aluminum - Anodized Rough (Red)',(#1423));
#1390=FILL_AREA_STYLE('Glass (Clear)',(#1424));
#1391=FILL_AREA_STYLE('Opaque(243,243,243)',(#1425));
#1392=FILL_AREA_STYLE_COLOUR('Opaque(80,124,105)',#1426);
#1393=FILL_AREA_STYLE_COLOUR('Opaque(50,50,50)',#1427);
#1394=FILL_AREA_STYLE_COLOUR('Opaque(218,205,0)',#1428);
#1395=FILL_AREA_STYLE_COLOUR('Opaque(52,52,52)',#1429);
#1396=FILL_AREA_STYLE_COLOUR('Opaque(191,191,191)',#1430);
#1397=FILL_AREA_STYLE_COLOUR('Opaque(15,102,15)',#1431);
#1398=FILL_AREA_STYLE_COLOUR('Opaque(202,209,238)',#1432);
#1399=FILL_AREA_STYLE_COLOUR('Opaque(255,255,255)',#1433);
#1400=FILL_AREA_STYLE_COLOUR('Opaque(152,170,175)',#1434);
#1401=FILL_AREA_STYLE_COLOUR('Opaque(204,203,178)',#1435);
#1402=FILL_AREA_STYLE_COLOUR('Opaque(234,234,234)',#1436);
#1403=FILL_AREA_STYLE_COLOUR('Opaque(69,69,69)',#1437);
#1404=FILL_AREA_STYLE_COLOUR('Opaque(64,64,64)',#1438);
#1405=FILL_AREA_STYLE_COLOUR('Opaque(225,225,225)',#1439);
#1406=FILL_AREA_STYLE_COLOUR('Opaque(25,25,25)',#1440);
#1407=FILL_AREA_STYLE_COLOUR('Opaque(211,84,18)',#1441);
#1408=FILL_AREA_STYLE_COLOUR('Opaque(70,70,70)',#1442);
#1409=FILL_AREA_STYLE_COLOUR('Opaque(219,219,219)',#1443);
#1410=FILL_AREA_STYLE_COLOUR('Opaque(204,204,204)',#1444);
#1411=FILL_AREA_STYLE_COLOUR('Opaque(160,160,160)',#1445);
#1412=FILL_AREA_STYLE_COLOUR('Opaque(220,220,220)',#1446);
#1413=FILL_AREA_STYLE_COLOUR('Opaque(63,63,63)',#1447);
#1414=FILL_AREA_STYLE_COLOUR('Opaque(176,176,176)',#1448);
#1415=FILL_AREA_STYLE_COLOUR('Powder Coat - Rough (Dark Grey)',#1449);
#1416=FILL_AREA_STYLE_COLOUR('Opaque(21,22,24)',#1450);
#1417=FILL_AREA_STYLE_COLOUR('Aluminum - Polished',#1451);
#1418=FILL_AREA_STYLE_COLOUR('Gold - Polished',#1452);
#1419=FILL_AREA_STYLE_COLOUR('Steel - Satin',#1453);
#1420=FILL_AREA_STYLE_COLOUR('Opaque(246,246,243)',#1454);
#1421=FILL_AREA_STYLE_COLOUR('Plastic - Glossy (Black)',#1455);
#1422=FILL_AREA_STYLE_COLOUR('Copper - Polished',#1456);
#1423=FILL_AREA_STYLE_COLOUR('Aluminum - Anodized Rough (Red)',#1457);
#1424=FILL_AREA_STYLE_COLOUR('Glass (Clear)',#1458);
#1425=FILL_AREA_STYLE_COLOUR('Opaque(243,243,243)',#1459);
#1426=COLOUR_RGB('Opaque(80,124,105)',0.313725490196078,0.486274509803922,
0.411764705882353);
#1427=COLOUR_RGB('Opaque(50,50,50)',0.196078431372549,0.196078431372549,
0.196078431372549);
#1428=COLOUR_RGB('Opaque(218,205,0)',0.854901960784314,0.803921568627451,
0.);
#1429=COLOUR_RGB('Opaque(52,52,52)',0.203921568627451,0.203921568627451,
0.203921568627451);
#1430=COLOUR_RGB('Opaque(191,191,191)',0.749019607843137,0.749019607843137,
0.749019607843137);
#1431=COLOUR_RGB('Opaque(15,102,15)',0.0588235294117647,0.4,0.0588235294117647);
#1432=COLOUR_RGB('Opaque(202,209,238)',0.792156862745098,0.819607843137255,
0.933333333333333);
#1433=COLOUR_RGB('Opaque(255,255,255)',1.,1.,1.);
#1434=COLOUR_RGB('Opaque(152,170,175)',0.596078431372549,0.666666666666667,
0.686274509803922);
#1435=COLOUR_RGB('Opaque(204,203,178)',0.8,0.796078431372549,0.698039215686274);
#1436=COLOUR_RGB('Opaque(234,234,234)',0.917647058823529,0.917647058823529,
0.917647058823529);
#1437=COLOUR_RGB('Opaque(69,69,69)',0.270588235294118,0.270588235294118,
0.270588235294118);
#1438=COLOUR_RGB('Opaque(64,64,64)',0.250980392156863,0.250980392156863,
0.250980392156863);
#1439=COLOUR_RGB('Opaque(225,225,225)',0.882352941176471,0.882352941176471,
0.882352941176471);
#1440=COLOUR_RGB('Opaque(25,25,25)',0.0980392156862745,0.0980392156862745,
0.0980392156862745);
#1441=COLOUR_RGB('Opaque(211,84,18)',0.827450980392157,0.329411764705882,
0.0705882352941176);
#1442=COLOUR_RGB('Opaque(70,70,70)',0.274509803921569,0.274509803921569,
0.274509803921569);
#1443=COLOUR_RGB('Opaque(219,219,219)',0.858823529411765,0.858823529411765,
0.858823529411765);
#1444=COLOUR_RGB('Opaque(204,204,204)',0.8,0.8,0.8);
#1445=COLOUR_RGB('Opaque(160,160,160)',0.627450980392157,0.627450980392157,
0.627450980392157);
#1446=COLOUR_RGB('Opaque(220,220,220)',0.862745098039216,0.862745098039216,
0.862745098039216);
#1447=COLOUR_RGB('Opaque(63,63,63)',0.250980392156863,0.250980392156863,
0.250980392156863);
#1448=COLOUR_RGB('Opaque(176,176,176)',0.690196078431373,0.690196078431373,
0.690196078431373);
#1449=COLOUR_RGB('Powder Coat - Rough (Dark Grey)',0.349019607843137,0.349019607843137,
0.349019607843137);
#1450=COLOUR_RGB('Opaque(21,22,24)',0.0823529411764706,0.0862745098039216,
0.0941176470588235);
#1451=COLOUR_RGB('Aluminum - Polished',0.96078431372549,0.96078431372549,
0.964705882352941);
#1452=COLOUR_RGB('Gold - Polished',0.956862745098039,0.898039215686275,
0.654901960784314);
#1453=COLOUR_RGB('Steel - Satin',0.627450980392157,0.627450980392157,0.627450980392157);
#1454=COLOUR_RGB('Opaque(246,246,243)',0.964705882352941,0.964705882352941,
0.952941176470588);
#1455=COLOUR_RGB('Plastic - Glossy (Black)',0.0980392156862745,0.0980392156862745,
0.0980392156862745);
#1456=COLOUR_RGB('Copper - Polished',0.929411764705882,0.807843137254902,
0.764705882352941);
#1457=COLOUR_RGB('Aluminum - Anodized Rough (Red)',0.854901960784314,0.349019607843137,
0.349019607843137);
#1458=COLOUR_RGB('Glass (Clear)',0.964705882352941,0.964705882352941,0.952941176470588);
#1459=COLOUR_RGB('Opaque(243,243,243)',0.952941176470588,0.952941176470588,
0.952941176470588);
ENDSEC;
END-ISO-10303-21;
